<svg width="512" height="512" viewBox="0 0 512 512" fill="none" xmlns="http://www.w3.org/2000/svg"><path d="M512 208c0-64.042-40.427-120.302-102.979-143.344a10.611 10.611 0 00-11.229 2.47 10.674 10.674 0 00-2.469 11.228c5.479 14.875 10.01 28.479 10.01 44.313 0 51.69-29.536 97.539-75.645 119.711-26.788-43.668-74.725-71.711-127.022-71.711-76.84 0-140.449 58.299-148.202 133.996C22.669 317.083 0 347.861 0 384c0 47.052 38.281 85.333 85.333 85.333h277.333c58.813 0 106.667-47.854 106.667-106.667 0-14.34-2.934-27.987-8.089-40.49C493.492 292.849 512 251.814 512 208z" fill="#303C42"/><path d="M426.667 122.667c0-10.094-1.458-19.323-3.708-28.145 41.771 23.593 67.708 66.093 67.708 113.478 0 35.964-14.41 69.819-39.785 94.818C431.669 274.594 399.306 256 362.667 256c-4.926 0-9.799.415-14.618 1.077 48.286-27.189 78.618-77.873 78.618-134.41z" fill="#FFF4D4"/><path d="M245.333 106.667c15.458 0 18.979 2.073 24.458 7.542 5.469 5.479 7.542 9 7.542 24.458A10.66 10.66 0 00288 149.334a10.66 10.66 0 0010.667-10.667c0-15.458 2.073-18.979 7.542-24.458 5.479-5.469 9-7.542 24.458-7.542A10.66 10.66 0 00341.334 96a10.66 10.66 0 00-10.667-10.667c-15.458 0-18.979-2.073-24.458-7.542-5.469-5.479-7.542-9-7.542-24.458A10.66 10.66 0 00288 42.666a10.66 10.66 0 00-10.667 10.667c0 15.458-2.073 18.979-7.542 24.458-5.479 5.469-9 7.542-24.458 7.542A10.66 10.66 0 00234.666 96a10.662 10.662 0 0010.667 10.667z" fill="#303C42"/><path d="M284.875 92.875A60.583 60.583 0 00288 89.531c.958 1.115 2 2.22 3.125 3.344A60.618 60.618 0 00294.469 96c-1.115.958-2.219 2-3.344 3.125A60.507 60.507 0 00288 102.47c-.958-1.115-2-2.219-3.125-3.344A60.618 60.618 0 00281.531 96c1.115-.958 2.219-2 3.344-3.125z" fill="#FFCA28"/><path d="M447.999 362.667c0 47.052-38.271 85.333-85.333 85.333H85.332c-35.292 0-64-28.708-64-64s28.708-64 64-64a10.66 10.66 0 0010.667-10.667 10.66 10.66 0 00-10.667-10.667c-3.02 0-5.879.585-8.819.892C86.318 238.258 139.287 192 202.666 192c49.551 0 94.474 29.395 115.391 73.837-5.147 2.374-10.152 5.087-14.911 8.288-4.875 3.292-6.188 9.917-2.896 14.813 3.313 4.885 9.938 6.146 14.813 2.896 14.083-9.49 30.563-14.5 47.604-14.5 47.061-.001 85.332 38.281 85.332 85.333z" fill="#C1B3FD"/><path d="M512 208c0-64.042-40.427-120.302-102.979-143.344a10.611 10.611 0 00-11.229 2.469 10.674 10.674 0 00-2.469 11.229c5.479 14.875 10.01 28.479 10.01 44.313 0 51.69-29.536 97.539-75.645 119.711-26.788-43.668-74.725-71.711-127.022-71.711-76.84 0-140.449 58.299-148.202 133.996C22.669 317.083 0 347.861 0 384c0 47.052 38.281 85.333 85.333 85.333h277.333c58.813 0 106.667-47.854 106.667-106.667 0-14.34-2.934-27.987-8.089-40.49C493.492 292.849 512 251.814 512 208zM245.333 106.667c15.458 0 18.979 2.073 24.458 7.542 5.469 5.479 7.542 9 7.542 24.458A10.66 10.66 0 00288 149.334a10.66 10.66 0 0010.667-10.667c0-15.458 2.073-18.979 7.542-24.458 5.479-5.469 9-7.542 24.458-7.542A10.66 10.66 0 00341.334 96a10.66 10.66 0 00-10.667-10.667c-15.458 0-18.979-2.073-24.458-7.542-5.469-5.479-7.542-9-7.542-24.458A10.66 10.66 0 00288 42.666a10.66 10.66 0 00-10.667 10.667c0 15.458-2.073 18.979-7.542 24.458-5.479 5.469-9 7.542-24.458 7.542A10.66 10.66 0 00234.666 96a10.662 10.662 0 0010.667 10.667z" fill="url(#paint0_linear)"/><path opacity=".1" d="M411.055 292.51c2.978 8.674 4.944 17.819 4.944 27.49 0 47.052-38.271 85.333-85.333 85.333H53.332c-11.142 0-21.469-3.116-30.602-8.142C28.832 426.169 54.566 448 85.332 448h277.333c47.063 0 85.334-38.281 85.334-85.333 0-29.078-14.668-54.743-36.944-70.157zm68.593-136.204c-2.378 47.688-28.754 88.945-67.392 112.026 15.512 8.198 28.803 20.056 38.626 34.486 25.375-24.999 39.785-58.854 39.785-94.818.001-18.233-3.913-35.707-11.019-51.694z" fill="#000"/><defs><linearGradient id="paint0_linear" x1="80.162" y1="193.25" x2="473.802" y2="376.725" gradientUnits="userSpaceOnUse"><stop stop-color="#fff" stop-opacity=".2"/><stop offset="1" stop-color="#fff" stop-opacity="0"/></linearGradient></defs></svg>