<svg width="512" height="512" viewBox="0 0 512 512" fill="none" xmlns="http://www.w3.org/2000/svg"><g clip-path="url(#clip0)"><path d="M512 144C512 79.969 471.583 23.698 409.021.656c-3.917-1.406-8.271-.479-11.229 2.469a10.668 10.668 0 00-2.458 11.229c5.458 14.875 10 28.479 10 44.313 0 51.694-29.53 97.546-75.652 119.716-26.796-43.665-74.728-71.716-127.014-71.716-76.865 0-140.452 58.292-148.182 133.988C22.674 253.068 0 283.852 0 320c0 42.362 31.105 77.342 71.635 83.948L45.71 429.874c-4.172-1.996-8.784-3.207-13.71-3.207-17.646 0-32 14.354-32 32s14.354 32 32 32 32-14.354 32-32c0-4.926-1.211-9.538-3.207-13.71l39.624-39.624H262.25l-24.54 24.54c-4.172-1.996-8.784-3.207-13.71-3.207-17.646 0-32 14.354-32 32s14.354 32 32 32 32-14.354 32-32c0-4.926-1.211-9.538-3.207-13.71l39.624-39.624h70.25c58.813 0 106.667-47.854 106.667-106.667 0-14.34-2.934-27.987-8.089-40.49C493.492 228.849 512 187.814 512 144z" fill="#303C42"/><path d="M223.999 469.334c5.891 0 10.667-4.776 10.667-10.667S229.89 448 223.999 448s-10.667 4.776-10.667 10.667 4.776 10.667 10.667 10.667zm-192 0c5.891 0 10.667-4.776 10.667-10.667S37.89 448 31.999 448s-10.667 4.776-10.667 10.667 4.776 10.667 10.667 10.667z" fill="#BBDEFB"/><path d="M245.331 64c15.458 0 18.979 2.073 24.458 7.552 5.479 5.458 7.542 8.979 7.542 24.448a10.66 10.66 0 0010.667 10.667A10.66 10.66 0 00298.665 96c0-15.469 2.063-18.99 7.542-24.448 5.479-5.479 9-7.552 24.458-7.552a10.66 10.66 0 0010.667-10.667 10.66 10.66 0 00-10.667-10.667c-15.458 0-18.979-2.073-24.458-7.552-5.479-5.458-7.542-8.979-7.542-24.448A10.66 10.66 0 00287.998 0a10.66 10.66 0 00-10.667 10.667c0 15.469-2.063 18.99-7.542 24.448-5.479 5.479-9 7.552-24.458 7.552a10.66 10.66 0 00-10.667 10.667A10.66 10.66 0 00245.331 64zm109.793 355.125l-32.082 32.082c-4.172-1.996-8.784-3.207-13.71-3.207-17.646 0-32 14.354-32 32s14.354 32 32 32 32-14.354 32-32c0-4.926-1.211-9.538-3.207-13.71l32.082-32.082c4.167-4.167 4.167-10.917 0-15.083-4.166-4.167-10.916-4.167-15.083 0z" fill="#303C42"/><path d="M309.331 490.667c5.891 0 10.667-4.776 10.667-10.667s-4.776-10.667-10.667-10.667-10.667 4.776-10.667 10.667 4.776 10.667 10.667 10.667z" fill="#BBDEFB"/><path d="M163.124 419.125l-32.082 32.082c-4.172-1.996-8.784-3.207-13.71-3.207-17.646 0-32 14.354-32 32s14.354 32 32 32 32-14.354 32-32c0-4.926-1.211-9.538-3.207-13.71l32.082-32.082c4.167-4.167 4.167-10.917 0-15.083-4.166-4.167-10.916-4.167-15.083 0z" fill="#303C42"/><path d="M117.331 490.667c5.891 0 10.667-4.776 10.667-10.667s-4.776-10.667-10.667-10.667-10.667 4.776-10.667 10.667 4.776 10.667 10.667 10.667z" fill="#BBDEFB"/><path d="M284.875 50.208A60.618 60.618 0 00288 46.864c.958 1.115 2 2.22 3.125 3.344a60.618 60.618 0 003.344 3.125c-1.115.958-2.219 2-3.344 3.125A60.618 60.618 0 00288 59.802c-.958-1.115-2-2.219-3.125-3.344a60.618 60.618 0 00-3.344-3.125c1.115-.958 2.219-2 3.344-3.125z" fill="#FFCA28"/><path d="M284.875 51.689A60.618 60.618 0 00288 48.345c.958 1.115 2 2.219 3.125 3.344a60.618 60.618 0 003.344 3.125c-1.115.958-2.219 2-3.344 3.125A60.618 60.618 0 00288 61.283c-.958-1.115-2-2.22-3.125-3.344a60.618 60.618 0 00-3.344-3.125c1.115-.96 2.219-2 3.344-3.125z" fill="#FFCA28"/><path d="M426.669 60.146c0-10.094-1.458-19.323-3.708-28.146 41.771 23.594 67.708 66.094 67.708 113.479 0 35.964-14.41 69.819-39.785 94.818-19.212-28.224-51.576-46.818-88.215-46.818-4.926 0-9.799.415-14.618 1.077 48.286-27.189 78.618-77.872 78.618-134.41z" fill="#FFF4D4"/><path d="M447.999 300.146c0 47.052-38.271 85.333-85.333 85.333H85.332c-35.292 0-64-28.708-64-64s28.708-64 64-64a10.66 10.66 0 0010.667-10.667 10.66 10.66 0 00-10.667-10.667c-3.02 0-5.879.585-8.819.892 9.805-61.301 62.773-107.559 126.152-107.559 49.551 0 94.474 29.395 115.391 73.837-5.147 2.374-10.152 5.087-14.911 8.288-4.875 3.292-6.188 9.917-2.896 14.813 3.313 4.885 9.938 6.146 14.813 2.896 14.083-9.49 30.563-14.5 47.604-14.5 47.062.001 85.333 38.282 85.333 85.334z" fill="#C1B3FD"/><path opacity=".1" d="M411.055 228.51c2.978 8.674 4.944 17.819 4.944 27.49 0 47.052-38.271 85.333-85.333 85.333H53.332c-11.142 0-21.469-3.116-30.602-8.142C28.832 362.169 54.566 384 85.332 384h277.333c47.063 0 85.334-38.281 85.334-85.333 0-29.078-14.668-54.743-36.944-70.157zm68.591-136.204c-2.378 47.688-28.754 88.945-67.392 112.026 15.512 8.198 28.803 20.056 38.626 34.486 25.375-24.999 39.785-58.854 39.785-94.818.001-18.233-3.913-35.707-11.019-51.694z" fill="#000"/><path d="M512 144C512 79.969 471.583 23.698 409.021.656c-3.917-1.406-8.271-.479-11.229 2.469a10.668 10.668 0 00-2.458 11.229c5.458 14.875 10 28.479 10 44.313 0 51.694-29.53 97.546-75.652 119.716-26.796-43.665-74.728-71.716-127.014-71.716-76.865 0-140.452 58.292-148.182 133.988C22.674 253.068 0 283.852 0 320c0 42.362 31.105 77.342 71.635 83.948L45.71 429.874c-4.172-1.996-8.784-3.207-13.71-3.207-17.646 0-32 14.354-32 32s14.354 32 32 32 32-14.354 32-32c0-4.926-1.211-9.538-3.207-13.71l39.624-39.624H262.25l-24.54 24.54c-4.172-1.996-8.784-3.207-13.71-3.207-17.646 0-32 14.354-32 32s14.354 32 32 32 32-14.354 32-32c0-4.926-1.211-9.538-3.207-13.71l39.624-39.624h70.25c58.813 0 106.667-47.854 106.667-106.667 0-14.34-2.934-27.987-8.089-40.49C493.492 228.849 512 187.814 512 144zM245.333 64c15.458 0 18.979 2.073 24.458 7.552 5.479 5.458 7.542 8.979 7.542 24.448A10.66 10.66 0 00288 106.667 10.66 10.66 0 00298.667 96c0-15.469 2.063-18.99 7.542-24.448 5.479-5.479 9-7.552 24.458-7.552a10.66 10.66 0 0010.667-10.667 10.66 10.66 0 00-10.667-10.667c-15.458 0-18.979-2.073-24.458-7.552-5.479-5.458-7.542-8.979-7.542-24.448A10.66 10.66 0 00288 0a10.66 10.66 0 00-10.667 10.667c0 15.469-2.063 18.99-7.542 24.448-5.479 5.479-9 7.552-24.458 7.552a10.66 10.66 0 00-10.667 10.667A10.66 10.66 0 00245.333 64zm109.792 355.125l-32.082 32.082c-4.172-1.996-8.784-3.207-13.71-3.207-17.646 0-32 14.354-32 32s14.354 32 32 32 32-14.354 32-32c0-4.926-1.211-9.538-3.207-13.71l32.082-32.082c4.167-4.167 4.167-10.917 0-15.083-4.166-4.167-10.916-4.167-15.083 0zm-192 0l-32.082 32.082c-4.172-1.996-8.784-3.207-13.71-3.207-17.646 0-32 14.354-32 32s14.354 32 32 32 32-14.354 32-32c0-4.926-1.211-9.538-3.207-13.71l32.082-32.082c4.167-4.167 4.167-10.917 0-15.083-4.166-4.167-10.916-4.167-15.083 0z" fill="url(#paint0_linear)"/></g><defs><linearGradient id="paint0_linear" x1="60.162" y1="172.224" x2="453.729" y2="355.782" gradientUnits="userSpaceOnUse"><stop stop-color="#fff" stop-opacity=".2"/><stop offset="1" stop-color="#fff" stop-opacity="0"/></linearGradient><clipPath id="clip0"><path fill="#fff" d="M0 0h512v512H0z"/></clipPath></defs></svg>