<svg width="512" height="512" viewBox="0 0 512 512" fill="none" xmlns="http://www.w3.org/2000/svg"><g clip-path="url(#clip0)"><path d="M444.87 45.777c-3.25-3.25-8.188-4.042-12.313-2L313.39 103.362l-58.916-98.2c-2.354-3.939-7-5.866-11.458-4.928a10.658 10.658 0 00-8.292 9.302l-19.729 187.36-92.896-46.449a10.608 10.608 0 00-9.813.135 10.704 10.704 0 00-5.542 8.084L64.078 500.01a10.676 10.676 0 006.73 11.271c1.25.49 2.562.719 3.853.719 3.396 0 6.666-1.615 8.708-4.511l123.25-174.62 77.625 29.116a10.635 10.635 0 0013.292-5.219L446.87 58.09a10.65 10.65 0 00-2-12.313z" fill="#303C42"/><path d="M282.748 338.64l-76.333-28.636a10.661 10.661 0 00-12.458 3.833L90.539 460.353l35.5-284.082 93.188 46.595c3.146 1.573 6.813 1.479 9.896-.188a10.642 10.642 0 005.479-8.24l18-170.943 47.583 79.315c2.854 4.761 8.938 6.5 13.917 4.052l99.375-49.689L282.748 338.64z" fill="#FFCA28"/><path opacity=".2" d="M181.331 202.667l-55.292-26.396-35.5 284.082 19.594-27.761 71.198-229.925z" fill="#fff"/><path opacity=".1" d="M330.663 117.333l-54.616 218.795 6.7 2.513L413.476 77.173l-82.813 40.16z" fill="#000"/><path d="M217.747 310.004c-2.591-1.297-5.422-.681-7.559 1.415l41.817 15.689-34.258-17.104z" fill="#FFCA28"/><path d="M444.87 45.777c-3.25-3.25-8.188-4.042-12.313-2L313.39 103.362l-58.916-98.2c-2.354-3.939-7-5.866-11.458-4.928a10.658 10.658 0 00-8.292 9.302l-19.729 187.36-92.896-46.449a10.608 10.608 0 00-9.813.135 10.704 10.704 0 00-5.542 8.084L64.078 500.01a10.676 10.676 0 006.73 11.271c1.25.49 2.562.719 3.853.719 3.396 0 6.666-1.615 8.708-4.511l123.25-174.62 77.625 29.116a10.635 10.635 0 0013.292-5.219L446.87 58.09a10.65 10.65 0 00-2-12.313z" fill="url(#paint0_linear)"/></g><defs><linearGradient id="paint0_linear" x1="87.49" y1="198.771" x2="328.808" y2="311.302" gradientUnits="userSpaceOnUse"><stop stop-color="#fff" stop-opacity=".2"/><stop offset="1" stop-color="#fff" stop-opacity="0"/></linearGradient><clipPath id="clip0"><path fill="#fff" d="M0 0h512v512H0z"/></clipPath></defs></svg>