<svg width="512" height="512" viewBox="0 0 512 512" fill="none" xmlns="http://www.w3.org/2000/svg"><g clip-path="url(#clip0)"><path d="M372.499 28.23c-4.104-2.095-9.146-1.345-12.417 1.947a10.68 10.68 0 00-1.958 12.407c17.167 33.51 25.875 69.426 25.875 106.749C383.999 278.729 278.728 384 149.332 384c-37.333 0-73.25-8.708-106.77-25.875a10.604 10.604 0 00-12.397 1.948 10.68 10.68 0 00-1.958 12.406C72.312 458.542 159.603 512 256 512c141.167 0 256-114.844 256-256 0-96.396-53.458-183.677-139.5-227.77z" fill="#303C42"/><path d="M256.001 490.667c-77.439 0-148.48-37.646-192.063-100.073 27.374 9.792 55.978 14.74 85.395 14.74 141.168 0 256-114.844 256-256 0-29.406-4.938-58-14.729-85.385C453.021 107.542 490.667 178.563 490.667 256c0 129.396-105.271 234.667-234.666 234.667z" fill="#FFF4D4"/><path opacity=".1" d="M454.69 131.75c9.509 25.658 14.675 53.182 14.675 81.609 0 129.396-105.271 234.667-234.667 234.667-53.284 0-103.294-18.161-143.66-49.618-9.14-2.155-18.206-4.633-27.1-7.814C107.52 453.021 178.564 490.667 256 490.667c129.395 0 234.666-105.271 234.666-234.667 0-45.029-13.051-87.691-35.977-124.25z" fill="#000"/><path d="M117.333 106.667c41.167 0 74.667 33.5 74.667 74.667a10.66 10.66 0 0010.667 10.667 10.66 10.66 0 0010.667-10.667c0-41.167 33.5-74.667 74.667-74.667A10.66 10.66 0 00298.668 96a10.66 10.66 0 00-10.667-10.667c-41.167 0-74.667-33.5-74.667-74.667A10.661 10.661 0 00202.667 0 10.66 10.66 0 00192 10.667c0 41.167-33.5 74.667-74.667 74.667a10.66 10.66 0 00-10.667 10.667 10.662 10.662 0 0010.667 10.666z" fill="#303C42"/><path d="M202.668 54.625c9.167 17.708 23.667 32.219 41.375 41.375-17.708 9.156-32.208 23.667-41.375 41.375-9.167-17.708-23.667-32.219-41.375-41.375 17.708-9.156 32.208-23.667 41.375-41.375z" fill="#FFCA28"/><path opacity=".2" d="M170.668 101.333c15.215-8.85 27.915-22.181 37.27-38.208-1.831-2.784-3.729-5.525-5.27-8.5-9.167 17.708-23.667 32.219-41.375 41.375 8.426 4.357 16.06 9.999 22.803 16.548-4.234-4.581-8.715-8.474-13.428-11.215z" fill="#fff"/><path d="M194.635 256c-18.688 0-28.719-6.969-36.771-12.573-7.042-4.896-12.604-8.76-24.604-8.76-11.979 0-17.531 3.865-24.563 8.75C100.646 249.021 90.615 256 71.938 256c-18.667 0-28.688-6.979-36.729-12.583-7.021-4.885-12.573-8.75-24.542-8.75A10.66 10.66 0 010 224a10.66 10.66 0 0110.667-10.667c18.667 0 28.688 6.979 36.729 12.583 7.021 4.885 12.573 8.75 24.542 8.75 11.99 0 17.542-3.865 24.573-8.76 8.052-5.604 18.073-12.573 36.75-12.573 18.688 0 28.719 6.969 36.781 12.573 7.031 4.896 12.594 8.76 24.594 8.76 11.99 0 17.552-3.865 24.583-8.76 8.063-5.604 18.094-12.573 36.781-12.573A10.66 10.66 0 01266.667 224 10.66 10.66 0 01256 234.667c-12 0-17.563 3.865-24.594 8.76-8.062 5.604-18.093 12.573-36.771 12.573zm0 192c-18.688 0-28.719-6.969-36.771-12.573-7.042-4.896-12.604-8.76-24.604-8.76-11.979 0-17.531 3.865-24.563 8.75C100.646 441.021 90.615 448 71.938 448c-18.667 0-28.688-6.979-36.729-12.583-7.021-4.885-12.573-8.75-24.542-8.75A10.66 10.66 0 010 416a10.66 10.66 0 0110.667-10.667c18.667 0 28.688 6.979 36.729 12.583 7.021 4.885 12.573 8.75 24.542 8.75 11.99 0 17.542-3.865 24.573-8.76 8.052-5.604 18.073-12.573 36.75-12.573 18.688 0 28.719 6.969 36.781 12.573 7.031 4.896 12.594 8.76 24.594 8.76 11.99 0 17.552-3.865 24.583-8.76 8.063-5.604 18.094-12.573 36.781-12.573A10.66 10.66 0 01266.667 416 10.66 10.66 0 01256 426.667c-12 0-17.563 3.865-24.594 8.76-8.062 5.604-18.093 12.573-36.771 12.573zM71.938 384c-18.667 0-28.688-6.979-36.729-12.583-7.021-4.885-12.573-8.75-24.542-8.75A10.66 10.66 0 010 352a10.66 10.66 0 0110.667-10.667c18.667 0 28.688 6.979 36.729 12.583 7.021 4.885 12.573 8.75 24.542 8.75a10.66 10.66 0 0110.667 10.667A10.662 10.662 0 0171.938 384zm248.063 0c-18.438 0-28.698-6.563-37.75-12.344-7.844-5.021-14.052-8.99-26.25-8.99-12 0-17.563 3.865-24.594 8.76-8.062 5.605-18.093 12.574-36.771 12.574-18.688 0-28.719-6.969-36.781-12.573-7.031-4.896-12.594-8.76-24.594-8.76A10.66 10.66 0 01122.594 352a10.66 10.66 0 0110.667-10.667c18.688 0 28.719 6.969 36.771 12.573 7.042 4.896 12.604 8.76 24.604 8.76 11.99 0 17.552-3.865 24.583-8.76 8.063-5.604 18.094-12.573 36.781-12.573 18.438 0 28.698 6.563 37.75 12.344 7.844 5.021 14.052 8.99 26.25 8.99a10.66 10.66 0 0110.667 10.667A10.66 10.66 0 01320.001 384zM71.938 320c-18.667 0-28.688-6.979-36.729-12.583-7.021-4.885-12.573-8.75-24.542-8.75A10.66 10.66 0 010 288a10.66 10.66 0 0110.667-10.667c18.667 0 28.688 6.979 36.729 12.583 7.021 4.885 12.573 8.75 24.542 8.75 11.99 0 17.542-3.865 24.573-8.76 8.052-5.604 18.073-12.573 36.75-12.573A10.66 10.66 0 01143.928 288a10.66 10.66 0 01-10.667 10.667c-11.979 0-17.531 3.865-24.563 8.75C100.646 313.021 90.615 320 71.938 320zm245.334 0c-18.667 0-28.688-6.979-36.729-12.583-7.021-4.885-12.573-8.75-24.542-8.75-12 0-17.563 3.865-24.594 8.76-8.062 5.604-18.093 12.573-36.771 12.573a10.66 10.66 0 01-10.667-10.667 10.66 10.66 0 0110.667-10.667c11.99 0 17.552-3.865 24.583-8.76 8.063-5.604 18.094-12.573 36.781-12.573 18.667 0 28.688 6.979 36.729 12.583 7.021 4.885 12.573 8.75 24.542 8.75 11.99 0 17.542-3.865 24.573-8.76 8.052-5.604 18.073-12.573 36.75-12.573A10.66 10.66 0 01389.261 288a10.66 10.66 0 01-10.667 10.667c-11.979 0-17.531 3.865-24.563 8.75C345.98 313.021 335.949 320 317.272 320z" fill="#303C42"/><path d="M10.667 298.667c11.969 0 17.521 3.865 24.542 8.75C43.25 313.021 53.271 320 71.938 320c18.677 0 28.708-6.979 36.76-12.583 7.031-4.885 12.583-8.75 24.563-8.75A10.66 10.66 0 00143.928 288a10.66 10.66 0 00-10.667-10.667c-18.677 0-28.698 6.969-36.75 12.573-7.031 4.896-12.583 8.76-24.573 8.76-11.969 0-17.521-3.865-24.542-8.75-8.042-5.604-18.063-12.583-36.729-12.583A10.66 10.66 0 000 288a10.66 10.66 0 0010.667 10.667zm106.666-192c41.167 0 74.667 33.5 74.667 74.667a10.66 10.66 0 0010.667 10.667 10.66 10.66 0 0010.667-10.667c0-41.167 33.5-74.667 74.667-74.667A10.66 10.66 0 00298.668 96a10.66 10.66 0 00-10.667-10.667c-41.167 0-74.667-33.5-74.667-74.667A10.661 10.661 0 00202.667 0 10.66 10.66 0 00192 10.667c0 41.167-33.5 74.667-74.667 74.667a10.66 10.66 0 00-10.667 10.667 10.662 10.662 0 0010.667 10.666zm-106.666 128c11.969 0 17.521 3.865 24.542 8.75C43.25 249.021 53.271 256 71.938 256c18.677 0 28.708-6.979 36.76-12.583 7.031-4.885 12.583-8.75 24.563-8.75 12 0 17.563 3.865 24.604 8.76 8.052 5.604 18.083 12.573 36.771 12.573 18.677 0 28.708-6.969 36.771-12.573 7.031-4.896 12.594-8.76 24.594-8.76A10.66 10.66 0 00266.668 224a10.66 10.66 0 00-10.667-10.667c-18.688 0-28.719 6.969-36.781 12.573-7.031 4.896-12.594 8.76-24.583 8.76-12 0-17.563-3.865-24.594-8.76-8.063-5.604-18.094-12.573-36.781-12.573-18.677 0-28.698 6.969-36.75 12.573-7.031 4.896-12.583 8.76-24.573 8.76-11.969 0-17.521-3.865-24.542-8.75-8.042-5.604-18.063-12.583-36.729-12.583A10.661 10.661 0 000 224a10.66 10.66 0 0010.667 10.667zM372.5 28.229c-4.104-2.094-9.146-1.344-12.417 1.948a10.68 10.68 0 00-1.958 12.406C375.292 76.094 384 112.01 384 149.333c0 55.26-19.316 106.027-51.396 146.167-4.047 1.902-8.668 3.167-15.333 3.167-11.969 0-17.521-3.865-24.542-8.75-8.042-5.604-18.063-12.583-36.729-12.583-18.688 0-28.719 6.969-36.781 12.573-7.031 4.896-12.594 8.76-24.583 8.76a10.66 10.66 0 00-10.667 10.667A10.66 10.66 0 00194.635 320c18.677 0 28.708-6.969 36.771-12.573 7.031-4.896 12.594-8.76 24.594-8.76 11.969 0 17.521 3.865 24.542 8.75 6.966 4.854 15.781 10.465 30.051 11.953-10.043 9.53-20.845 18.245-32.444 25.896-5.956-2.316-13.043-3.932-22.148-3.932-18.688 0-28.719 6.969-36.781 12.573-7.031 4.896-12.594 8.76-24.583 8.76-12 0-17.563-3.865-24.604-8.76-8.052-5.604-18.083-12.573-36.771-12.573a10.66 10.66 0 00-10.667 10.667 10.66 10.66 0 0010.667 10.667c12 0 17.563 3.865 24.594 8.76 5.427 3.772 11.995 8.003 21.245 10.47-9.772 1.245-19.66 2.103-29.766 2.103-22.917 0-45.206-3.68-66.827-10.184.008-.169.098-.311.098-.483a10.66 10.66 0 00-10.667-10.667c-11.969 0-17.521-3.865-24.542-8.75-8.042-5.604-18.063-12.583-36.729-12.583A10.66 10.66 0 000 352a10.66 10.66 0 0010.667 10.667c7.376 0 12.245 1.565 16.592 3.835-.212 2.009-.014 4.089.949 5.978 10.087 19.682 22.526 37.563 36.723 53.585-7.401-1.225-12.072-4.345-17.535-8.147-8.042-5.604-18.063-12.583-36.729-12.583A10.658 10.658 0 000 416a10.66 10.66 0 0010.667 10.667c11.969 0 17.521 3.865 24.542 8.75C43.25 441.021 53.271 448 71.938 448a61.28 61.28 0 0013.327-1.434C131.37 488.049 191.615 512 256 512c141.167 0 256-114.844 256-256 0-96.396-53.458-183.677-139.5-227.771z" fill="url(#paint0_linear)"/></g><defs><linearGradient id="paint0_linear" x1="31.782" y1="153.497" x2="487.221" y2="365.887" gradientUnits="userSpaceOnUse"><stop stop-color="#fff" stop-opacity=".2"/><stop offset="1" stop-color="#fff" stop-opacity="0"/></linearGradient><clipPath id="clip0"><path fill="#fff" d="M0 0h512v512H0z"/></clipPath></defs></svg>