<svg width="513" height="513" viewBox="0 0 513 513" fill="none" xmlns="http://www.w3.org/2000/svg"><g clip-path="url(#clip0)"><path d="M129.891 431.28c-6.979 10.115-23.219 35.094-23.219 48.729 0 17.646 14.354 32 32 32s32-14.354 32-32c0-13.635-16.24-38.615-23.219-48.729-4-5.771-13.562-5.771-17.562 0z" fill="#303C42"/><path d="M138.671 490.675c-5.885 0-10.667-4.781-10.667-10.656.083-3.26 4.521-12.552 10.667-22.906 6.135 10.333 10.573 19.625 10.667 22.896 0 5.885-4.792 10.666-10.667 10.666z" fill="#BBDEFB"/><path d="M512.004 144.009c0-64.042-40.427-120.302-102.979-143.344a10.607 10.607 0 00-11.229 2.47 10.673 10.673 0 00-2.469 11.228c5.479 14.875 10.01 28.48 10.01 44.312 0 51.691-29.538 97.544-75.65 119.714-26.79-43.665-74.723-71.714-127.017-71.714-76.845 0-140.443 58.293-148.191 133.992C22.678 253.084.004 283.865.004 320.008c0 47.052 38.28 85.333 85.333 85.333h131.458c-10.161 19.436-24.792 49.842-24.792 64 0 23.531 19.135 42.667 42.667 42.667s42.667-19.135 42.667-42.667c0-14.158-14.63-44.564-24.792-64h58.671c-6.37 10.888-12.546 23.594-12.546 32 0 17.646 14.354 32 32 32s32-14.354 32-32c0-8.406-6.176-21.112-12.546-32h12.546c58.813 0 106.667-47.854 106.667-106.667 0-14.34-2.934-27.987-8.089-40.49 32.249-29.326 50.756-70.361 50.756-114.175z" fill="#303C42"/><path d="M234.673 490.675c-11.76 0-21.333-9.573-21.333-21.333 0-7.25 9.906-29.979 21.333-52.135 11.427 22.156 21.333 44.885 21.333 52.135 0 11.76-9.573 21.333-21.333 21.333zm95.998-42.666c-5.885 0-10.667-4.781-10.667-10.656.083-3.26 4.521-12.552 10.667-22.906 6.135 10.333 10.573 19.625 10.667 22.896 0 5.884-4.792 10.666-10.667 10.666z" fill="#BBDEFB"/><path d="M245.339 64.009c15.458 0 18.979 2.073 24.458 7.542 5.469 5.479 7.542 9 7.542 24.458a10.66 10.66 0 0010.667 10.667 10.66 10.66 0 0010.667-10.667c0-15.458 2.073-18.98 7.542-24.458 5.479-5.47 9-7.542 24.458-7.542a10.66 10.66 0 0010.667-10.667 10.66 10.66 0 00-10.667-10.667c-15.458 0-18.979-2.073-24.458-7.542-5.469-5.48-7.542-9-7.542-24.458A10.66 10.66 0 00288.006.008a10.66 10.66 0 00-10.667 10.667c0 15.458-2.073 18.979-7.542 24.458-5.479 5.469-9 7.542-24.458 7.542a10.66 10.66 0 00-10.667 10.667 10.66 10.66 0 0010.667 10.667z" fill="#303C42"/><path d="M284.879 50.217a60.618 60.618 0 003.125-3.344c.958 1.115 2 2.219 3.125 3.344a60.618 60.618 0 003.344 3.125c-1.115.958-2.219 2-3.344 3.125a60.618 60.618 0 00-3.125 3.344c-.958-1.115-2-2.219-3.125-3.344a60.618 60.618 0 00-3.344-3.125c1.115-.958 2.219-2 3.344-3.125z" fill="#FFCA28"/><path d="M426.673 58.675c0-10.094-1.458-19.323-3.708-28.146 41.771 23.594 67.708 66.094 67.708 113.479 0 35.964-14.41 69.819-39.785 94.818-19.212-28.224-51.576-46.818-88.215-46.818-4.926 0-9.799.415-14.618 1.077 48.286-27.188 78.618-77.872 78.618-134.41z" fill="#FFF4D4"/><path d="M448.006 298.675c0 47.052-38.271 85.333-85.333 85.333H85.34c-35.292 0-64-28.708-64-64s28.708-64 64-64a10.66 10.66 0 0010.667-10.667 10.66 10.66 0 00-10.667-10.667c-3.02 0-5.88.585-8.82.892 9.806-61.301 62.774-107.559 126.153-107.559 49.551 0 94.474 29.395 115.391 73.837-5.147 2.374-10.152 5.087-14.911 8.288-4.875 3.292-6.188 9.917-2.896 14.813 3.313 4.885 9.938 6.146 14.813 2.896 14.083-9.49 30.563-14.5 47.604-14.5 47.062.001 85.332 38.282 85.332 85.334z" fill="#C1B3FD"/><path opacity=".1" d="M411.058 228.519c2.978 8.673 4.944 17.819 4.944 27.49 0 47.052-38.271 85.333-85.333 85.333H53.336c-11.142 0-21.469-3.116-30.602-8.142 6.102 28.978 31.835 50.809 62.602 50.809H362.67c47.063 0 85.333-38.281 85.333-85.333 0-29.079-14.668-54.743-36.944-70.157zM479.65 92.315c-2.378 47.688-28.754 88.945-67.392 112.026 15.512 8.198 28.803 20.056 38.626 34.486 25.375-24.999 39.785-58.854 39.785-94.818.001-18.233-3.913-35.707-11.019-51.694z" fill="#000"/><path d="M129.89 431.28c-6.979 10.115-23.219 35.094-23.219 48.729 0 17.646 14.354 32 32 32s32-14.354 32-32c0-13.635-16.24-38.615-23.219-48.729-4-5.771-13.562-5.771-17.562 0zm382.114-287.271c0-64.042-40.427-120.302-102.979-143.344a10.607 10.607 0 00-11.229 2.47 10.673 10.673 0 00-2.469 11.228c5.479 14.875 10.01 28.48 10.01 44.312 0 51.691-29.538 97.544-75.65 119.714-26.79-43.665-74.723-71.714-127.017-71.714-76.845 0-140.443 58.293-148.191 133.992C22.678 253.084.004 283.865.004 320.008c0 47.052 38.28 85.333 85.333 85.333h131.458c-10.161 19.436-24.792 49.842-24.792 64 0 23.531 19.135 42.667 42.667 42.667s42.667-19.135 42.667-42.667c0-14.158-14.63-44.564-24.792-64h58.671c-6.37 10.888-12.546 23.594-12.546 32 0 17.646 14.354 32 32 32s32-14.354 32-32c0-8.406-6.176-21.112-12.546-32h12.546c58.813 0 106.667-47.854 106.667-106.667 0-14.34-2.934-27.987-8.089-40.49 32.249-29.326 50.756-70.361 50.756-114.175zm-266.666-80c15.458 0 18.979 2.073 24.458 7.542 5.469 5.48 7.542 9 7.542 24.458a10.66 10.66 0 0010.667 10.667 10.66 10.66 0 0010.667-10.667c0-15.458 2.073-18.979 7.542-24.458 5.479-5.469 9-7.542 24.458-7.542a10.66 10.66 0 0010.667-10.667 10.66 10.66 0 00-10.667-10.667c-15.458 0-18.979-2.073-24.458-7.542-5.469-5.479-7.542-9-7.542-24.458A10.66 10.66 0 00288.005.008a10.66 10.66 0 00-10.667 10.667c0 15.458-2.073 18.98-7.542 24.458-5.479 5.47-9 7.542-24.458 7.542a10.66 10.66 0 00-10.667 10.667 10.66 10.66 0 0010.667 10.667z" fill="url(#paint0_linear)"/></g><defs><linearGradient id="paint0_linear" x1="65.601" y1="160.571" x2="459.179" y2="344.114" gradientUnits="userSpaceOnUse"><stop stop-color="#fff" stop-opacity=".2"/><stop offset="1" stop-color="#fff" stop-opacity="0"/></linearGradient><clipPath id="clip0"><path fill="#fff" d="M0 0h512.009v512.009H0z"/></clipPath></defs></svg>