<svg width="513" height="513" viewBox="0 0 513 513" fill="none" xmlns="http://www.w3.org/2000/svg"><g clip-path="url(#clip0)"><path d="M245.339 64.009c15.458 0 18.979 2.073 24.458 7.552 5.479 5.458 7.542 8.979 7.542 24.448a10.66 10.66 0 0010.667 10.667 10.66 10.66 0 0010.667-10.667c0-15.47 2.063-18.99 7.542-24.448 5.479-5.48 9-7.552 24.458-7.552a10.66 10.66 0 0010.667-10.667 10.66 10.66 0 00-10.667-10.667c-15.458 0-18.979-2.073-24.458-7.552-5.479-5.458-7.542-8.98-7.542-24.448A10.66 10.66 0 00288.006.008a10.66 10.66 0 00-10.667 10.667c0 15.469-2.063 18.99-7.542 24.448-5.479 5.479-9 7.552-24.458 7.552a10.66 10.66 0 00-10.667 10.667 10.66 10.66 0 0010.667 10.667z" fill="#303C42"/><path d="M284.879 50.227a61.077 61.077 0 003.125-3.354c.958 1.115 2 2.229 3.125 3.354a61.104 61.104 0 003.354 3.115c-1.125.958-2.229 2-3.354 3.115a61.077 61.077 0 00-3.125 3.354c-.958-1.115-2-2.229-3.125-3.354a61.104 61.104 0 00-3.354-3.115c1.125-.958 2.229-2 3.354-3.115z" fill="#FFCA28"/><path d="M58.067 427.78c-3.646-1.792-8-1.406-11.208 1.094L13.67 454.239C4.983 460.437.004 469.812.004 480.01c0 17.646 14.354 32 32 32s32-14.354 32-32v-42.667c0-4.063-2.312-7.761-5.937-9.563z" fill="#303C42"/><path d="M42.672 480.009c0 5.885-4.792 10.667-10.667 10.667s-10.667-4.781-10.667-10.667c0-4.417 3-7.188 4.792-8.448.125-.083.25-.167.354-.26l16.187-12.375v21.083z" fill="#BBDEFB"/><path d="M335.401 427.78c-3.667-1.792-8-1.406-11.208 1.094l-33.167 25.375c-8.708 6.177-13.688 15.552-13.688 25.76 0 17.646 14.354 32 32 32s32-14.354 32-32v-42.667a10.684 10.684 0 00-5.937-9.562z" fill="#303C42"/><path d="M320.004 480.009c0 5.885-4.792 10.667-10.667 10.667s-10.667-4.781-10.667-10.667c0-4.417 3-7.177 4.792-8.427.125-.094.229-.177.354-.271l16.188-12.375v21.073z" fill="#BBDEFB"/><path d="M512.005 144.009c0-64.042-40.427-120.302-102.979-143.344a10.611 10.611 0 00-11.229 2.47 10.673 10.673 0 00-2.469 11.228c5.479 14.875 10.01 28.48 10.01 44.312 0 51.69-29.536 97.539-75.645 119.711-26.788-43.668-74.725-71.711-127.022-71.711-76.84 0-140.45 58.299-148.202 133.996C22.673 253.092.004 283.869.004 320.008c0 47.052 38.28 85.333 85.333 85.333H362.67c58.813 0 106.667-47.854 106.667-106.667 0-14.34-2.934-27.987-8.089-40.49 32.25-29.326 50.757-70.361 50.757-114.175z" fill="#303C42"/><path d="M426.671 58.675c0-10.094-1.458-19.323-3.708-28.146 41.771 23.594 67.708 66.094 67.708 113.479 0 35.964-14.41 69.819-39.785 94.818-19.212-28.224-51.576-46.818-88.215-46.818-4.926 0-9.799.415-14.618 1.077 48.286-27.188 78.618-77.872 78.618-134.41z" fill="#FFF4D4"/><path d="M448.004 298.675c0 47.052-38.271 85.333-85.333 85.333H85.338c-35.292 0-64-28.708-64-64s28.708-64 64-64a10.66 10.66 0 0010.667-10.667 10.66 10.66 0 00-10.667-10.667c-3.02 0-5.88.585-8.82.892 9.806-61.301 62.774-107.559 126.153-107.559 49.551 0 94.474 29.395 115.391 73.837-5.147 2.374-10.152 5.087-14.911 8.288-4.875 3.292-6.188 9.917-2.896 14.813 3.313 4.885 9.938 6.146 14.813 2.896 14.083-9.49 30.563-14.5 47.604-14.5 47.062.001 85.332 38.282 85.332 85.334z" fill="#C1B3FD"/><path d="M117.338 469.342c-17.646 0-32-14.354-32-32 0-10.198 4.979-19.573 13.667-25.771l33.187-25.365c3.208-2.479 7.563-2.896 11.208-1.094a10.687 10.687 0 015.938 9.563v42.667c0 17.646-14.354 32-32 32z" fill="#303C42"/><path d="M128.005 416.259l-16.187 12.375c-.104.094-.229.177-.354.26-1.792 1.26-4.792 4.031-4.792 8.448 0 5.885 4.792 10.667 10.667 10.667s10.667-4.781 10.667-10.667v-21.083h-.001z" fill="#BBDEFB"/><path opacity=".1" d="M411.06 228.519c2.978 8.673 4.944 17.819 4.944 27.49 0 47.052-38.271 85.333-85.333 85.333H53.338c-11.142 0-21.469-3.116-30.602-8.142 6.102 28.978 31.835 50.809 62.602 50.809h277.333c47.063 0 85.333-38.281 85.333-85.333 0-29.079-14.668-54.743-36.944-70.157zm68.59-136.204c-2.378 47.688-28.754 88.945-67.392 112.026 15.512 8.198 28.803 20.056 38.626 34.486 25.375-24.999 39.785-58.854 39.785-94.818.001-18.233-3.913-35.707-11.019-51.694z" fill="#000"/><path d="M170.671 512.009c-1.375 0-2.75-.26-4.083-.813a10.658 10.658 0 01-6.375-11.948l32-160a10.664 10.664 0 015.771-7.49 10.7 10.7 0 019.458.042l28.979 14.49 8.979-80.792a10.704 10.704 0 014.854-7.813c2.688-1.708 6.042-2.177 9.125-1.125l64 21.333c5.5 1.823 8.521 7.708 6.813 13.25L287.525 429.81c-.917 3-3.104 5.438-6 6.667-2.875 1.26-6.167 1.125-8.958-.26l-34.25-17.125-58.771 88.167a10.656 10.656 0 01-8.875 4.75z" fill="#303C42"/><path d="M210.401 357.123l-18.688 93.438 34.094-51.135c2.99-4.469 8.833-6.042 13.646-3.625l31.406 15.708 35.896-116.677-41.594-13.865-9.208 82.885a10.683 10.683 0 01-5.51 8.198 10.715 10.715 0 01-9.865.167l-30.177-15.094z" fill="#FFCA28"/><path d="M58.068 427.78c-3.646-1.792-8-1.406-11.208 1.094l-33.188 25.365C4.984 460.437.005 469.812.005 480.01c0 17.646 14.354 32 32 32s32-14.354 32-32v-42.667c0-4.063-2.312-7.761-5.937-9.563zM245.339 64.01c15.458 0 18.979 2.072 24.458 7.551 5.479 5.458 7.542 8.98 7.542 24.448a10.66 10.66 0 0010.667 10.667 10.66 10.66 0 0010.667-10.667c0-15.469 2.063-18.99 7.542-24.448 5.479-5.479 9-7.552 24.458-7.552a10.66 10.66 0 0010.667-10.667 10.66 10.66 0 00-10.667-10.667c-15.458 0-18.979-2.073-24.458-7.552-5.479-5.458-7.542-8.979-7.542-24.448A10.66 10.66 0 00288.006.008a10.66 10.66 0 00-10.667 10.667c0 15.47-2.063 18.99-7.542 24.448-5.479 5.48-9 7.552-24.458 7.552a10.66 10.66 0 00-10.667 10.667 10.66 10.66 0 0010.667 10.667zm90.062 363.77c-3.667-1.792-8-1.406-11.208 1.094l-33.167 25.375c-8.708 6.177-13.688 15.552-13.688 25.76 0 17.646 14.354 32 32 32s32-14.354 32-32v-42.667a10.684 10.684 0 00-5.937-9.562zm176.604-283.771c0-64.042-40.427-120.302-102.979-143.344a10.611 10.611 0 00-11.229 2.47 10.673 10.673 0 00-2.469 11.228c5.479 14.875 10.01 28.48 10.01 44.312 0 51.69-29.536 97.539-75.645 119.711-26.788-43.668-74.725-71.711-127.022-71.711-76.84 0-140.45 58.299-148.202 133.996C22.673 253.092.004 283.869.004 320.008c0 47.052 38.28 85.333 85.333 85.333h21.816l-8.15 6.229c-8.688 6.198-13.667 15.573-13.667 25.771 0 17.646 14.354 32 32 32s32-14.354 32-32v-32h29.656l-18.781 93.906c-1 5 1.667 10 6.375 11.948 1.333.552 2.708.813 4.083.813 3.479 0 6.854-1.708 8.875-4.75l58.771-88.167 34.25 17.125c2.792 1.385 6.083 1.521 8.958.26a10.596 10.596 0 006-6.667l7.529-24.469h67.617c58.813 0 106.667-47.854 106.667-106.667 0-14.34-2.934-27.987-8.089-40.49 32.251-29.325 50.758-70.36 50.758-114.174z" fill="url(#paint0_linear)"/></g><defs><linearGradient id="paint0_linear" x1="56.092" y1="180.989" x2="449.642" y2="364.562" gradientUnits="userSpaceOnUse"><stop stop-color="#fff" stop-opacity=".2"/><stop offset="1" stop-color="#fff" stop-opacity="0"/></linearGradient><clipPath id="clip0"><path fill="#fff" d="M0 0h512.009v512.009H0z"/></clipPath></defs></svg>