<svg width="513" height="512" viewBox="0 0 513 512" fill="none" xmlns="http://www.w3.org/2000/svg"><g clip-path="url(#clip0)"><path d="M509.211 248.458l-60.875-60.875V74.667A10.66 10.66 0 00437.669 64H324.753L263.878 3.125c-4.167-4.167-10.917-4.167-15.083 0L187.919 64H75.003a10.66 10.66 0 00-10.667 10.667v112.917L3.461 248.458c-4.167 4.167-4.167 10.917 0 15.083l60.875 60.876v112.917A10.66 10.66 0 0075.003 448H187.92l60.875 60.875a10.634 10.634 0 007.542 3.125c2.729 0 5.458-1.042 7.542-3.125L324.753 448H437.67a10.66 10.66 0 0010.667-10.667V324.417l60.875-60.875c4.166-4.167 4.166-10.917-.001-15.084z" fill="#303C42"/><path d="M430.128 312.458c-2 2-3.125 4.708-3.125 7.542v106.667H320.336a10.66 10.66 0 00-7.542 3.125l-56.458 56.458-56.458-56.458c-2-2-4.708-3.125-7.542-3.125H85.669V320a10.66 10.66 0 00-3.125-7.542L26.086 256l56.458-56.458c2-2 3.125-4.708 3.125-7.542V85.333h106.667a10.66 10.66 0 007.542-3.125l56.458-56.458 56.458 56.458c2 2 4.708 3.125 7.542 3.125h106.667V192a10.66 10.66 0 003.125 7.542L486.586 256l-56.458 56.458z" fill="#FFCA28"/><path d="M430.128 312.458c-2 2-3.125 4.708-3.125 7.542v106.667H320.336a10.66 10.66 0 00-7.542 3.125l-56.458 56.458-56.458-56.458c-2-2-4.708-3.125-7.542-3.125H85.669V320a10.66 10.66 0 00-3.125-7.542L26.086 256l56.458-56.458c2-2 3.125-4.708 3.125-7.542V85.333h106.667a10.66 10.66 0 007.542-3.125l56.458-56.458 56.458 56.458c2 2 4.708 3.125 7.542 3.125h106.667V192a10.66 10.66 0 003.125 7.542L486.586 256l-56.458 56.458z" fill="#FFCA28"/><path d="M256.55 427.093c94.08 0 170.347-76.506 170.347-170.88S350.63 85.333 256.55 85.333c-94.08 0-170.347 76.506-170.347 170.88s76.267 170.88 170.347 170.88z" fill="#303C42"/><path d="M256.336 405.973c82.828 0 149.973-67.145 149.973-149.973 0-82.828-67.145-149.973-149.973-149.973-82.828 0-149.973 67.145-149.973 149.973 0 82.828 67.145 149.973 149.973 149.973z" fill="#FFCA28"/><path d="M509.211 248.458l-60.875-60.875V74.667A10.66 10.66 0 00437.669 64H324.753L263.878 3.125c-4.167-4.167-10.917-4.167-15.083 0L187.919 64H75.003a10.66 10.66 0 00-10.667 10.667v112.917L3.461 248.458c-4.167 4.167-4.167 10.917 0 15.083l60.875 60.876v112.917A10.66 10.66 0 0075.003 448H187.92l60.875 60.875a10.634 10.634 0 007.542 3.125c2.729 0 5.458-1.042 7.542-3.125L324.753 448H437.67a10.66 10.66 0 0010.667-10.667V324.417l60.875-60.875c4.166-4.167 4.166-10.917-.001-15.084z" fill="url(#paint0_linear)"/></g><defs><linearGradient id="paint0_linear" x1="28.27" y1="149.625" x2="484.404" y2="362.418" gradientUnits="userSpaceOnUse"><stop stop-color="#fff" stop-opacity=".2"/><stop offset="1" stop-color="#fff" stop-opacity="0"/></linearGradient><clipPath id="clip0"><path fill="#fff" d="M0 0h513v512H0z"/></clipPath></defs></svg>