<svg width="512" height="512" viewBox="0 0 512 512" fill="none" xmlns="http://www.w3.org/2000/svg"><path opacity=".1" d="M411.055 292.51c2.978 8.674 4.944 17.819 4.944 27.49 0 47.052-38.271 85.333-85.333 85.333H53.332c-11.142 0-21.469-3.116-30.602-8.142C28.832 426.169 54.566 448 85.332 448h277.333c47.063 0 85.334-38.281 85.334-85.333 0-29.078-14.668-54.743-36.944-70.157z" fill="#000"/><path d="M501.333 192h-32.54c-2.208-24.352-11.85-46.577-26.686-64.362l23.039-23.023c4.167-4.156 4.167-10.917 0-15.083-4.167-4.167-10.917-4.167-15.083 0l-23.04 23.025c-17.786-14.833-40.008-24.474-64.355-26.682v-32.54a10.66 10.66 0 00-10.667-10.667 10.66 10.66 0 00-10.667 10.667V86.33c-24.061 2.25-46.238 11.62-64.027 26.556l-23.368-23.353c-4.167-4.167-10.917-4.167-15.083 0-4.167 4.167-4.167 10.927 0 15.083l23.388 23.371c-11.229 13.559-19.168 29.799-23.424 47.616-11.708-2.973-23.751-4.935-36.151-4.935-76.865 0-140.452 58.292-148.182 133.988C22.674 317.068 0 347.852 0 384c0 47.052 38.271 85.333 85.333 85.333h277.333c58.813 0 106.667-47.854 106.667-106.667 0-30.788-13.311-58.349-34.246-77.837 19.349-19.418 31.145-44.581 33.642-71.496h32.604A10.66 10.66 0 00512 202.666 10.66 10.66 0 00501.333 192z" fill="#303C42"/><path d="M447.999 362.667c0 47.052-38.271 85.333-85.333 85.333H85.332c-35.292 0-64-28.708-64-64s28.708-64 64-64a10.66 10.66 0 0010.667-10.667 10.66 10.66 0 00-10.667-10.667c-3.02 0-5.879.585-8.819.892C86.318 238.258 139.287 192 202.666 192c49.551 0 94.474 29.395 115.391 73.837-5.147 2.374-10.152 5.087-14.911 8.288-4.875 3.292-6.188 9.917-2.896 14.813 3.313 4.885 9.938 6.146 14.813 2.896 14.083-9.49 30.563-14.5 47.604-14.5 47.061-.001 85.332 38.281 85.332 85.333z" fill="#D8CFFF"/><path opacity=".1" d="M411.055 292.51c2.978 8.674 4.944 17.819 4.944 27.49 0 47.052-38.271 85.333-85.333 85.333H53.332c-11.142 0-21.469-3.116-30.602-8.142C28.832 426.169 54.566 448 85.332 448h277.333c47.063 0 85.334-38.281 85.334-85.333 0-29.078-14.668-54.743-36.944-70.157z" fill="#000"/><path d="M417.751 271.789C401.619 261.973 382.891 256 362.669 256c-8.275 0-16.366 1.224-24.289 3.074-15.863-35.224-44.531-62.358-79.29-76.742 9.505-43.57 47.909-75.665 92.913-75.665 52.938 0 96 43.063 96 96-.001 26.174-10.996 50.922-30.252 69.122z" fill="#FFCA28"/><path d="M501.333 192h-32.54c-2.208-24.352-11.85-46.577-26.686-64.362l23.039-23.023c4.167-4.156 4.167-10.917 0-15.083-4.167-4.167-10.917-4.167-15.083 0l-23.04 23.025c-17.786-14.833-40.008-24.474-64.355-26.682v-32.54a10.66 10.66 0 00-10.667-10.667 10.66 10.66 0 00-10.667 10.667V86.33c-24.061 2.25-46.238 11.62-64.027 26.556l-23.368-23.353c-4.167-4.167-10.917-4.167-15.083 0-4.167 4.167-4.167 10.927 0 15.083l23.388 23.371c-11.229 13.559-19.168 29.799-23.424 47.616-11.708-2.973-23.751-4.935-36.151-4.935-76.865 0-140.452 58.292-148.182 133.988C22.674 317.068 0 347.852 0 384c0 47.052 38.271 85.333 85.333 85.333h277.333c58.813 0 106.667-47.854 106.667-106.667 0-30.788-13.311-58.349-34.246-77.837 19.349-19.418 31.145-44.581 33.642-71.496h32.604A10.66 10.66 0 00512 202.666 10.66 10.66 0 00501.333 192z" fill="url(#paint0_linear)"/><defs><linearGradient id="paint0_linear" x1="80.469" y1="192.672" x2="474.045" y2="376.223" gradientUnits="userSpaceOnUse"><stop stop-color="#fff" stop-opacity=".2"/><stop offset="1" stop-color="#fff" stop-opacity="0"/></linearGradient></defs></svg>