<svg width="512" height="512" viewBox="0 0 512 512" fill="none" xmlns="http://www.w3.org/2000/svg"><path d="M405.333 149.333c-8.276 0-16.366 1.224-24.288 3.073C357.135 99.289 304.005 64 245.333 64c-77.227 0-141.06 58.392-148.299 134.026-30.126 11.809-51.673 40.199-53.823 73.93C17.223 289.152 0 318.57 0 352c0 52.938 43.063 96 96 96h234.667c41.167 0 74.667-33.5 74.667-74.667 0-3.652-.569-7.152-1.078-10.667h1.078C464.146 362.667 512 314.813 512 256c0-58.813-47.854-106.667-106.667-106.667z" fill="#303C42"/><path d="M405.331 341.333h-7.49c-7.553-15.779-20.363-28.49-36.288-35.781C354.308 241.352 299.959 192 234.665 192c-47.432 0-90.46 26.492-112.599 67.947-8.466-2.4-17.188-3.947-26.068-3.947-10.422 0-20.275 2.09-29.678 5.174 7.211-27.444 32.001-47.841 61.678-47.841a10.66 10.66 0 0010.667-10.667A10.66 10.66 0 00127.998 192c-3.083 0-6.005.59-9.005.91 9.375-61.255 62.594-107.577 126.339-107.577 49.551 0 94.48 29.395 115.409 73.835-5.151 2.376-10.16 5.092-14.919 8.301-4.885 3.292-6.177 9.917-2.885 14.802 3.292 4.896 9.938 6.177 14.802 2.885 14.073-9.479 30.531-14.49 47.594-14.49 47.052 0 85.333 38.281 85.333 85.333s-38.283 85.334-85.335 85.334z" fill="#D8CFFF"/><path d="M330.666 426.667H95.999c-41.167 0-74.667-33.5-74.667-74.667s33.5-74.667 74.667-74.667c17.156 0 33.281 5.656 46.646 16.354 4.635 3.719 11.333 2.948 14.99-1.656 3.688-4.594 2.948-11.313-1.656-14.99-4.385-3.514-9.083-6.578-13.987-9.25 18.788-33.302 53.979-54.458 92.674-54.458 51.454 0 94.456 36.908 104.116 86.154-2.702-.297-5.337-.82-8.116-.82a10.66 10.66 0 00-10.667 10.667A10.66 10.66 0 00330.666 320c29.406 0 53.333 23.927 53.333 53.333s-23.927 53.334-53.333 53.334z" fill="#D8CFFF"/><path opacity=".1" d="M361.349 329.85c.819 3.708 1.319 7.533 1.319 11.483 0 29.406-23.927 53.333-53.333 53.333H74.668c-18.865 0-35.92-7.264-49.078-18.848 10.006 29.454 37.62 50.849 70.41 50.849h234.668c29.406 0 53.333-23.927 53.333-53.333 0-17.968-8.995-33.814-22.652-43.484zm58.999-157.665c16.889 15.601 27.651 37.732 27.651 62.482 0 41.013-29.103 75.323-67.729 83.464 7.229 6.529 13.309 14.297 17.573 23.203h7.49c47.052 0 85.333-38.281 85.333-85.333 0-41.911-30.427-76.678-70.318-83.816z" fill="#000"/><path d="M405.333 149.333c-8.276 0-16.366 1.224-24.288 3.073C357.135 99.289 304.005 64 245.333 64c-77.227 0-141.06 58.392-148.299 134.026-30.126 11.809-51.673 40.199-53.823 73.93C17.223 289.152 0 318.57 0 352c0 52.938 43.063 96 96 96h234.667c41.167 0 74.667-33.5 74.667-74.667 0-3.652-.569-7.152-1.078-10.667h1.078C464.146 362.667 512 314.813 512 256c0-58.813-47.854-106.667-106.667-106.667z" fill="url(#paint0_linear)"/><defs><linearGradient id="paint0_linear" x1="60.134" y1="201.869" x2="461.085" y2="388.84" gradientUnits="userSpaceOnUse"><stop stop-color="#fff" stop-opacity=".2"/><stop offset="1" stop-color="#fff" stop-opacity="0"/></linearGradient></defs></svg>