<svg width="513" height="513" viewBox="0 0 513 513" fill="none" xmlns="http://www.w3.org/2000/svg"><g clip-path="url(#clip0)"><path d="M320.004 512.005c-105.865 0-192-86.135-192-192 0-148.365 177.302-310.417 184.844-317.24a10.641 10.641 0 0114.313 0c7.542 6.823 184.844 168.875 184.844 317.24-.001 105.865-86.137 192-192.001 192z" fill="#303C42"/><path d="M320.003 25.339c-33.219 32.02-170.667 171.958-170.667 294.667 0 94.104 76.563 170.667 170.667 170.667S490.67 414.11 490.67 320.006c-.001-122.803-137.428-262.657-170.667-294.667z" fill="#BBDEFB"/><path opacity=".1" d="M320.003 25.339l-.15.147c43.283 57.268 85.483 130.477 85.483 198.52 0 94.104-76.563 170.667-170.667 170.667-27.078 0-52.609-6.508-75.376-17.78 23.504 66.177 86.574 113.78 160.71 113.78 94.104 0 170.667-76.563 170.667-170.667-.001-122.803-137.428-262.657-170.667-294.667z" fill="#000"/><path d="M194.64 256.005c-18.688 0-28.719-6.969-36.771-12.573-7.042-4.896-12.604-8.76-24.604-8.76-11.979 0-17.531 3.865-24.563 8.75-8.052 5.604-18.083 12.583-36.76 12.583-18.667 0-28.688-6.979-36.73-12.583-7.02-4.885-12.572-8.75-24.541-8.75A10.66 10.66 0 01.004 224.005a10.66 10.66 0 0110.667-10.667c18.667 0 28.688 6.979 36.729 12.583 7.02 4.885 12.573 8.75 24.542 8.75 11.99 0 17.542-3.865 24.573-8.76 8.052-5.604 18.073-12.573 36.75-12.573 18.688 0 28.719 6.969 36.781 12.573 7.031 4.896 12.594 8.76 24.594 8.76 11.99 0 17.552-3.865 24.583-8.76 8.063-5.604 18.094-12.573 36.781-12.573a10.66 10.66 0 0110.667 10.667 10.66 10.66 0 01-10.667 10.667c-12 0-17.563 3.865-24.594 8.76-8.062 5.604-18.093 12.573-36.77 12.573zm0 192c-18.688 0-28.719-6.969-36.771-12.573-7.042-4.896-12.604-8.76-24.604-8.76-11.979 0-17.531 3.865-24.563 8.75-8.052 5.604-18.083 12.583-36.76 12.583-18.667 0-28.688-6.979-36.73-12.583-7.02-4.885-12.572-8.75-24.541-8.75A10.66 10.66 0 01.004 416.005a10.66 10.66 0 0110.667-10.667c18.667 0 28.688 6.979 36.729 12.583 7.02 4.885 12.573 8.75 24.542 8.75 11.99 0 17.542-3.865 24.573-8.76 8.052-5.604 18.073-12.573 36.75-12.573 18.688 0 28.719 6.969 36.781 12.573 7.031 4.896 12.594 8.76 24.594 8.76 11.99 0 17.552-3.865 24.583-8.76 8.063-5.604 18.094-12.573 36.781-12.573a10.66 10.66 0 0110.667 10.667 10.66 10.66 0 01-10.667 10.667c-12 0-17.563 3.865-24.594 8.76-8.062 5.604-18.093 12.573-36.77 12.573zm-122.698-64c-18.667 0-28.688-6.979-36.73-12.583-7.02-4.885-12.572-8.75-24.541-8.75A10.66 10.66 0 01.004 352.005a10.66 10.66 0 0110.667-10.667c18.667 0 28.688 6.979 36.729 12.583 7.02 4.885 12.573 8.75 24.542 8.75a10.66 10.66 0 0110.667 10.667 10.66 10.66 0 01-10.667 10.667zm248.063 0c-18.438 0-28.698-6.563-37.75-12.344-7.844-5.021-14.052-8.99-26.25-8.99-12 0-17.563 3.865-24.594 8.76-8.063 5.604-18.094 12.573-36.771 12.573-18.688 0-28.719-6.969-36.781-12.573-7.031-4.896-12.594-8.76-24.594-8.76a10.66 10.66 0 01-10.667-10.667 10.66 10.66 0 0110.667-10.667c18.688 0 28.719 6.969 36.771 12.573 7.042 4.896 12.604 8.76 24.604 8.76 11.99 0 17.552-3.865 24.583-8.76 8.063-5.604 18.094-12.573 36.781-12.573 18.438 0 28.698 6.563 37.75 12.344 7.844 5.021 14.052 8.99 26.25 8.99a10.66 10.66 0 0110.667 10.667 10.66 10.66 0 01-10.666 10.667zm-248.063-64c-18.667 0-28.688-6.979-36.73-12.583-7.02-4.885-12.572-8.75-24.541-8.75A10.66 10.66 0 01.004 288.005a10.66 10.66 0 0110.667-10.667c18.667 0 28.688 6.979 36.729 12.583 7.02 4.885 12.573 8.75 24.542 8.75 11.99 0 17.542-3.865 24.573-8.76 8.052-5.604 18.073-12.573 36.75-12.573a10.66 10.66 0 0110.667 10.667 10.66 10.66 0 01-10.667 10.667c-11.979 0-17.531 3.865-24.563 8.75-8.052 5.604-18.083 12.583-36.76 12.583zm245.334 0c-18.667 0-28.688-6.979-36.729-12.583-7.021-4.885-12.573-8.75-24.542-8.75-12 0-17.563 3.865-24.594 8.76-8.063 5.604-18.094 12.573-36.771 12.573a10.66 10.66 0 01-10.667-10.667 10.66 10.66 0 0110.667-10.667c11.99 0 17.552-3.865 24.583-8.76 8.063-5.604 18.094-12.573 36.781-12.573 18.667 0 28.688 6.979 36.729 12.583 7.021 4.885 12.573 8.75 24.542 8.75 11.99 0 17.542-3.865 24.573-8.76 8.052-5.604 18.073-12.573 36.75-12.573a10.66 10.66 0 0110.667 10.667 10.66 10.66 0 01-10.667 10.667c-11.979 0-17.531 3.865-24.563 8.75-8.05 5.604-18.081 12.583-36.759 12.583z" fill="#303C42"/><path d="M10.669 362.672c11.969 0 17.521 3.865 24.542 8.75 8.042 5.604 18.063 12.583 36.729 12.583a10.66 10.66 0 0010.667-10.667 10.66 10.66 0 00-10.667-10.667c-11.969 0-17.521-3.865-24.542-8.75-8.042-5.604-18.062-12.583-36.729-12.583A10.66 10.66 0 00.002 352.005a10.66 10.66 0 0010.667 10.667zM327.159 2.766a10.641 10.641 0 00-14.313 0c-5.79 5.238-111.408 102.034-160.263 213.827-5.31-1.861-11.422-3.254-19.32-3.254-18.677 0-28.698 6.969-36.75 12.573-7.031 4.896-12.583 8.76-24.573 8.76-11.969 0-17.521-3.865-24.542-8.75-8.042-5.604-18.062-12.583-36.729-12.583A10.66 10.66 0 00.002 224.006a10.66 10.66 0 0010.667 10.667c11.969 0 17.521 3.865 24.542 8.75 8.042 5.604 18.063 12.583 36.729 12.583 18.677 0 28.708-6.979 36.76-12.583 7.031-4.885 12.583-8.75 24.563-8.75 4.54 0 7.996.684 11.122 1.637-4.991 13.577-8.611 27.311-11.43 41.059-18.456.086-28.44 6.974-36.443 12.544-7.031 4.896-12.583 8.76-24.573 8.76-11.969 0-17.521-3.865-24.542-8.75-8.042-5.604-18.062-12.583-36.729-12.583A10.66 10.66 0 00.001 288.007a10.66 10.66 0 0010.667 10.667c11.969 0 17.521 3.865 24.542 8.75 8.042 5.604 18.063 12.583 36.729 12.583 18.677 0 28.708-6.979 36.76-12.583 6.194-4.305 11.496-7.652 20.801-8.427-.747 7.017-1.499 14.036-1.499 21.01 0 7.49.539 14.846 1.378 22.116-3.962 1.556-6.784 5.366-6.784 9.884 0 5.777 4.6 10.411 10.333 10.599a190.498 190.498 0 0016.431 45.007c-4.625-1.292-9.723-2.272-16.098-2.272-18.677 0-28.698 6.969-36.75 12.573-7.031 4.896-12.583 8.76-24.573 8.76-11.969 0-17.521-3.865-24.542-8.75-8.042-5.604-18.062-12.583-36.729-12.583A10.66 10.66 0 000 416.008a10.66 10.66 0 0010.667 10.667c11.969 0 17.521 3.865 24.542 8.75 8.042 5.604 18.063 12.583 36.729 12.583 18.677 0 28.708-6.979 36.76-12.583 7.031-4.885 12.583-8.75 24.563-8.75 12 0 17.563 3.865 24.604 8.76 4.375 3.044 9.493 6.395 16.107 8.909 35.245 41.331 87.585 67.664 146.029 67.664 105.865 0 192-86.135 192-192 .002-148.367-177.3-310.419-184.842-317.242z" fill="url(#paint0_linear)"/></g><defs><linearGradient id="paint0_linear" x1="32.709" y1="151.514" x2="507.236" y2="372.79" gradientUnits="userSpaceOnUse"><stop stop-color="#fff" stop-opacity=".2"/><stop offset="1" stop-color="#fff" stop-opacity="0"/></linearGradient><clipPath id="clip0"><path fill="#fff" d="M0 0h513v513H0z"/></clipPath></defs></svg>