<svg width="513" height="512" viewBox="0 0 513 512" fill="none" xmlns="http://www.w3.org/2000/svg"><path d="M501.349 149.333h-32.54c-2.208-24.352-11.85-46.577-26.686-64.362l23.039-23.023c4.167-4.156 4.167-10.917 0-15.083s-10.917-4.167-15.083 0l-23.04 23.025c-17.786-14.833-40.008-24.474-64.355-26.682v-32.54A10.663 10.663 0 00352.016 0a10.66 10.66 0 00-10.667 10.667V43.52c-23.988 2.217-46.103 11.703-63.992 26.733l-23.404-23.388c-4.167-4.167-10.917-4.167-15.083 0s-4.167 10.927 0 15.083l23.457 23.441c-6.85 8.303-12.546 17.594-16.995 27.753-13.655-4.128-27.966-6.475-42.65-6.475-76.865 0-140.452 58.292-148.182 133.988C22.69 253.068.016 283.852.016 320c0 47.052 38.27 85.333 85.333 85.333h43.15l-8.15 6.229c-8.688 6.198-13.667 15.573-13.667 25.771 0 17.646 14.354 32 32 32s32-14.354 32-32v-32h128.509l-8.155 6.24c-8.708 6.177-13.688 15.552-13.688 25.76 0 17.646 14.354 32 32 32s32-14.354 32-32v-32h21.333c58.813 0 106.667-47.854 106.667-106.667 0-25.836-9.604-49.24-24.947-67.717 13.659-17.685 21.885-38.434 23.945-60.283h33.001a10.66 10.66 0 0010.667-10.667 10.658 10.658 0 00-10.665-10.666z" fill="#303C42"/><path d="M149.349 437.333c0 5.885-4.792 10.667-10.667 10.667s-10.666-4.781-10.666-10.667c0-4.417 3-7.188 4.792-8.448.125-.083.25-.167.354-.26l16.188-12.375v21.083h-.001zm170.665 0c0 5.885-4.792 10.667-10.667 10.667s-10.667-4.781-10.667-10.667c0-4.417 3-7.177 4.792-8.427.125-.094.229-.177.354-.271l16.188-12.375v21.073z" fill="#BBDEFB"/><path d="M79.41 427.771c-3.645-1.813-8-1.396-11.207 1.094l-33.188 25.364c-8.688 6.198-13.667 15.573-13.667 25.771 0 17.646 14.354 32 32 32s32-14.354 32-32v-42.667c0-4.062-2.312-7.76-5.937-9.562z" fill="#303C42"/><path d="M64.017 480c0 5.885-4.792 10.667-10.667 10.667S42.684 485.885 42.684 480c0-4.417 3-7.188 4.792-8.448.125-.083.25-.167.354-.26l16.187-12.375V480z" fill="#BBDEFB"/><path d="M250.079 427.771c-3.667-1.813-8-1.396-11.208 1.094l-33.188 25.365c-8.688 6.197-13.667 15.572-13.667 25.77 0 17.646 14.354 32 32 32s32-14.354 32-32v-42.667c0-4.062-2.312-7.76-5.937-9.562z" fill="#303C42"/><path d="M234.682 480c0 5.885-4.792 10.667-10.667 10.667s-10.667-4.781-10.667-10.667c0-4.417 3-7.188 4.792-8.448.125-.083.25-.167.354-.26l16.188-12.375V480z" fill="#BBDEFB"/><path d="M429.131 215.9c-18.289-14.716-41.204-23.9-66.449-23.9-8.275 0-16.366 1.224-24.289 3.074-14.939-33.172-41.133-59.332-73.198-74.279C280.591 86.543 314.2 64 352.015 64c52.938 0 96 43.063 96 96 0 20.092-6.859 39.474-18.884 55.9z" fill="#FFCA28"/><path d="M448.015 298.667c0 47.052-38.271 85.333-85.333 85.333H85.348c-35.292 0-64-28.708-64-64s28.708-64 64-64a10.66 10.66 0 0010.667-10.667 10.66 10.66 0 00-10.667-10.667c-3.02 0-5.88.585-8.82.892C86.335 174.258 139.304 128 202.683 128c49.551 0 94.474 29.395 115.391 73.837-5.147 2.374-10.152 5.087-14.911 8.288-4.875 3.292-6.188 9.917-2.896 14.813 3.313 4.885 9.938 6.146 14.813 2.896 14.083-9.49 30.563-14.5 47.604-14.5 47.061-.001 85.332 38.281 85.332 85.333z" fill="#D8CFFF"/><path opacity=".1" d="M411.071 228.51c2.978 8.674 4.944 17.819 4.944 27.49 0 47.052-38.271 85.333-85.333 85.333H53.348c-11.142 0-21.469-3.116-30.602-8.142C28.848 362.169 54.581 384 85.348 384h277.333c47.063 0 85.334-38.281 85.334-85.333 0-29.078-14.668-54.743-36.944-70.157z" fill="#000"/><path d="M501.349 149.333h-32.54c-2.208-24.352-11.85-46.577-26.686-64.362l23.039-23.023c4.167-4.156 4.167-10.917 0-15.083s-10.917-4.167-15.083 0l-23.04 23.025c-17.786-14.833-40.008-24.474-64.355-26.682v-32.54A10.663 10.663 0 00352.016 0a10.66 10.66 0 00-10.667 10.667V43.52c-23.988 2.217-46.103 11.703-63.992 26.733l-23.404-23.388c-4.167-4.167-10.917-4.167-15.083 0s-4.167 10.927 0 15.083l23.457 23.441c-6.85 8.303-12.546 17.594-16.995 27.753-13.655-4.128-27.966-6.475-42.65-6.475-76.865 0-140.452 58.292-148.182 133.988C22.69 253.068.016 283.852.016 320c0 47.052 38.27 85.333 85.333 85.333h43.15l-8.15 6.229c-8.688 6.198-13.667 15.573-13.667 25.771 0 17.646 14.354 32 32 32s32-14.354 32-32v-32h128.509l-8.155 6.24c-8.708 6.177-13.688 15.552-13.688 25.76 0 17.646 14.354 32 32 32s32-14.354 32-32v-32h21.333c58.813 0 106.667-47.854 106.667-106.667 0-25.836-9.604-49.24-24.947-67.717 13.659-17.685 21.885-38.434 23.945-60.283h33.001a10.66 10.66 0 0010.667-10.667 10.658 10.658 0 00-10.665-10.666zM79.412 427.771c-3.646-1.813-8-1.396-11.208 1.094l-33.188 25.364c-8.688 6.198-13.667 15.573-13.667 25.771 0 17.646 14.354 32 32 32s32-14.354 32-32v-42.667c0-4.062-2.312-7.76-5.937-9.562zm170.667 0c-3.667-1.813-8-1.396-11.208 1.094l-33.188 25.365c-8.688 6.197-13.667 15.572-13.667 25.77 0 17.646 14.354 32 32 32s32-14.354 32-32v-42.667c0-4.062-2.312-7.76-5.937-9.562z" fill="url(#paint0_linear)"/><defs><linearGradient id="paint0_linear" x1="54.16" y1="185.111" x2="447.748" y2="368.646" gradientUnits="userSpaceOnUse"><stop stop-color="#fff" stop-opacity=".2"/><stop offset="1" stop-color="#fff" stop-opacity="0"/></linearGradient></defs></svg>