<svg width="512" height="512" viewBox="0 0 512 512" fill="none" xmlns="http://www.w3.org/2000/svg"><path d="M501.333 149.333h-32.54c-2.208-24.35-11.849-46.576-26.682-64.361l23.025-23.025c4.167-4.167 4.167-10.917 0-15.083-4.167-4.167-10.917-4.167-15.083 0l-23.025 23.025c-17.785-14.833-40.01-24.474-64.361-26.682v-32.54A10.66 10.66 0 00352 0a10.66 10.66 0 00-10.667 10.667V43.52c-23.99 2.217-46.107 11.703-63.995 26.736l-23.391-23.391c-4.167-4.167-10.917-4.167-15.083 0-4.167 4.167-4.167 10.917 0 15.083l23.445 23.445c-6.848 8.302-12.54 17.594-16.986 27.75-13.656-4.128-27.97-6.477-42.658-6.477-76.845 0-140.443 58.293-148.191 133.992C22.674 253.076 0 283.857 0 320c0 42.362 31.112 77.34 71.635 83.948L45.71 429.874c-4.172-1.996-8.784-3.207-13.71-3.207-17.646 0-32 14.354-32 32s14.354 32 32 32 32-14.354 32-32c0-4.926-1.211-9.538-3.207-13.71l39.624-39.624H262.25l-24.54 24.54c-4.172-1.996-8.784-3.207-13.71-3.207-17.646 0-32 14.354-32 32s14.354 32 32 32 32-14.354 32-32c0-4.926-1.211-9.538-3.207-13.71l39.624-39.624h70.25c58.813 0 106.667-47.854 106.667-106.667 0-25.835-9.605-49.237-24.947-67.716 13.655-17.681 21.885-38.436 23.945-60.284h33.001A10.66 10.66 0 00512 159.998a10.66 10.66 0 00-10.667-10.665z" fill="#303C42"/><path d="M223.999 469.334c5.891 0 10.667-4.776 10.667-10.667S229.89 448 223.999 448s-10.667 4.776-10.667 10.667 4.776 10.667 10.667 10.667zm-192 0c5.891 0 10.667-4.776 10.667-10.667S37.89 448 31.999 448s-10.667 4.776-10.667 10.667 4.776 10.667 10.667 10.667z" fill="#BBDEFB"/><path d="M355.124 419.125l-32.082 32.082c-4.172-1.996-8.784-3.207-13.71-3.207-17.646 0-32 14.354-32 32s14.354 32 32 32 32-14.354 32-32c0-4.926-1.211-9.538-3.207-13.71l32.082-32.082c4.167-4.167 4.167-10.917 0-15.083-4.166-4.167-10.916-4.167-15.083 0z" fill="#303C42"/><path d="M309.331 490.667c5.891 0 10.667-4.776 10.667-10.667s-4.776-10.667-10.667-10.667-10.667 4.776-10.667 10.667 4.776 10.667 10.667 10.667z" fill="#BBDEFB"/><path d="M163.124 419.125l-32.082 32.082c-4.172-1.996-8.784-3.207-13.71-3.207-17.646 0-32 14.354-32 32s14.354 32 32 32 32-14.354 32-32c0-4.926-1.211-9.538-3.207-13.71l32.082-32.082c4.167-4.167 4.167-10.917 0-15.083-4.166-4.167-10.916-4.167-15.083 0z" fill="#303C42"/><path d="M117.331 490.667c5.891 0 10.667-4.776 10.667-10.667s-4.776-10.667-10.667-10.667-10.667 4.776-10.667 10.667 4.776 10.667 10.667 10.667z" fill="#BBDEFB"/><path d="M429.116 215.9c-18.289-14.716-41.204-23.9-66.449-23.9-8.275 0-16.366 1.224-24.289 3.074-14.939-33.172-41.133-59.332-73.198-74.279C280.576 86.543 314.185 64 352 64c52.938 0 96 43.063 96 96 0 20.092-6.859 39.474-18.884 55.9z" fill="#FFCA28"/><path d="M447.999 298.667c0 47.052-38.271 85.333-85.333 85.333H85.332c-35.292 0-64-28.708-64-64s28.708-64 64-64a10.66 10.66 0 0010.667-10.667 10.66 10.66 0 00-10.667-10.667c-3.02 0-5.879.585-8.819.892C86.318 174.258 139.287 128 202.666 128c49.551 0 94.474 29.395 115.391 73.837-5.147 2.374-10.152 5.087-14.911 8.288-4.875 3.292-6.188 9.917-2.896 14.813 3.313 4.885 9.938 6.146 14.813 2.896 14.083-9.49 30.563-14.5 47.604-14.5 47.061-.001 85.332 38.281 85.332 85.333z" fill="#D8CFFF"/><path opacity=".1" d="M411.055 228.51c2.978 8.674 4.944 17.819 4.944 27.49 0 47.052-38.271 85.333-85.333 85.333H53.332c-11.142 0-21.469-3.116-30.602-8.142C28.832 362.169 54.566 384 85.332 384h277.333c47.063 0 85.334-38.281 85.334-85.333 0-29.078-14.668-54.743-36.944-70.157z" fill="#000"/><path d="M501.333 149.333h-32.54c-2.208-24.35-11.849-46.576-26.682-64.361l23.025-23.025c4.167-4.167 4.167-10.917 0-15.083-4.167-4.167-10.917-4.167-15.083 0l-23.025 23.025c-17.785-14.833-40.01-24.474-64.361-26.682v-32.54A10.66 10.66 0 00352 0a10.66 10.66 0 00-10.667 10.667V43.52c-23.99 2.217-46.107 11.703-63.995 26.736l-23.391-23.391c-4.167-4.167-10.917-4.167-15.083 0-4.167 4.167-4.167 10.917 0 15.083l23.445 23.445c-6.848 8.302-12.54 17.594-16.986 27.75-13.656-4.128-27.97-6.477-42.658-6.477-76.845 0-140.443 58.293-148.191 133.992C22.674 253.076 0 283.857 0 320c0 42.362 31.112 77.34 71.635 83.948L45.71 429.874c-4.172-1.996-8.784-3.207-13.71-3.207-17.646 0-32 14.354-32 32s14.354 32 32 32 32-14.354 32-32c0-4.926-1.211-9.538-3.207-13.71l39.624-39.624H262.25l-24.54 24.54c-4.172-1.996-8.784-3.207-13.71-3.207-17.646 0-32 14.354-32 32s14.354 32 32 32 32-14.354 32-32c0-4.926-1.211-9.538-3.207-13.71l39.624-39.624h70.25c58.813 0 106.667-47.854 106.667-106.667 0-25.835-9.605-49.237-24.947-67.716 13.655-17.681 21.885-38.436 23.945-60.284h33.001A10.66 10.66 0 00512 159.998a10.66 10.66 0 00-10.667-10.665zM355.125 419.125l-32.082 32.082c-4.172-1.996-8.784-3.207-13.71-3.207-17.646 0-32 14.354-32 32s14.354 32 32 32 32-14.354 32-32c0-4.926-1.211-9.538-3.207-13.71l32.082-32.082c4.167-4.167 4.167-10.917 0-15.083-4.166-4.167-10.916-4.167-15.083 0zm-192 0l-32.082 32.082c-4.172-1.996-8.784-3.207-13.71-3.207-17.646 0-32 14.354-32 32s14.354 32 32 32 32-14.354 32-32c0-4.926-1.211-9.538-3.207-13.71l32.082-32.082c4.167-4.167 4.167-10.917 0-15.083-4.166-4.167-10.916-4.167-15.083 0z" fill="url(#paint0_linear)"/><defs><linearGradient id="paint0_linear" x1="56.32" y1="180.441" x2="449.913" y2="363.967" gradientUnits="userSpaceOnUse"><stop stop-color="#fff" stop-opacity=".2"/><stop offset="1" stop-color="#fff" stop-opacity="0"/></linearGradient></defs></svg>