<svg width="513" height="512" viewBox="0 0 513 512" fill="none" xmlns="http://www.w3.org/2000/svg"><path d="M258.091 416c-2.938-5.125-9.479-6.833-14.563-3.906l-30.188 17.428v-24.189h117.333c41.167 0 74.667-33.5 74.667-74.667 0-11.495-2.828-22.263-7.49-32h7.49c58.814.001 106.668-47.853 106.668-106.666 0-58.813-47.854-106.667-106.667-106.667-8.275 0-16.366 1.224-24.289 3.074C357.132 35.29 304.003 0 245.341 0c-77.235 0-141.057 58.389-148.29 134.022-31.754 12.44-54.377 43.202-54.377 79.311 0 4.918.717 9.997 1.783 15.283C17.81 245.694.007 275.4.007 309.333c0 52.938 43.064 96 96 96h96.001v24.189l-30.188-17.428c-5.104-2.927-11.646-1.208-14.563 3.906-2.958 5.104-1.208 11.625 3.896 14.573L181.339 448l-30.185 17.427c-5.104 2.948-6.854 9.469-3.896 14.573 1.958 3.427 5.563 5.333 9.229 5.333 1.813 0 3.646-.458 5.333-1.427l30.188-17.428v34.855A10.66 10.66 0 00202.675 512a10.66 10.66 0 0010.667-10.667v-34.855l30.188 17.428a10.672 10.672 0 005.333 1.427c3.667 0 7.271-1.906 9.229-5.333 2.958-5.104 1.208-11.625-3.896-14.573L224.011 448l30.185-17.427c5.104-2.948 6.854-9.469 3.895-14.573z" fill="#303C42"/><path d="M492.758 394.667c-2.938-5.135-9.5-6.854-14.563-3.906l-30.187 17.428v-34.855a10.66 10.66 0 00-10.667-10.667 10.66 10.66 0 00-10.667 10.667v34.855l-30.188-17.428c-5.083-2.917-11.625-1.219-14.563 3.906-2.958 5.104-1.208 11.625 3.896 14.573l30.185 17.427-30.185 17.427c-5.104 2.948-6.854 9.469-3.896 14.573 1.958 3.427 5.563 5.333 9.229 5.333 1.813 0 3.646-.458 5.333-1.427l30.188-17.428V480a10.66 10.66 0 0010.667 10.667A10.662 10.662 0 00448.008 480v-34.855l30.188 17.428a10.672 10.672 0 005.333 1.427c3.667 0 7.271-1.906 9.229-5.333 2.958-5.104 1.208-11.625-3.896-14.573l-30.185-17.427 30.185-17.427c5.104-2.948 6.854-9.469 3.896-14.573zM111.612 448c-2.938-5.135-9.458-6.844-14.563-3.906l-11.708 6.76v-13.521a10.66 10.66 0 00-10.667-10.667 10.66 10.66 0 00-10.667 10.667v13.521l-11.708-6.76c-5.104-2.906-11.646-1.219-14.563 3.906-2.958 5.104-1.208 11.625 3.896 14.573l11.707 6.76-11.707 6.76c-5.104 2.948-6.854 9.469-3.896 14.573 1.958 3.427 5.563 5.333 9.229 5.333 1.813 0 3.646-.458 5.333-1.427l11.71-6.759v13.521A10.66 10.66 0 0074.675 512a10.661 10.661 0 0010.667-10.667v-13.521l11.708 6.76a10.673 10.673 0 005.333 1.427c3.667 0 7.271-1.906 9.229-5.333 2.958-5.104 1.208-11.625-3.896-14.573l-11.707-6.76 11.707-6.76c5.105-2.948 6.855-9.469 3.896-14.573zm256 0c-2.938-5.135-9.479-6.844-14.563-3.906l-11.708 6.76v-13.521a10.66 10.66 0 00-10.667-10.667 10.66 10.66 0 00-10.667 10.667v13.521l-11.708-6.76c-5.083-2.906-11.625-1.219-14.563 3.906-2.958 5.104-1.208 11.625 3.896 14.573l11.707 6.76-11.707 6.76c-5.104 2.948-6.854 9.469-3.896 14.573 1.958 3.427 5.563 5.333 9.229 5.333 1.813 0 3.646-.458 5.333-1.427l11.708-6.76v13.521A10.66 10.66 0 00330.673 512a10.66 10.66 0 0010.667-10.667v-13.521l11.708 6.76a10.672 10.672 0 005.333 1.427c3.667 0 7.271-1.906 9.229-5.333 2.958-5.104 1.208-11.625-3.896-14.573l-11.707-6.76 11.707-6.76c5.107-2.948 6.857-9.469 3.898-14.573z" fill="#303C42"/><path d="M64.008 213.333c0-35.292 28.708-64 64-64a10.66 10.66 0 0010.667-10.667A10.66 10.66 0 00128.008 128c-3.083 0-6.005.59-9.005.91 9.375-61.255 62.594-107.577 126.339-107.577 49.551 0 94.48 29.395 115.409 73.835-5.151 2.376-10.16 5.092-14.919 8.301-4.885 3.292-6.177 9.917-2.885 14.802 3.302 4.896 9.927 6.177 14.802 2.885 14.073-9.479 30.531-14.49 47.594-14.49 47.052 0 85.333 38.281 85.333 85.333s-38.281 85.333-85.333 85.333h-22.577c-6.128-5.986-13.318-10.837-21.201-14.448-7.246-64.201-61.595-113.552-126.889-113.552-47.432 0-90.46 26.492-112.599 67.947-8.466-2.4-17.188-3.947-26.068-3.947-11.1 0-21.598 2.268-31.523 5.749-.22-1.939-.478-3.892-.478-5.748z" fill="#D8CFFF"/><path d="M330.674 384H96.007c-41.167 0-74.667-33.5-74.667-74.667s33.5-74.667 74.667-74.667c17.156 0 33.281 5.656 46.646 16.354 4.635 3.719 11.333 2.948 14.99-1.656 3.688-4.594 2.948-11.313-1.656-14.99-4.385-3.514-9.083-6.578-13.987-9.25 18.788-33.302 53.979-54.458 92.674-54.458 51.454 0 94.456 36.908 104.116 86.154-2.702-.297-5.337-.82-8.116-.82a10.66 10.66 0 00-10.667 10.667 10.66 10.66 0 0010.667 10.667c29.406 0 53.333 23.927 53.333 53.333S360.08 384 330.674 384z" fill="#D8CFFF"/><path opacity=".1" d="M432.827 111.611c9.53 13.771 15.182 30.412 15.182 48.389 0 47.052-38.281 85.333-85.333 85.333h-4.766c1.486 5.75 2.973 11.509 3.655 17.552 7.883 3.611 15.073 8.462 21.201 14.448h22.577c47.052 0 85.333-38.281 85.333-85.333 0-37.383-24.319-68.879-57.849-80.389zm-71.47 175.573c.819 3.708 1.319 7.533 1.319 11.483 0 29.406-23.927 53.333-53.333 53.333H74.676c-18.865 0-35.92-7.264-49.078-18.848C35.604 362.605 63.218 384 96.008 384h234.668c29.406 0 53.333-23.927 53.333-53.333 0-17.968-8.995-33.814-22.652-43.483z" fill="#000"/><path d="M258.091 416c-2.938-5.125-9.479-6.833-14.563-3.906l-30.188 17.428v-24.189h117.333c41.167 0 74.667-33.5 74.667-74.667 0-11.495-2.828-22.263-7.49-32h7.49c58.814.001 106.668-47.853 106.668-106.666 0-58.813-47.854-106.667-106.667-106.667-8.275 0-16.366 1.224-24.289 3.074C357.132 35.29 304.003 0 245.341 0c-77.235 0-141.057 58.389-148.29 134.022-31.754 12.44-54.377 43.202-54.377 79.311 0 4.918.717 9.997 1.783 15.283C17.81 245.694.007 275.4.007 309.333c0 52.938 43.064 96 96 96h96.001v24.189l-30.188-17.428c-5.104-2.927-11.646-1.208-14.563 3.906-2.958 5.104-1.208 11.625 3.896 14.573L181.339 448l-30.185 17.427c-5.104 2.948-6.854 9.469-3.896 14.573 1.958 3.427 5.563 5.333 9.229 5.333 1.813 0 3.646-.458 5.333-1.427l30.188-17.428v34.855A10.66 10.66 0 00202.675 512a10.66 10.66 0 0010.667-10.667v-34.855l30.188 17.428a10.672 10.672 0 005.333 1.427c3.667 0 7.271-1.906 9.229-5.333 2.958-5.104 1.208-11.625-3.896-14.573L224.011 448l30.185-17.427c5.104-2.948 6.854-9.469 3.895-14.573zm234.667-21.333c-2.938-5.135-9.5-6.854-14.563-3.906l-30.187 17.428v-34.855a10.66 10.66 0 00-10.667-10.667 10.66 10.66 0 00-10.667 10.667v34.855l-30.188-17.428c-5.083-2.917-11.625-1.219-14.563 3.906-2.958 5.104-1.208 11.625 3.896 14.573l30.185 17.427-30.185 17.427c-5.104 2.948-6.854 9.469-3.896 14.573 1.958 3.427 5.563 5.333 9.229 5.333 1.813 0 3.646-.458 5.333-1.427l30.188-17.428V480a10.66 10.66 0 0010.667 10.667A10.662 10.662 0 00448.008 480v-34.855l30.188 17.428a10.672 10.672 0 005.333 1.427c3.667 0 7.271-1.906 9.229-5.333 2.958-5.104 1.208-11.625-3.896-14.573l-30.185-17.427 30.185-17.427c5.104-2.948 6.854-9.469 3.896-14.573zM111.612 448c-2.938-5.135-9.458-6.844-14.563-3.906l-11.708 6.76v-13.521a10.66 10.66 0 00-10.667-10.667 10.66 10.66 0 00-10.667 10.667v13.521l-11.708-6.76c-5.104-2.906-11.646-1.219-14.563 3.906-2.958 5.104-1.208 11.625 3.896 14.573l11.707 6.76-11.707 6.76c-5.104 2.948-6.854 9.469-3.896 14.573 1.958 3.427 5.563 5.333 9.229 5.333 1.813 0 3.646-.458 5.333-1.427l11.71-6.759v13.521A10.66 10.66 0 0074.675 512a10.66 10.66 0 0010.667-10.667v-13.521l11.708 6.76a10.673 10.673 0 005.333 1.427c3.667 0 7.271-1.906 9.229-5.333 2.958-5.104 1.208-11.625-3.896-14.573l-11.707-6.76 11.707-6.76c5.105-2.948 6.855-9.469 3.896-14.573zm256 0c-2.938-5.135-9.479-6.844-14.563-3.906l-11.708 6.76v-13.521a10.66 10.66 0 00-10.667-10.667 10.66 10.66 0 00-10.667 10.667v13.521l-11.708-6.76c-5.083-2.906-11.625-1.219-14.563 3.906-2.958 5.104-1.208 11.625 3.896 14.573l11.707 6.76-11.707 6.76c-5.104 2.948-6.854 9.469-3.896 14.573 1.958 3.427 5.563 5.333 9.229 5.333 1.813 0 3.646-.458 5.333-1.427l11.708-6.76v13.521A10.66 10.66 0 00330.673 512a10.66 10.66 0 0010.667-10.667v-13.521l11.708 6.76a10.672 10.672 0 005.333 1.427c3.667 0 7.271-1.906 9.229-5.333 2.958-5.104 1.208-11.625-3.896-14.573l-11.707-6.76 11.707-6.76c5.107-2.948 6.857-9.469 3.898-14.573z" fill="url(#paint0_linear)"/><defs><linearGradient id="paint0_linear" x1="42.768" y1="194.357" x2="513.69" y2="413.885" gradientUnits="userSpaceOnUse"><stop stop-color="#fff" stop-opacity=".2"/><stop offset="1" stop-color="#fff" stop-opacity="0"/></linearGradient></defs></svg>