<svg width="512" height="512" viewBox="0 0 512 512" fill="none" xmlns="http://www.w3.org/2000/svg"><g clip-path="url(#clip0)"><path d="M501.333 245.333H447.46c-2.484-44.888-20.374-85.634-48.572-117.129l38.133-38.142c4.167-4.167 4.167-10.917 0-15.083-4.167-4.167-10.917-4.167-15.083 0l-38.133 38.141c-31.493-28.202-72.243-46.095-117.138-48.579V10.667A10.66 10.66 0 00256 0a10.66 10.66 0 00-10.667 10.667V64.54c-44.895 2.484-85.645 20.378-117.138 48.579l-38.132-38.14c-4.167-4.167-10.917-4.167-15.083 0-4.167 4.167-4.167 10.917 0 15.083l38.133 38.142C82.682 162.191 64 206.901 64 256c0 102.264 80.431 185.875 181.333 191.46v53.874A10.66 10.66 0 00256 512.001a10.66 10.66 0 0010.667-10.667V447.46c44.895-2.484 85.645-20.378 117.138-48.579l38.133 38.141a10.634 10.634 0 007.542 3.125c2.729 0 5.458-1.042 7.542-3.125 4.167-4.167 4.167-10.917 0-15.083l-38.133-38.142c28.198-31.495 46.087-72.241 48.572-117.129h53.874a10.66 10.66 0 0010.667-10.667 10.664 10.664 0 00-10.669-10.668z" fill="#303C42"/><path d="M255.999 426.667c94.257 0 170.667-76.41 170.667-170.667S350.256 85.333 255.999 85.333 85.332 161.743 85.332 256s76.41 170.667 170.667 170.667z" fill="#FFCA28"/><path opacity=".2" d="M95.999 266.667C95.999 172.563 172.562 96 266.666 96c44.342 0 84.658 17.141 115.035 44.965-31.224-34.09-75.94-55.632-125.702-55.632-94.104 0-170.667 76.563-170.667 170.667 0 49.762 21.542 94.478 55.632 125.702-27.824-30.378-44.965-70.693-44.965-115.035z" fill="#fff"/><path d="M194.625 256c-18.667 0-28.708-6.969-36.75-12.573-7.042-4.896-12.604-8.76-24.604-8.76-11.979 0-17.542 3.865-24.583 8.76C100.646 249.031 90.625 256 71.938 256c-18.667 0-28.667-6.969-36.729-12.573-7.021-4.896-12.563-8.76-24.542-8.76A10.66 10.66 0 010 224a10.66 10.66 0 0110.667-10.667c18.667 0 28.688 6.979 36.75 12.583 7.021 4.885 12.563 8.75 24.521 8.75 11.979 0 17.542-3.865 24.583-8.76 8.042-5.604 18.063-12.573 36.75-12.573s28.729 6.979 36.771 12.583c7.042 4.885 12.604 8.75 24.583 8.75 12 0 17.563-3.865 24.604-8.76 8.063-5.604 18.083-12.573 36.771-12.573A10.66 10.66 0 01266.667 224 10.66 10.66 0 01256 234.667c-12 0-17.563 3.865-24.604 8.76-8.063 5.604-18.083 12.573-36.771 12.573zm0 192c-18.667 0-28.708-6.969-36.75-12.573-7.042-4.896-12.604-8.76-24.604-8.76-11.979 0-17.542 3.865-24.583 8.76C100.646 441.031 90.625 448 71.938 448c-18.667 0-28.667-6.969-36.729-12.573-7.021-4.896-12.563-8.76-24.542-8.76A10.66 10.66 0 010 416a10.66 10.66 0 0110.667-10.667c18.667 0 28.688 6.979 36.75 12.583 7.021 4.885 12.563 8.75 24.521 8.75 11.979 0 17.542-3.865 24.583-8.76 8.042-5.604 18.063-12.573 36.75-12.573s28.729 6.979 36.771 12.583c7.042 4.885 12.604 8.75 24.583 8.75 12 0 17.563-3.865 24.604-8.76 8.063-5.604 18.083-12.573 36.771-12.573A10.66 10.66 0 01266.667 416 10.66 10.66 0 01256 426.667c-12 0-17.563 3.865-24.604 8.76-8.063 5.604-18.083 12.573-36.771 12.573zM71.938 384c-18.667 0-28.667-6.969-36.729-12.573-7.021-4.896-12.563-8.76-24.542-8.76A10.66 10.66 0 010 352a10.66 10.66 0 0110.667-10.667c18.667 0 28.688 6.979 36.75 12.583 7.021 4.885 12.563 8.75 24.521 8.75a10.66 10.66 0 0110.667 10.667A10.662 10.662 0 0171.938 384zm248.063 0c-18.438 0-28.708-6.563-37.75-12.344-7.854-5.021-14.042-8.99-26.25-8.99-12 0-17.563 3.865-24.604 8.76-8.063 5.605-18.083 12.574-36.771 12.574-18.667 0-28.708-6.969-36.75-12.573-7.042-4.896-12.604-8.76-24.604-8.76A10.66 10.66 0 01122.605 352a10.66 10.66 0 0110.667-10.667c18.688 0 28.729 6.979 36.771 12.583 7.042 4.885 12.604 8.75 24.583 8.75 12 0 17.563-3.865 24.604-8.76 8.063-5.604 18.083-12.573 36.771-12.573 18.438 0 28.708 6.563 37.75 12.344 7.854 5.021 14.042 8.99 26.25 8.99a10.66 10.66 0 0110.667 10.667A10.66 10.66 0 01320.001 384zM71.938 320c-18.667 0-28.667-6.969-36.729-12.573-7.021-4.896-12.563-8.76-24.542-8.76A10.66 10.66 0 010 288a10.66 10.66 0 0110.667-10.667c18.667 0 28.688 6.979 36.75 12.583 7.021 4.885 12.563 8.75 24.521 8.75 11.979 0 17.542-3.865 24.583-8.76 8.042-5.604 18.063-12.573 36.75-12.573A10.66 10.66 0 01143.938 288a10.66 10.66 0 01-10.667 10.667c-11.979 0-17.542 3.865-24.583 8.76C100.646 313.031 90.625 320 71.938 320zm245.332 0c-18.667 0-28.667-6.969-36.729-12.573-7.021-4.896-12.563-8.76-24.542-8.76-12 0-17.563 3.865-24.604 8.76-8.063 5.604-18.083 12.573-36.771 12.573a10.66 10.66 0 01-10.667-10.667 10.66 10.66 0 0110.667-10.667c12 0 17.563-3.865 24.604-8.76 8.063-5.604 18.083-12.573 36.771-12.573 18.667 0 28.688 6.979 36.75 12.583 7.021 4.885 12.563 8.75 24.521 8.75 11.979 0 17.542-3.865 24.583-8.76 8.042-5.604 18.063-12.573 36.75-12.573A10.66 10.66 0 01389.27 288a10.66 10.66 0 01-10.667 10.667c-11.979 0-17.542 3.865-24.583 8.76-8.042 5.604-18.063 12.573-36.75 12.573z" fill="#303C42"/><path d="M501.333 245.333H447.46c-2.484-44.888-20.374-85.634-48.572-117.129l38.133-38.142c4.167-4.167 4.167-10.917 0-15.083-4.167-4.167-10.917-4.167-15.083 0l-38.133 38.141c-31.493-28.202-72.243-46.095-117.138-48.579V10.667A10.66 10.66 0 00256 0a10.66 10.66 0 00-10.667 10.667V64.54c-44.895 2.484-85.645 20.378-117.138 48.579l-38.132-38.14c-4.167-4.167-10.917-4.167-15.083 0-4.167 4.167-4.167 10.917 0 15.083l38.133 38.142c-25.831 28.85-43.06 65.469-47.72 105.898-7.638-1.173-12.41-4.314-17.975-8.186-8.063-5.604-18.083-12.583-36.75-12.583A10.661 10.661 0 000 224a10.66 10.66 0 0010.667 10.667c11.979 0 17.521 3.865 24.542 8.76 6.786 4.717 15.283 10.147 28.827 11.828-.002.252-.036.494-.036.745 0 14.595 1.809 28.745 4.91 42.406-9.763-.647-15.146-4.073-21.493-8.49-8.063-5.604-18.083-12.583-36.75-12.583A10.66 10.66 0 000 288a10.66 10.66 0 0010.667 10.667c11.979 0 17.521 3.865 24.542 8.76C43.271 313.031 53.271 320 71.938 320c1.186 0 2.055-.245 3.172-.298 12.079 34.118 33.497 63.75 61.26 85.923-1.094-.052-1.94-.292-3.099-.292-18.688 0-28.708 6.969-36.75 12.573-7.042 4.896-12.604 8.76-24.583 8.76-11.958 0-17.5-3.865-24.521-8.75-8.063-5.604-18.083-12.583-36.75-12.583A10.66 10.66 0 000 416a10.66 10.66 0 0010.667 10.667c11.979 0 17.521 3.865 24.542 8.76C43.271 441.031 53.271 448 71.938 448c18.688 0 28.708-6.969 36.75-12.573 7.042-4.896 12.604-8.76 24.583-8.76 12 0 17.563 3.865 24.604 8.76 8.042 5.604 18.083 12.573 36.75 12.573 9.569 0 16.826-1.846 22.751-4.382 9.128 1.874 18.413 3.313 27.957 3.841v53.874A10.66 10.66 0 00256 512a10.66 10.66 0 0010.667-10.667V447.46c44.895-2.484 85.645-20.378 117.138-48.579l38.133 38.141a10.634 10.634 0 007.542 3.125c2.729 0 5.458-1.042 7.542-3.125 4.167-4.167 4.167-10.917 0-15.083l-38.133-38.142c28.198-31.495 46.087-72.241 48.572-117.129h53.874a10.66 10.66 0 0010.667-10.667 10.664 10.664 0 00-10.669-10.668zM10.667 362.667c11.979 0 17.521 3.865 24.542 8.76C43.271 377.031 53.271 384 71.938 384a10.66 10.66 0 0010.667-10.667 10.66 10.66 0 00-10.667-10.667c-11.958 0-17.5-3.865-24.521-8.75-8.063-5.604-18.083-12.583-36.75-12.583A10.66 10.66 0 000 352a10.66 10.66 0 0010.667 10.667z" fill="url(#paint0_linear)"/></g><defs><linearGradient id="paint0_linear" x1="28.689" y1="160.092" x2="470.788" y2="366.122" gradientUnits="userSpaceOnUse"><stop stop-color="#fff" stop-opacity=".2"/><stop offset="1" stop-color="#fff" stop-opacity="0"/></linearGradient><clipPath id="clip0"><path fill="#fff" d="M0 0h512v512H0z"/></clipPath></defs></svg>