<svg width="512" height="512" viewBox="0 0 512 512" fill="none" xmlns="http://www.w3.org/2000/svg"><g clip-path="url(#clip0)"><path d="M394.667 170.667c-.764 0-1.518.172-2.283.188C366.75 106.763 304.552 64 234.667 64c-88.733 0-161.798 67.512-169.565 154.888C27.368 231.831 0 267.266 0 309.333c0 52.938 43.063 96 96 96h298.667C459.365 405.333 512 352.698 512 288c0-64.698-52.635-117.333-117.333-117.333z" fill="#303C42"/><path d="M394.666 384H95.999c-41.167 0-74.667-33.5-74.667-74.667s33.5-74.667 74.667-74.667a10.66 10.66 0 0010.667-10.667 10.66 10.66 0 00-10.667-10.667c-3.094 0-6.016.625-9.035.913 9.742-73.219 72.289-128.913 147.702-128.913 59.223 0 112.049 35.141 135.69 88.258-16.503 3.552-32.367 10.339-46.055 20.513-4.729 3.521-5.708 10.198-2.198 14.927 3.5 4.698 10.167 5.688 14.927 2.198C353.707 198.833 374.176 192 394.666 192c52.938 0 96 43.063 96 96s-43.063 96-96 96z" fill="#D8CFFF"/><path opacity=".1" d="M423.803 197.005c8.384 14.25 13.531 30.632 13.531 48.328 0 52.938-43.063 96-96 96H42.668c-5.017 0-9.907-.534-14.648-1.482C39.727 365.81 65.728 384 96 384h298.668c52.937 0 96-43.063 96-96 0-42.715-28.227-78.574-66.865-90.995z" fill="#000"/><path opacity=".2" d="M370.357 173.591c-.07-.158-.171-.294-.241-.452-1.095.471-2.206.892-3.288 1.396 1.182-.29 2.339-.687 3.529-.944z" fill="#fff"/><path d="M415.492 225.906c-8.052-5.604-18.073-12.573-36.75-12.573-18.688 0-28.719 6.969-36.781 12.573-7.031 4.896-12.594 8.76-24.594 8.76-11.99 0-17.552-3.865-24.583-8.76-8.063-5.604-18.094-12.573-36.781-12.573A10.66 10.66 0 00245.336 224a10.66 10.66 0 0010.667 10.667c12 0 17.563 3.865 24.594 8.76C288.66 249.031 298.691 256 317.368 256c18.688 0 28.719-6.969 36.771-12.573 7.042-4.896 12.604-8.76 24.604-8.76 11.979 0 17.531 3.865 24.563 8.75 8.052 5.604 18.083 12.583 36.76 12.583 18.667 0 28.688-6.979 36.729-12.583 7.021-4.885 12.573-8.75 24.542-8.75A10.66 10.66 0 00512.004 224a10.66 10.66 0 00-10.667-10.667c-18.667 0-28.688 6.979-36.729 12.583-7.021 4.885-12.573 8.75-24.542 8.75-11.991.001-17.543-3.864-24.574-8.76zm85.844 179.427c-18.667 0-28.688 6.979-36.729 12.583-7.021 4.885-12.573 8.75-24.542 8.75-11.99 0-17.542-3.865-24.573-8.76-8.052-5.604-18.073-12.573-36.75-12.573-18.688 0-28.719 6.969-36.781 12.573-7.031 4.896-12.594 8.76-24.594 8.76-11.99 0-17.552-3.865-24.583-8.76-8.063-5.604-18.094-12.573-36.781-12.573A10.66 10.66 0 00245.336 416a10.66 10.66 0 0010.667 10.667c12 0 17.563 3.865 24.594 8.76C288.66 441.031 298.691 448 317.368 448c18.688 0 28.719-6.969 36.771-12.573 7.042-4.896 12.604-8.76 24.604-8.76 11.979 0 17.531 3.865 24.563 8.75 8.052 5.604 18.083 12.583 36.76 12.583 18.667 0 28.688-6.979 36.729-12.583 7.021-4.885 12.573-8.75 24.542-8.75A10.66 10.66 0 00512.004 416a10.662 10.662 0 00-10.668-10.667zm0-64c-18.667 0-28.688 6.979-36.729 12.583-7.021 4.885-12.573 8.75-24.542 8.75a10.66 10.66 0 00-10.667 10.667A10.662 10.662 0 00440.066 384c18.667 0 28.688-6.979 36.729-12.583 7.021-4.885 12.573-8.75 24.542-8.75A10.66 10.66 0 00512.004 352a10.662 10.662 0 00-10.668-10.667zm-220.74 30.094C288.659 377.031 298.69 384 317.367 384c18.688 0 28.719-6.969 36.781-12.573 7.031-4.896 12.594-8.76 24.594-8.76A10.66 10.66 0 00389.409 352a10.66 10.66 0 00-10.667-10.667c-18.688 0-28.719 6.969-36.771 12.573-7.042 4.896-12.604 8.76-24.604 8.76-11.99 0-17.552-3.865-24.583-8.76-8.063-5.604-18.094-12.573-36.781-12.573-18.438 0-28.698 6.563-37.75 12.344-7.844 5.021-14.052 8.99-26.25 8.99a10.66 10.66 0 00-10.667 10.667A10.66 10.66 0 00192.002 384c18.438 0 28.698-6.563 37.75-12.344 7.844-5.021 14.052-8.99 26.25-8.99 12 .001 17.563 3.865 24.594 8.761zm220.739-94.094c-18.667 0-28.688 6.979-36.729 12.583-7.021 4.885-12.573 8.75-24.542 8.75-11.99 0-17.542-3.865-24.573-8.76-8.052-5.604-18.073-12.573-36.75-12.573A10.66 10.66 0 00368.074 288a10.66 10.66 0 0010.667 10.667c11.979 0 17.531 3.865 24.563 8.75 8.052 5.604 18.083 12.583 36.76 12.583 18.667 0 28.688-6.979 36.729-12.583 7.021-4.885 12.573-8.75 24.542-8.75A10.66 10.66 0 00512.002 288a10.66 10.66 0 00-10.667-10.667z" fill="#303C42"/><path d="M499.138 234.855c.772-.036 1.363-.189 2.195-.189A10.66 10.66 0 00512 223.999a10.66 10.66 0 00-10.667-10.667c-5.764 0-10.492.802-14.803 1.887-21.512-27.095-54.659-44.553-91.863-44.553-.764 0-1.518.172-2.283.188C366.75 106.763 304.552 64 234.667 64c-88.733 0-161.798 67.512-169.565 154.888C27.368 231.831 0 267.266 0 309.333c0 52.938 43.063 96 96 96h298.667c32.411 0 61.789-13.215 83.046-34.534 6.594-4.573 12.191-8.133 23.621-8.133a10.66 10.66 0 0010.667-10.667 10.66 10.66 0 00-10.667-10.667c-.896 0-1.538.195-2.395.227C507.232 325.483 512 307.302 512 288c0-19.138-4.701-37.167-12.862-53.145zM317.365 426.667c-11.99 0-17.552-3.865-24.583-8.76-8.063-5.604-18.094-12.573-36.781-12.573a10.66 10.66 0 00-10.667 10.667 10.66 10.66 0 0010.667 10.667c12 0 17.563 3.865 24.594 8.76 8.063 5.604 18.094 12.573 36.771 12.573 18.688 0 28.719-6.969 36.771-12.573 7.042-4.896 12.604-8.76 24.604-8.76 11.979 0 17.531 3.865 24.563 8.75 8.052 5.604 18.083 12.583 36.76 12.583 18.667 0 28.688-6.979 36.729-12.583 7.021-4.885 12.573-8.75 24.542-8.75a10.66 10.66 0 0010.667-10.667 10.66 10.66 0 00-10.667-10.667c-18.667 0-28.688 6.979-36.729 12.583-7.021 4.885-12.573 8.75-24.542 8.75-11.99 0-17.542-3.865-24.573-8.76-8.052-5.604-18.073-12.573-36.75-12.573-18.688 0-28.719 6.969-36.781 12.573-7.033 4.895-12.595 8.76-24.595 8.76z" fill="url(#paint0_linear)"/></g><defs><linearGradient id="paint0_linear" x1="51.524" y1="177.802" x2="521.906" y2="397.154" gradientUnits="userSpaceOnUse"><stop stop-color="#fff" stop-opacity=".2"/><stop offset="1" stop-color="#fff" stop-opacity="0"/></linearGradient><clipPath id="clip0"><path fill="#fff" d="M0 0h512v512H0z"/></clipPath></defs></svg>