<svg width="512" height="512" viewBox="0 0 512 512" fill="none" xmlns="http://www.w3.org/2000/svg"><path d="M501.333 149.333h-32.54c-2.208-24.352-11.85-46.577-26.686-64.362l23.039-23.023c4.167-4.156 4.167-10.917 0-15.083s-10.917-4.167-15.083 0l-23.04 23.025c-17.786-14.833-40.008-24.474-64.355-26.682v-32.54A10.663 10.663 0 00352 0a10.66 10.66 0 00-10.667 10.667V43.52c-23.988 2.217-46.103 11.703-63.992 26.733l-23.404-23.388c-4.167-4.167-10.917-4.167-15.083 0s-4.167 10.927 0 15.083l23.457 23.441c-6.85 8.303-12.546 17.594-16.995 27.753-13.655-4.128-27.966-6.475-42.65-6.475-76.865 0-140.452 58.292-148.182 133.988C22.674 253.068 0 283.852 0 320c0 47.052 38.271 85.333 85.333 85.333h131.462c-10.167 19.436-24.796 49.842-24.796 64C192 492.865 211.146 512 234.667 512s42.667-19.135 42.667-42.667c0-14.158-14.629-44.564-24.796-64h58.682c-6.372 10.888-12.553 23.594-12.553 32 0 17.646 14.354 32 32 32s32-14.354 32-32c0-8.406-6.181-21.112-12.553-32h12.553c58.813 0 106.667-47.854 106.667-106.667 0-25.836-9.604-49.24-24.947-67.717 13.659-17.685 21.885-38.434 23.945-60.283h33.001A10.66 10.66 0 00512 159.999a10.66 10.66 0 00-10.667-10.666z" fill="#303C42"/><path d="M234.669 490.667c-11.771 0-21.333-9.573-21.333-21.333 0-7.25 9.917-29.979 21.333-52.135 11.416 22.155 21.333 44.884 21.333 52.134 0 11.761-9.562 21.334-21.333 21.334zM330.667 448c-5.875 0-10.667-4.781-10.667-10.656.083-3.26 4.521-12.552 10.667-22.906 6.146 10.333 10.563 19.625 10.667 22.896-.001 5.885-4.792 10.666-10.667 10.666z" fill="#BBDEFB"/><path d="M429.116 215.9c-18.289-14.716-41.204-23.9-66.449-23.9-8.275 0-16.366 1.224-24.289 3.074-14.939-33.172-41.133-59.332-73.198-74.279C280.576 86.543 314.185 64 352 64c52.938 0 96 43.063 96 96 0 20.092-6.859 39.474-18.884 55.9z" fill="#FFCA28"/><path d="M129.897 431.271c-6.979 10.115-23.229 35.094-23.229 48.729 0 17.646 14.354 32 32 32s32-14.354 32-32c0-13.635-16.25-38.615-23.229-48.729-3.959-5.771-13.584-5.771-17.542 0z" fill="#303C42"/><path d="M138.667 490.667c-5.875 0-10.667-4.781-10.667-10.656.083-3.26 4.521-12.552 10.667-22.906 6.146 10.333 10.563 19.625 10.667 22.896-.001 5.884-4.792 10.666-10.667 10.666z" fill="#BBDEFB"/><path d="M447.999 298.667c0 47.052-38.271 85.333-85.333 85.333H85.332c-35.292 0-64-28.708-64-64s28.708-64 64-64a10.66 10.66 0 0010.667-10.667 10.66 10.66 0 00-10.667-10.667c-3.02 0-5.879.585-8.819.892C86.318 174.258 139.287 128 202.666 128c49.551 0 94.474 29.395 115.391 73.837-5.147 2.374-10.152 5.087-14.911 8.288-4.875 3.292-6.188 9.917-2.896 14.813 3.313 4.885 9.938 6.146 14.813 2.896 14.083-9.49 30.563-14.5 47.604-14.5 47.061-.001 85.332 38.281 85.332 85.333z" fill="#D8CFFF"/><path opacity=".1" d="M411.055 228.51c2.978 8.674 4.944 17.819 4.944 27.49 0 47.052-38.271 85.333-85.333 85.333H53.332c-11.142 0-21.469-3.116-30.602-8.142C28.832 362.169 54.566 384 85.332 384h277.333c47.063 0 85.334-38.281 85.334-85.333 0-29.078-14.668-54.743-36.944-70.157z" fill="#000"/><path d="M501.333 149.333h-32.54c-2.208-24.352-11.85-46.577-26.686-64.362l23.039-23.023c4.167-4.156 4.167-10.917 0-15.083s-10.917-4.167-15.083 0l-23.04 23.025c-17.786-14.833-40.008-24.474-64.355-26.682v-32.54A10.663 10.663 0 00352 0a10.66 10.66 0 00-10.667 10.667V43.52c-23.988 2.217-46.103 11.703-63.992 26.733l-23.404-23.388c-4.167-4.167-10.917-4.167-15.083 0s-4.167 10.927 0 15.083l23.457 23.441c-6.85 8.303-12.546 17.594-16.995 27.753-13.655-4.128-27.966-6.475-42.65-6.475-76.865 0-140.452 58.292-148.182 133.988C22.674 253.068 0 283.852 0 320c0 47.052 38.271 85.333 85.333 85.333h131.462c-10.167 19.436-24.796 49.842-24.796 64C192 492.865 211.146 512 234.667 512s42.667-19.135 42.667-42.667c0-14.158-14.629-44.564-24.796-64h58.682c-6.372 10.888-12.553 23.594-12.553 32 0 17.646 14.354 32 32 32s32-14.354 32-32c0-8.406-6.181-21.112-12.553-32h12.553c58.813 0 106.667-47.854 106.667-106.667 0-25.836-9.604-49.24-24.947-67.717 13.659-17.685 21.885-38.434 23.945-60.283h33.001A10.66 10.66 0 00512 159.999a10.66 10.66 0 00-10.667-10.666zM129.896 431.271c-6.979 10.115-23.229 35.094-23.229 48.729 0 17.646 14.354 32 32 32s32-14.354 32-32c0-13.635-16.25-38.615-23.229-48.729-3.959-5.771-13.584-5.771-17.542 0z" fill="url(#paint0_linear)"/><defs><linearGradient id="paint0_linear" x1="61.76" y1="168.772" x2="455.355" y2="352.3" gradientUnits="userSpaceOnUse"><stop stop-color="#fff" stop-opacity=".2"/><stop offset="1" stop-color="#fff" stop-opacity="0"/></linearGradient></defs></svg>