<svg width="512" height="512" viewBox="0 0 512 512" fill="none" xmlns="http://www.w3.org/2000/svg"><path d="M438.552 346.781c-5.573 9.917-33.364 60.406-33.364 79.885 0 23.531 19.134 42.667 42.666 42.667 23.532 0 42.667-19.135 42.667-42.667 0-19.479-27.792-69.969-33.365-79.885-3.771-6.729-14.833-6.729-18.604 0z" fill="#303C42"/><path d="M447.853 448c-11.76 0-21.333-9.573-21.333-21.333 0-7.25 9.906-29.979 21.333-52.135 11.427 22.156 21.333 44.885 21.333 52.135.001 11.76-9.572 21.333-21.333 21.333z" fill="#BBDEFB"/><path d="M108.551 431.271c-6.979 10.115-23.219 35.094-23.219 48.729 0 17.646 14.354 32 32 32s32-14.354 32-32c0-13.635-16.24-38.615-23.219-48.729-3.999-5.771-13.562-5.771-17.562 0z" fill="#303C42"/><path d="M117.331 490.667c-5.885 0-10.667-4.781-10.667-10.656.083-3.26 4.521-12.552 10.667-22.906 6.136 10.333 10.573 19.624 10.667 22.895 0 5.885-4.792 10.667-10.667 10.667z" fill="#BBDEFB"/><path d="M405.333 330.667c0-11.495-2.828-22.263-7.49-32h7.49C464.146 298.667 512 250.813 512 192S464.146 85.333 405.333 85.333c-8.276 0-16.366 1.224-24.288 3.073C357.135 35.289 304.005 0 245.333 0c-77.227 0-141.06 58.392-148.299 134.026-31.746 12.443-54.367 43.203-54.367 79.307 0 4.926.721 10.003 1.789 15.279C17.806 245.689 0 275.398 0 309.333c0 52.938 43.063 96 96 96h99.458c-10.161 19.436-24.792 49.842-24.792 64 0 23.531 19.135 42.667 42.667 42.667S256 492.865 256 469.333c0-14.158-14.63-44.564-24.792-64h58.671c-6.37 10.888-12.546 23.594-12.546 32 0 17.646 14.354 32 32 32s32-14.354 32-32c0-8.406-6.176-21.112-12.546-32h1.879c41.167 0 74.667-33.5 74.667-74.666z" fill="#303C42"/><path d="M213.333 490.667c-11.76 0-21.333-9.573-21.333-21.333 0-7.25 9.906-29.979 21.333-52.135 11.427 22.156 21.333 44.885 21.333 52.135.001 11.76-9.572 21.333-21.333 21.333zM309.331 448c-5.885 0-10.667-4.781-10.667-10.656.083-3.26 4.521-12.552 10.667-22.906 6.135 10.333 10.573 19.625 10.667 22.896 0 5.885-4.792 10.666-10.667 10.666z" fill="#BBDEFB"/><path d="M64 213.333c0-35.292 28.708-64 64-64a10.66 10.66 0 0010.667-10.667A10.66 10.66 0 00128 128c-3.083 0-6.005.59-9.005.91 9.375-61.255 62.594-107.577 126.339-107.577 49.551 0 94.48 29.395 115.409 73.835-5.151 2.376-10.16 5.092-14.919 8.301-4.885 3.292-6.177 9.917-2.885 14.802 3.302 4.896 9.927 6.177 14.802 2.885 14.073-9.479 30.531-14.49 47.594-14.49 47.052 0 85.333 38.281 85.333 85.333s-38.281 85.333-85.333 85.333h-22.577c-6.128-5.986-13.318-10.837-21.201-14.448-7.246-64.201-61.595-113.552-126.889-113.552-47.432 0-90.46 26.492-112.599 67.947-8.466-2.4-17.188-3.947-26.068-3.947-11.099 0-21.598 2.268-31.523 5.749-.219-1.939-.478-3.892-.478-5.748z" fill="#D8CFFF"/><path d="M330.666 384H95.999c-41.167 0-74.667-33.5-74.667-74.667s33.5-74.667 74.667-74.667c17.156 0 33.281 5.656 46.646 16.354 4.635 3.719 11.333 2.948 14.99-1.656 3.688-4.594 2.948-11.313-1.656-14.99-4.385-3.514-9.083-6.578-13.987-9.25 18.788-33.302 53.979-54.458 92.674-54.458 51.454 0 94.456 36.908 104.116 86.154-2.702-.297-5.337-.82-8.116-.82a10.66 10.66 0 00-10.667 10.667 10.66 10.66 0 0010.667 10.667c29.406 0 53.333 23.927 53.333 53.333S360.072 384 330.666 384z" fill="#D8CFFF"/><path opacity=".1" d="M432.819 111.611c9.53 13.771 15.182 30.412 15.182 48.389 0 47.052-38.281 85.333-85.333 85.333h-4.766c1.486 5.75 2.973 11.509 3.655 17.552 7.883 3.611 15.073 8.462 21.201 14.448h22.577c47.052 0 85.333-38.281 85.333-85.333 0-37.383-24.319-68.879-57.849-80.389zm-71.47 175.573c.819 3.708 1.319 7.533 1.319 11.483 0 29.406-23.927 53.333-53.333 53.333H74.668c-18.865 0-35.92-7.264-49.078-18.848C35.596 362.605 63.21 384 96 384h234.668c29.406 0 53.333-23.927 53.333-53.333 0-17.968-8.995-33.814-22.652-43.483z" fill="#000"/><path d="M438.552 346.781c-5.573 9.917-33.365 60.406-33.365 79.885 0 23.531 19.135 42.667 42.667 42.667s42.667-19.135 42.667-42.667c0-19.479-27.792-69.969-33.365-79.885-3.771-6.729-14.833-6.729-18.604 0zm-330 84.49c-6.979 10.115-23.219 35.094-23.219 48.729 0 17.646 14.354 32 32 32s32-14.354 32-32c0-13.635-16.24-38.615-23.219-48.729-3.999-5.771-13.562-5.771-17.562 0zm296.781-100.604c0-11.495-2.828-22.263-7.49-32h7.49C464.146 298.667 512 250.813 512 192S464.146 85.333 405.333 85.333c-8.276 0-16.366 1.224-24.288 3.073C357.135 35.289 304.005 0 245.333 0c-77.227 0-141.06 58.392-148.299 134.026-31.746 12.443-54.367 43.203-54.367 79.307 0 4.926.721 10.003 1.789 15.279C17.806 245.689 0 275.398 0 309.333c0 52.938 43.063 96 96 96h99.458c-10.161 19.436-24.792 49.842-24.792 64 0 23.531 19.135 42.667 42.667 42.667S256 492.865 256 469.333c0-14.158-14.63-44.564-24.792-64h58.671c-6.37 10.888-12.546 23.594-12.546 32 0 17.646 14.354 32 32 32s32-14.354 32-32c0-8.406-6.176-21.112-12.546-32h1.879c41.167 0 74.667-33.5 74.667-74.666z" fill="url(#paint0_linear)"/><defs><linearGradient id="paint0_linear" x1="46.155" y1="187.072" x2="506.557" y2="401.753" gradientUnits="userSpaceOnUse"><stop stop-color="#fff" stop-opacity=".2"/><stop offset="1" stop-color="#fff" stop-opacity="0"/></linearGradient></defs></svg>