<svg width="513" height="512" viewBox="0 0 513 512" fill="none" xmlns="http://www.w3.org/2000/svg"><path d="M55.245 431.271c-6.98 10.114-23.23 35.094-23.23 48.729 0 17.646 14.355 32 32 32 17.647 0 32-14.354 32-32 0-13.635-16.25-38.615-23.228-48.729-3.958-5.771-13.583-5.771-17.542 0z" fill="#303C42"/><path d="M64.015 490.667c-5.875 0-10.667-4.781-10.667-10.656.083-3.26 4.52-12.552 10.667-22.906 6.146 10.333 10.563 19.625 10.667 22.896 0 5.884-4.792 10.666-10.667 10.666z" fill="#BBDEFB"/><path d="M512.016 192c0-58.813-47.854-106.667-106.667-106.667-8.275 0-16.366 1.224-24.289 3.074C357.14 35.29 304.011 0 245.349 0c-77.235 0-141.057 58.389-148.29 134.022-31.754 12.44-54.377 43.202-54.377 79.311 0 4.918.717 9.997 1.783 15.283C17.818 245.694.015 275.4.015 309.333c0 52.938 43.064 96 96 96h74.668v24.189l-30.188-17.428c-5.083-2.927-11.625-1.208-14.563 3.906-2.958 5.104-1.208 11.625 3.896 14.573L160.013 448l-30.185 17.427c-5.104 2.948-6.854 9.469-3.896 14.573 1.958 3.427 5.563 5.333 9.229 5.333 1.813 0 3.646-.458 5.333-1.427l30.188-17.428v34.855A10.66 10.66 0 00181.349 512a10.66 10.66 0 0010.667-10.667v-34.855l30.188 17.428a10.672 10.672 0 005.333 1.427c3.667 0 7.271-1.906 9.229-5.333 2.958-5.104 1.208-11.625-3.896-14.573L202.685 448l30.185-17.427c5.104-2.948 6.854-9.469 3.896-14.573-2.938-5.125-9.479-6.833-14.563-3.906l-30.187 17.428v-24.189h110.129c-10.167 19.436-24.796 49.842-24.796 64 0 23.532 19.146 42.667 42.667 42.667s42.667-19.135 42.667-42.667c0-14.318-14.978-45.293-25.152-64.693 37.919-3.521 67.819-35.152 67.819-73.974 0-11.495-2.828-22.263-7.49-32h7.49c58.812.001 106.666-47.853 106.666-106.666z" fill="#303C42"/><path d="M320.017 490.667c-11.771 0-21.333-9.573-21.333-21.333 0-7.25 9.917-29.979 21.333-52.135 11.417 22.156 21.333 44.885 21.333 52.135 0 11.76-9.562 21.333-21.333 21.333z" fill="#BBDEFB"/><path d="M495.62 405.333c-2.938-5.125-9.479-6.844-14.563-3.906l-11.708 6.76v-13.521a10.66 10.66 0 00-10.667-10.667 10.66 10.66 0 00-10.667 10.667v13.521l-11.708-6.76c-5.083-2.906-11.625-1.198-14.563 3.906-2.958 5.104-1.208 11.625 3.896 14.573l11.707 6.76-11.707 6.76c-5.104 2.948-6.854 9.469-3.896 14.573 1.958 3.427 5.563 5.333 9.229 5.333 1.813 0 3.646-.458 5.333-1.427l11.708-6.76v13.521a10.66 10.66 0 0010.667 10.667 10.66 10.66 0 0010.667-10.667v-13.521l11.708 6.76a10.672 10.672 0 005.333 1.427c3.667 0 7.271-1.906 9.229-5.333 2.958-5.104 1.208-11.625-3.896-14.573l-11.707-6.76 11.707-6.76c5.107-2.948 6.857-9.468 3.898-14.573z" fill="#303C42"/><path d="M64.016 213.333c0-35.292 28.708-64 64-64a10.66 10.66 0 0010.667-10.667A10.66 10.66 0 00128.016 128c-3.083 0-6.005.59-9.005.91 9.375-61.255 62.594-107.577 126.339-107.577 49.551 0 94.48 29.395 115.409 73.835-5.151 2.376-10.16 5.092-14.919 8.301-4.885 3.292-6.177 9.917-2.885 14.802 3.302 4.896 9.927 6.177 14.802 2.885 14.073-9.479 30.531-14.49 47.594-14.49 47.052 0 85.333 38.281 85.333 85.333s-38.281 85.333-85.333 85.333h-22.577c-6.128-5.986-13.318-10.837-21.201-14.448-7.246-64.201-61.595-113.552-126.889-113.552-47.432 0-90.46 26.492-112.599 67.947-8.466-2.4-17.188-3.947-26.068-3.947-11.1 0-21.598 2.268-31.523 5.749-.22-1.939-.478-3.892-.478-5.748z" fill="#D8CFFF"/><path d="M330.682 384H96.015c-41.167 0-74.667-33.5-74.667-74.667s33.5-74.667 74.667-74.667c17.156 0 33.281 5.656 46.646 16.354 4.635 3.719 11.333 2.948 14.99-1.656 3.688-4.594 2.948-11.313-1.656-14.99-4.385-3.514-9.083-6.578-13.987-9.25 18.788-33.302 53.979-54.458 92.674-54.458 51.454 0 94.456 36.908 104.116 86.154-2.702-.297-5.337-.82-8.116-.82a10.66 10.66 0 00-10.667 10.667 10.66 10.66 0 0010.667 10.667c29.406 0 53.333 23.927 53.333 53.333S360.088 384 330.682 384z" fill="#D8CFFF"/><path opacity=".1" d="M432.835 111.611c9.53 13.771 15.182 30.412 15.182 48.389 0 47.052-38.281 85.333-85.333 85.333h-4.766c1.486 5.75 2.973 11.509 3.655 17.552 7.883 3.611 15.073 8.462 21.201 14.448h22.577c47.052 0 85.333-38.281 85.333-85.333 0-37.383-24.319-68.879-57.849-80.389zm-71.471 175.573c.819 3.708 1.319 7.533 1.319 11.483 0 29.406-23.926 53.333-53.333 53.333H74.683c-18.865 0-35.919-7.264-49.078-18.848C35.611 362.605 63.227 384 96.018 384h234.666c29.406 0 53.333-23.927 53.333-53.333 0-17.968-8.995-33.814-22.652-43.483z" fill="#000"/><path d="M55.245 431.271c-6.98 10.114-23.23 35.094-23.23 48.729 0 17.646 14.355 32 32 32 17.647 0 32-14.354 32-32 0-13.635-16.25-38.615-23.228-48.729-3.958-5.771-13.583-5.771-17.542 0zM512.016 192c0-58.813-47.854-106.667-106.667-106.667-8.275 0-16.366 1.224-24.289 3.074C357.14 35.29 304.011 0 245.349 0c-77.235 0-141.057 58.389-148.29 134.022-31.754 12.44-54.377 43.202-54.377 79.311 0 4.918.717 9.997 1.783 15.283C17.818 245.694.015 275.4.015 309.333c0 52.938 43.064 96 96 96h74.668v24.189l-30.188-17.428c-5.083-2.927-11.625-1.208-14.563 3.906-2.958 5.104-1.208 11.625 3.896 14.573L160.013 448l-30.185 17.427c-5.104 2.948-6.854 9.469-3.896 14.573 1.958 3.427 5.563 5.333 9.229 5.333 1.813 0 3.646-.458 5.333-1.427l30.188-17.428v34.855A10.66 10.66 0 00181.349 512a10.66 10.66 0 0010.667-10.667v-34.855l30.188 17.428a10.672 10.672 0 005.333 1.427c3.667 0 7.271-1.906 9.229-5.333 2.958-5.104 1.208-11.625-3.896-14.573L202.685 448l30.185-17.427c5.104-2.948 6.854-9.469 3.896-14.573-2.938-5.125-9.479-6.833-14.563-3.906l-30.187 17.428v-24.189h110.129c-10.167 19.436-24.796 49.842-24.796 64 0 23.532 19.146 42.667 42.667 42.667s42.667-19.135 42.667-42.667c0-14.318-14.978-45.293-25.152-64.693 37.919-3.521 67.819-35.152 67.819-73.974 0-11.495-2.828-22.263-7.49-32h7.49c58.812.001 106.666-47.853 106.666-106.666zM495.62 405.333c-2.938-5.125-9.479-6.844-14.563-3.906l-11.708 6.76v-13.521a10.66 10.66 0 00-10.667-10.667 10.66 10.66 0 00-10.667 10.667v13.521l-11.708-6.76c-5.083-2.906-11.625-1.198-14.563 3.906-2.958 5.104-1.208 11.625 3.896 14.573l11.707 6.76-11.707 6.76c-5.104 2.948-6.854 9.469-3.896 14.573 1.958 3.427 5.563 5.333 9.229 5.333 1.813 0 3.646-.458 5.333-1.427l11.708-6.76v13.521a10.66 10.66 0 0010.667 10.667 10.66 10.66 0 0010.667-10.667v-13.521l11.708 6.76a10.672 10.672 0 005.333 1.427c3.667 0 7.271-1.906 9.229-5.333 2.958-5.104 1.208-11.625-3.896-14.573l-11.707-6.76 11.707-6.76c5.107-2.948 6.857-9.468 3.898-14.573z" fill="url(#paint0_linear)"/><defs><linearGradient id="paint0_linear" x1="41.407" y1="197.286" x2="510.573" y2="416.059" gradientUnits="userSpaceOnUse"><stop stop-color="#fff" stop-opacity=".2"/><stop offset="1" stop-color="#fff" stop-opacity="0"/></linearGradient></defs></svg>