<svg width="513" height="512" viewBox="0 0 513 512" fill="none" xmlns="http://www.w3.org/2000/svg"><path d="M79.41 427.771a10.564 10.564 0 00-11.207 1.094l-33.188 25.364c-8.688 6.198-13.667 15.573-13.667 25.771 0 17.646 14.354 32 32 32s32-14.354 32-32v-42.667c0-4.062-2.312-7.76-5.937-9.562z" fill="#303C42"/><path d="M64.017 480c0 5.885-4.792 10.667-10.667 10.667S42.684 485.885 42.684 480c0-4.417 3-7.188 4.792-8.448.125-.083.25-.167.354-.26l16.187-12.375V480z" fill="#BBDEFB"/><path d="M250.079 427.771c-3.667-1.823-8-1.396-11.208 1.094l-33.188 25.365c-8.688 6.197-13.667 15.572-13.667 25.77 0 17.646 14.354 32 32 32s32-14.354 32-32v-42.667c0-4.062-2.312-7.76-5.937-9.562z" fill="#303C42"/><path d="M234.682 480c0 5.885-4.792 10.667-10.667 10.667s-10.667-4.781-10.667-10.667c0-4.417 3-7.188 4.792-8.448.125-.083.25-.167.354-.26l16.188-12.375V480z" fill="#BBDEFB"/><path d="M420.743 427.771c-3.667-1.823-8-1.396-11.208 1.094l-33.167 25.375c-8.708 6.177-13.688 15.552-13.688 25.76 0 17.646 14.354 32 32 32s32-14.354 32-32v-42.667a10.684 10.684 0 00-5.937-9.562z" fill="#303C42"/><path d="M405.349 480c0 5.885-4.792 10.667-10.667 10.667s-10.666-4.782-10.666-10.667c0-4.417 3-7.177 4.792-8.427.125-.094.229-.177.354-.271l16.188-12.375V480h-.001z" fill="#BBDEFB"/><path d="M405.349 85.333c-8.275 0-16.366 1.224-24.289 3.074C357.14 35.29 304.011 0 245.349 0c-77.235 0-141.057 58.389-148.29 134.022-31.754 12.44-54.377 43.202-54.377 79.311 0 4.918.717 9.997 1.783 15.283C17.818 245.694.015 275.4.015 309.333c0 52.938 43.064 96 96 96H128.5l-8.15 6.229c-8.688 6.198-13.667 15.573-13.667 25.771 0 17.646 14.354 32 32 32s32-14.354 32-32v-32h128.484l-8.15 6.229c-8.688 6.198-13.667 15.573-13.667 25.771 0 17.646 14.354 32 32 32s32-14.354 32-32v-33.078c36.089-5.232 64-36.074 64-73.589 0-11.495-2.828-22.263-7.49-32h7.49c58.813.001 106.667-47.853 106.667-106.666 0-58.813-47.854-106.667-106.667-106.667z" fill="#303C42"/><path d="M149.349 437.333c0 5.885-4.792 10.667-10.667 10.667s-10.666-4.781-10.666-10.667c0-4.417 3-7.188 4.792-8.448.125-.083.25-.167.354-.26l16.188-12.375v21.083h-.001zm170.665 0c0 5.885-4.792 10.667-10.667 10.667s-10.667-4.781-10.667-10.667c0-4.417 3-7.188 4.792-8.448.125-.083.25-.167.354-.26l16.188-12.375v21.083z" fill="#BBDEFB"/><path d="M64.016 213.333c0-35.292 28.708-64 64-64a10.66 10.66 0 0010.667-10.667A10.66 10.66 0 00128.016 128c-3.083 0-6.005.59-9.005.91 9.375-61.255 62.594-107.577 126.339-107.577 49.551 0 94.48 29.395 115.409 73.835-5.151 2.376-10.16 5.092-14.919 8.301-4.885 3.292-6.177 9.917-2.885 14.802 3.302 4.896 9.927 6.177 14.802 2.885 14.073-9.479 30.531-14.49 47.594-14.49 47.052 0 85.333 38.281 85.333 85.333s-38.281 85.333-85.333 85.333h-22.577c-6.128-5.986-13.318-10.837-21.201-14.448-7.246-64.201-61.595-113.552-126.889-113.552-47.432 0-90.46 26.492-112.599 67.947-8.466-2.4-17.188-3.947-26.068-3.947-11.1 0-21.598 2.268-31.523 5.749-.22-1.939-.478-3.892-.478-5.748z" fill="#D8CFFF"/><path d="M330.682 384H96.015c-41.167 0-74.667-33.5-74.667-74.667s33.5-74.667 74.667-74.667c17.156 0 33.281 5.656 46.646 16.354 4.635 3.719 11.333 2.948 14.99-1.656 3.688-4.594 2.948-11.313-1.656-14.99-4.385-3.514-9.083-6.578-13.987-9.25 18.788-33.302 53.979-54.458 92.674-54.458 51.454 0 94.456 36.908 104.116 86.154-2.702-.297-5.337-.82-8.116-.82a10.66 10.66 0 00-10.667 10.667 10.66 10.66 0 0010.667 10.667c29.406 0 53.333 23.927 53.333 53.333S360.088 384 330.682 384z" fill="#D8CFFF"/><path opacity=".1" d="M432.835 111.611c9.53 13.771 15.182 30.412 15.182 48.389 0 47.052-38.281 85.333-85.333 85.333h-4.766c1.486 5.75 2.973 11.509 3.655 17.552 7.883 3.611 15.073 8.462 21.201 14.448h22.577c47.052 0 85.333-38.281 85.333-85.333 0-37.383-24.319-68.879-57.849-80.389zm-71.471 175.573c.819 3.708 1.319 7.533 1.319 11.483 0 29.406-23.926 53.333-53.333 53.333H74.683c-18.865 0-35.919-7.264-49.078-18.848C35.611 362.605 63.227 384 96.018 384h234.666c29.406 0 53.333-23.927 53.333-53.333 0-17.968-8.995-33.814-22.652-43.483z" fill="#000"/><path d="M79.412 427.771a10.564 10.564 0 00-11.208 1.094l-33.188 25.364c-8.688 6.198-13.667 15.573-13.667 25.771 0 17.646 14.354 32 32 32s32-14.354 32-32v-42.667c0-4.062-2.312-7.76-5.937-9.562zm170.667 0c-3.667-1.823-8-1.396-11.208 1.094l-33.188 25.365c-8.688 6.197-13.667 15.572-13.667 25.77 0 17.646 14.354 32 32 32s32-14.354 32-32v-42.667c0-4.062-2.312-7.76-5.937-9.562zm170.666 0c-3.667-1.823-8-1.396-11.208 1.094L376.37 454.24c-8.708 6.177-13.688 15.552-13.688 25.76 0 17.646 14.354 32 32 32s32-14.354 32-32v-42.667a10.684 10.684 0 00-5.937-9.562zM405.349 85.333c-8.275 0-16.366 1.224-24.289 3.074C357.14 35.29 304.011 0 245.349 0c-77.235 0-141.057 58.389-148.29 134.022-31.754 12.44-54.377 43.202-54.377 79.311 0 4.918.717 9.997 1.783 15.283C17.818 245.694.015 275.4.015 309.333c0 52.938 43.064 96 96 96H128.5l-8.15 6.229c-8.688 6.198-13.667 15.573-13.667 25.771 0 17.646 14.354 32 32 32s32-14.354 32-32v-32h128.484l-8.15 6.229c-8.688 6.198-13.667 15.573-13.667 25.771 0 17.646 14.354 32 32 32s32-14.354 32-32v-33.078c36.089-5.232 64-36.074 64-73.589 0-11.495-2.828-22.263-7.49-32h7.49c58.813.001 106.667-47.853 106.667-106.666 0-58.813-47.854-106.667-106.667-106.667z" fill="url(#paint0_linear)"/><defs><linearGradient id="paint0_linear" x1="40.455" y1="199.326" x2="467.927" y2="398.67" gradientUnits="userSpaceOnUse"><stop stop-color="#fff" stop-opacity=".2"/><stop offset="1" stop-color="#fff" stop-opacity="0"/></linearGradient></defs></svg>