<svg width="513" height="512" viewBox="0 0 513 512" fill="none" xmlns="http://www.w3.org/2000/svg"><path d="M474.682 288.771l-69.611 40.264-52.158-29.857 67.831-33.616c.178-.089.28-.254.452-.35.355-.199.609-.49.941-.729a10.375 10.375 0 002.879-3.133c.148-.246.43-.349.561-.611.112-.227.092-.474.188-.704.279-.673.414-1.358.551-2.074.125-.664.264-1.298.263-1.961.001-.663-.138-1.297-.263-1.961-.137-.716-.272-1.401-.551-2.074-.095-.23-.076-.478-.188-.704-.199-.4-.548-.65-.789-1.012-.401-.616-.81-1.189-1.339-1.715-.513-.508-1.069-.9-1.663-1.288-.372-.247-.632-.604-1.043-.809l-67.831-33.616 52.158-29.857 69.611 40.264a10.527 10.527 0 005.333 1.438c3.667 0 7.25-1.906 9.229-5.323 2.958-5.104 1.208-11.625-3.896-14.573l-58.87-34.06 49.12-28.117c5.125-2.927 6.896-9.448 3.958-14.563-2.938-5.135-9.521-6.885-14.542-3.958l-49.328 28.237-.318-67.695C415.348 78.74 410.578 74 404.703 74h-.042a10.676 10.676 0 00-10.625 10.719l.367 79.775-53.672 30.723.617-77.799c.003-.393-.177-.729-.216-1.112-.072-.742-.19-1.445-.421-2.168-.217-.681-.507-1.286-.85-1.901-.198-.358-.249-.759-.492-1.1-.173-.242-.435-.361-.624-.583-.457-.544-.97-.986-1.526-1.428-.553-.439-1.086-.853-1.702-1.168-.565-.293-1.156-.473-1.775-.661-.725-.22-1.424-.398-2.18-.46-.277-.025-.514-.165-.798-.168h-.083c-.397 0-.734.184-1.12.225-.702.076-1.368.197-2.055.413-.717.228-1.362.525-2.004.892-.335.188-.71.233-1.03.46l-57.792 41.286V91.522l69.292-39.595c5.125-2.917 6.896-9.438 3.979-14.552-2.958-5.135-9.521-6.885-14.563-3.969L266.68 66.957v-56.29A10.658 10.658 0 00256.015 0a10.66 10.66 0 00-10.667 10.667v56.29L186.64 33.406c-5.063-2.917-11.625-1.167-14.563 3.969-2.917 5.115-1.146 11.635 3.979 14.552l69.292 39.595v58.421l-57.792-41.286c-.154-.108-.336-.121-.492-.22a10.837 10.837 0 00-2.346-1.046 10.284 10.284 0 00-2.401-.504c-.375-.044-.656-.202-1.052-.22-.284.003-.521.143-.798.168-.755.061-1.454.24-2.18.46-.618.189-1.21.368-1.775.661-.616.315-1.148.729-1.702 1.168-.556.443-1.069.884-1.526 1.428-.189.223-.451.341-.624.583-.243.341-.294.742-.492 1.1-.344.615-.633 1.22-.85 1.901-.23.723-.349 1.426-.421 2.168-.039.383-.219.719-.216 1.112l.617 77.799-53.672-30.723.367-79.775c.022-5.894-4.728-10.686-10.624-10.717h-.042c-5.875 0-10.646 4.74-10.667 10.615l-.318 67.695-49.327-28.237c-5.083-2.927-11.625-1.177-14.542 3.958-2.938 5.115-1.167 11.635 3.958 14.563l49.12 28.117-58.87 34.06c-5.104 2.948-6.854 9.469-3.896 14.573a10.66 10.66 0 009.229 5.323c1.813 0 3.667-.458 5.333-1.438l69.611-40.264 52.158 29.857-67.831 33.616c-.413.204-.672.561-1.046.81-.592.388-1.146.779-1.658 1.285-.53.529-.94 1.102-1.342 1.719-.24.362-.59.611-.788 1.009-.112.227-.092.474-.188.704-.28.673-.414 1.358-.551 2.074-.125.664-.264 1.298-.263 1.961-.001.663.138 1.297.263 1.961.137.716.272 1.401.55 2.074.096.23.077.478.189.704.132.262.413.365.56.611a10.375 10.375 0 002.88 3.133c.332.24.586.53.94.729.173.096.274.262.453.35l67.831 33.616-52.158 29.857-69.611-40.264c-5.021-2.927-11.604-1.208-14.563 3.885-2.958 5.104-1.208 11.625 3.896 14.573l58.87 34.06-49.12 28.117c-5.125 2.927-6.896 9.448-3.958 14.563 1.958 3.438 5.563 5.365 9.25 5.365 1.813 0 3.625-.448 5.292-1.406l49.328-28.237.318 67.695c.023 5.874 4.794 10.614 10.669 10.614h.042a10.676 10.676 0 0010.625-10.719l-.367-79.775 53.672-30.723-.617 77.799c-.003.393.177.729.216 1.112.072.742.191 1.444.421 2.167.219.681.508 1.289.852 1.904.198.358.249.758.491 1.099.173.242.435.361.624.585.457.543.967.982 1.522 1.424.556.441 1.092.857 1.712 1.174.557.288 1.141.466 1.75.654.736.225 1.447.406 2.215.467.272.023.504.161.781.164h.083c.387 0 .716-.178 1.092-.219a10.403 10.403 0 002.099-.422 10.1 10.1 0 001.98-.885c.337-.189.714-.234 1.036-.464l57.792-41.286v58.421l-69.292 39.595c-5.125 2.917-6.896 9.438-3.979 14.552 2.938 5.135 9.5 6.865 14.563 3.969l58.708-33.551v56.29a10.66 10.66 0 0010.667 10.667 10.66 10.66 0 0010.667-10.667v-56.29l58.708 33.551a10.553 10.553 0 005.292 1.406c3.688 0 7.292-1.927 9.271-5.375 2.917-5.115 1.146-11.635-3.979-14.552l-69.292-39.595v-58.421l57.792 41.286c.202.143.453.083.66.211 1.642 1.029 3.471 1.779 5.548 1.779h.083c1.602-.014 3.081-.431 4.438-1.073.38-.178.669-.483 1.029-.706.983-.618 1.857-1.326 2.59-2.22.159-.193.401-.264.548-.47.242-.341.293-.741.491-1.099.344-.615.633-1.223.852-1.904.229-.723.349-1.424.421-2.167.039-.383.219-.719.216-1.112l-.617-77.799 53.672 30.723-.367 79.775A10.672 10.672 0 00404.661 438h.042c5.875 0 10.646-4.74 10.667-10.615l.318-67.695 49.327 28.237a10.553 10.553 0 005.292 1.406c3.688 0 7.292-1.927 9.25-5.365 2.938-5.115 1.167-11.635-3.958-14.563l-49.12-28.117 58.87-34.06c5.104-2.948 6.854-9.469 3.896-14.573-2.98-5.103-9.542-6.842-14.563-3.884z" fill="#303C42"/><path d="M391.988 256l-61.375 30.413L277.484 256l53.129-30.413L391.988 256zm-72.139-117.816l-.556 69.306-52.609 30.114v-61.445l53.165-37.975zm-127.665 0l53.165 37.975v61.445L192.74 207.49l-.556-69.306zM120.043 256l61.375-30.413L234.547 256l-53.129 30.413L120.043 256zm72.141 117.816l.556-69.306 52.609-30.114v61.445l-53.165 37.975zm127.665 0l-53.165-37.975v-61.445l52.609 30.114.556 69.306z" fill="#BBDEFB"/><path d="M474.682 288.771l-69.611 40.264-52.158-29.857 67.831-33.616c.178-.089.28-.254.452-.35.355-.199.609-.49.941-.729a10.375 10.375 0 002.879-3.133c.148-.246.43-.349.561-.611.112-.227.092-.474.188-.704.279-.673.414-1.358.551-2.074.125-.664.264-1.298.263-1.961.001-.663-.138-1.297-.263-1.961-.137-.716-.272-1.401-.551-2.074-.095-.23-.076-.478-.188-.704-.199-.4-.548-.65-.789-1.012-.401-.616-.81-1.189-1.339-1.715-.513-.508-1.069-.9-1.663-1.288-.372-.247-.632-.604-1.043-.809l-67.831-33.616 52.158-29.857 69.611 40.264a10.527 10.527 0 005.333 1.438c3.667 0 7.25-1.906 9.229-5.323 2.958-5.104 1.208-11.625-3.896-14.573l-58.87-34.06 49.12-28.117c5.125-2.927 6.896-9.448 3.958-14.563-2.938-5.135-9.521-6.885-14.542-3.958l-49.328 28.237-.318-67.695C415.348 78.74 410.578 74 404.703 74h-.042a10.676 10.676 0 00-10.625 10.719l.367 79.775-53.672 30.723.617-77.799c.003-.393-.177-.729-.216-1.112-.072-.742-.19-1.445-.421-2.168-.217-.681-.507-1.286-.85-1.901-.198-.358-.249-.759-.492-1.1-.173-.242-.435-.361-.624-.583-.457-.544-.97-.986-1.526-1.428-.553-.439-1.086-.853-1.702-1.168-.565-.293-1.156-.473-1.775-.661-.725-.22-1.424-.398-2.18-.46-.277-.025-.514-.165-.798-.168h-.083c-.397 0-.734.184-1.12.225-.702.076-1.368.197-2.055.413-.717.228-1.362.525-2.004.892-.335.188-.71.233-1.03.46l-57.792 41.286V91.522l69.292-39.595c5.125-2.917 6.896-9.438 3.979-14.552-2.958-5.135-9.521-6.885-14.563-3.969L266.68 66.957v-56.29A10.658 10.658 0 00256.015 0a10.66 10.66 0 00-10.667 10.667v56.29L186.64 33.406c-5.063-2.917-11.625-1.167-14.563 3.969-2.917 5.115-1.146 11.635 3.979 14.552l69.292 39.595v58.421l-57.792-41.286c-.154-.108-.336-.121-.492-.22a10.837 10.837 0 00-2.346-1.046 10.284 10.284 0 00-2.401-.504c-.375-.044-.656-.202-1.052-.22-.284.003-.521.143-.798.168-.755.061-1.454.24-2.18.46-.618.189-1.21.368-1.775.661-.616.315-1.148.729-1.702 1.168-.556.443-1.069.884-1.526 1.428-.189.223-.451.341-.624.583-.243.341-.294.742-.492 1.1-.344.615-.633 1.22-.85 1.901-.23.723-.349 1.426-.421 2.168-.039.383-.219.719-.216 1.112l.617 77.799-53.672-30.723.367-79.775c.022-5.894-4.728-10.686-10.624-10.717h-.042c-5.875 0-10.646 4.74-10.667 10.615l-.318 67.695-49.327-28.237c-5.083-2.927-11.625-1.177-14.542 3.958-2.938 5.115-1.167 11.635 3.958 14.563l49.12 28.117-58.87 34.06c-5.104 2.948-6.854 9.469-3.896 14.573a10.66 10.66 0 009.229 5.323c1.813 0 3.667-.458 5.333-1.438l69.611-40.264 52.158 29.857-67.831 33.616c-.413.204-.672.561-1.046.81-.592.388-1.146.779-1.658 1.285-.53.529-.94 1.102-1.342 1.719-.24.362-.59.611-.788 1.009-.112.227-.092.474-.188.704-.28.673-.414 1.358-.551 2.074-.125.664-.264 1.298-.263 1.961-.001.663.138 1.297.263 1.961.137.716.272 1.401.55 2.074.096.23.077.478.189.704.132.262.413.365.56.611a10.375 10.375 0 002.88 3.133c.332.24.586.53.94.729.173.096.274.262.453.35l67.831 33.616-52.158 29.857-69.611-40.264c-5.021-2.927-11.604-1.208-14.563 3.885-2.958 5.104-1.208 11.625 3.896 14.573l58.87 34.06-49.12 28.117c-5.125 2.927-6.896 9.448-3.958 14.563 1.958 3.438 5.563 5.365 9.25 5.365 1.813 0 3.625-.448 5.292-1.406l49.328-28.237.318 67.695c.023 5.874 4.794 10.614 10.669 10.614h.042a10.676 10.676 0 0010.625-10.719l-.367-79.775 53.672-30.723-.617 77.799c-.003.393.177.729.216 1.112.072.742.191 1.444.421 2.167.219.681.508 1.289.852 1.904.198.358.249.758.491 1.099.173.242.435.361.624.585.457.543.967.982 1.522 1.424.556.441 1.092.857 1.712 1.174.557.288 1.141.466 1.75.654.736.225 1.447.406 2.215.467.272.023.504.161.781.164h.083c.387 0 .716-.178 1.092-.219a10.403 10.403 0 002.099-.422 10.1 10.1 0 001.98-.885c.337-.189.714-.234 1.036-.464l57.792-41.286v58.421l-69.292 39.595c-5.125 2.917-6.896 9.438-3.979 14.552 2.938 5.135 9.5 6.865 14.563 3.969l58.708-33.551v56.29a10.66 10.66 0 0010.667 10.667 10.66 10.66 0 0010.667-10.667v-56.29l58.708 33.551a10.553 10.553 0 005.292 1.406c3.688 0 7.292-1.927 9.271-5.375 2.917-5.115 1.146-11.635-3.979-14.552l-69.292-39.595v-58.421l57.792 41.286c.202.143.453.083.66.211 1.642 1.029 3.471 1.779 5.548 1.779h.083c1.602-.014 3.081-.431 4.438-1.073.38-.178.669-.483 1.029-.706.983-.618 1.857-1.326 2.59-2.22.159-.193.401-.264.548-.47.242-.341.293-.741.491-1.099.344-.615.633-1.223.852-1.904.229-.723.349-1.424.421-2.167.039-.383.219-.719.216-1.112l-.617-77.799 53.672 30.723-.367 79.775A10.672 10.672 0 00404.661 438h.042c5.875 0 10.646-4.74 10.667-10.615l.318-67.695 49.327 28.237a10.553 10.553 0 005.292 1.406c3.688 0 7.292-1.927 9.25-5.365 2.938-5.115 1.167-11.635-3.958-14.563l-49.12-28.117 58.87-34.06c5.104-2.948 6.854-9.469 3.896-14.573-2.98-5.103-9.542-6.842-14.563-3.884z" fill="url(#paint0_linear)"/><defs><linearGradient id="paint0_linear" x1="23.366" y1="147.484" x2="488.665" y2="364.561" gradientUnits="userSpaceOnUse"><stop stop-color="#fff" stop-opacity=".2"/><stop offset="1" stop-color="#fff" stop-opacity="0"/></linearGradient></defs></svg>