<svg width="513" height="512" viewBox="0 0 513 512" fill="none" xmlns="http://www.w3.org/2000/svg"><path d="M58.399 427.771a10.72 10.72 0 00-11.208 1.094L14.035 454.23C5.325 460.417.335 469.802.335 480c0 17.646 14.355 32 32 32 17.647 0 32-14.354 32-32v-42.667c0-4.062-2.301-7.76-5.936-9.562z" fill="#303C42"/><path d="M43.002 480c0 5.885-4.781 10.667-10.667 10.667S21.668 485.885 21.668 480c0-4.417 3.01-7.188 4.802-8.448.125-.083.24-.167.354-.26l16.177-12.365V480h.001z" fill="#BBDEFB"/><path d="M501.669 149.333h-32.54c-2.208-24.352-11.85-46.577-26.686-64.362l23.039-23.023c4.167-4.156 4.167-10.917 0-15.083s-10.917-4.167-15.083 0l-23.04 23.025c-17.786-14.833-40.008-24.474-64.355-26.682v-32.54A10.663 10.663 0 00352.336 0a10.66 10.66 0 00-10.667 10.667V43.52c-23.988 2.217-46.103 11.703-63.992 26.733l-23.404-23.388c-4.167-4.167-10.917-4.167-15.083 0s-4.167 10.927 0 15.083l23.457 23.441c-6.85 8.303-12.546 17.594-16.995 27.753-13.655-4.128-27.966-6.475-42.65-6.475-76.865 0-140.452 58.292-148.182 133.988C23.01 253.068.336 283.852.336 320c0 47.052 38.27 85.333 85.333 85.333h277.333c58.813 0 106.667-47.854 106.667-106.667 0-25.836-9.604-49.24-24.947-67.717 13.659-17.685 21.885-38.434 23.945-60.283h33.001a10.66 10.66 0 0010.667-10.667 10.66 10.66 0 00-10.666-10.666z" fill="#303C42"/><path d="M429.452 215.9c-18.289-14.716-41.204-23.9-66.449-23.9-8.275 0-16.366 1.224-24.289 3.074-14.939-33.172-41.133-59.332-73.198-74.279C280.912 86.543 314.521 64 352.336 64c52.938 0 96 43.063 96 96 0 20.092-6.859 39.474-18.884 55.9z" fill="#FFCA28"/><path d="M448.335 298.667c0 47.052-38.271 85.333-85.333 85.333H85.668c-35.292 0-64-28.708-64-64s28.708-64 64-64a10.66 10.66 0 0010.667-10.667 10.66 10.66 0 00-10.667-10.667c-3.02 0-5.879.585-8.819.892C86.654 174.258 139.623 128 203.002 128c49.551 0 94.474 29.395 115.391 73.837-5.147 2.374-10.152 5.087-14.911 8.288-4.875 3.292-6.188 9.917-2.896 14.813 3.313 4.885 9.938 6.146 14.813 2.896 14.083-9.49 30.563-14.5 47.604-14.5 47.061-.001 85.332 38.281 85.332 85.333z" fill="#D8CFFF"/><path d="M448.335 298.667c0 47.052-38.271 85.333-85.333 85.333H85.668c-35.292 0-64-28.708-64-64s28.708-64 64-64a10.66 10.66 0 0010.667-10.667 10.66 10.66 0 00-10.667-10.667c-3.02 0-5.879.585-8.819.892C86.654 174.258 139.623 128 203.002 128c49.551 0 94.474 29.395 115.391 73.837-5.147 2.374-10.152 5.087-14.911 8.288-4.875 3.292-6.188 9.917-2.896 14.813 3.313 4.885 9.938 6.146 14.813 2.896 14.083-9.49 30.563-14.5 47.604-14.5 47.061-.001 85.332 38.281 85.332 85.333z" fill="#D8CFFF"/><path d="M117.668 469.333c-17.646 0-32-14.354-32-32 0-10.198 4.99-19.583 13.698-25.771l33.156-25.365a10.683 10.683 0 0111.208-1.094 10.67 10.67 0 015.938 9.563v42.667c0 17.646-14.354 32-32 32z" fill="#303C42"/><path d="M128.337 416.26l-16.177 12.365a4.352 4.352 0 01-.354.26c-1.792 1.26-4.802 4.031-4.802 8.448 0 5.885 4.781 10.667 10.667 10.667s10.666-4.781 10.666-10.667V416.26z" fill="#BBDEFB"/><path d="M309.668 512c-17.646 0-32-14.354-32-32 0-10.208 4.99-19.583 13.698-25.76l33.156-25.375c3.24-2.458 7.594-2.875 11.208-1.094a10.658 10.658 0 015.938 9.563V480c0 17.646-14.354 32-32 32z" fill="#303C42"/><path d="M320.334 458.927l-16.177 12.375a4.66 4.66 0 01-.365.271C302 472.823 299 475.583 299 480c0 5.885 4.781 10.667 10.667 10.667s10.667-4.782 10.667-10.667v-21.073z" fill="#BBDEFB"/><path opacity=".1" d="M411.391 228.51c2.978 8.674 4.944 17.819 4.944 27.49 0 47.052-38.271 85.333-85.333 85.333H53.668c-11.142 0-21.469-3.116-30.602-8.142C29.168 362.169 54.901 384 85.668 384h277.333c47.063 0 85.334-38.281 85.334-85.333 0-29.078-14.668-54.743-36.944-70.157z" fill="#000"/><path d="M171.003 512c-1.375 0-2.75-.26-4.083-.813a10.658 10.658 0 01-6.375-11.948l32-160a10.636 10.636 0 015.771-7.49 10.7 10.7 0 019.458.042l28.979 14.49 8.979-80.792a10.704 10.704 0 014.854-7.813c2.719-1.74 6.063-2.177 9.125-1.125l64 21.333c5.5 1.823 8.521 7.708 6.823 13.25l-42.667 138.667c-.927 3-3.115 5.438-6 6.667a10.528 10.528 0 01-8.969-.26l-34.24-17.125-58.781 88.167a10.665 10.665 0 01-8.874 4.75z" fill="#303C42"/><path d="M210.719 357.115l-18.688 93.438 34.094-51.135c2.99-4.469 8.833-6.042 13.646-3.625l31.406 15.708 35.896-116.677-41.594-13.865-9.208 82.885a10.683 10.683 0 01-5.51 8.198 10.715 10.715 0 01-9.865.167l-30.177-15.094z" fill="#FFCA28"/><path d="M58.399 427.771a10.72 10.72 0 00-11.208 1.094L14.035 454.23C5.325 460.417.335 469.802.335 480c0 17.646 14.355 32 32 32 17.647 0 32-14.354 32-32v-42.667c0-4.062-2.301-7.76-5.936-9.562zm443.27-278.438h-32.54c-2.208-24.352-11.85-46.577-26.686-64.362l23.039-23.023c4.167-4.156 4.167-10.917 0-15.083s-10.917-4.167-15.083 0l-23.04 23.025c-17.786-14.833-40.008-24.474-64.355-26.682v-32.54A10.663 10.663 0 00352.336 0a10.66 10.66 0 00-10.667 10.667V43.52c-23.988 2.217-46.103 11.703-63.992 26.733l-23.404-23.388c-4.167-4.167-10.917-4.167-15.083 0s-4.167 10.927 0 15.083l23.457 23.441c-6.85 8.303-12.546 17.594-16.995 27.753-13.655-4.128-27.966-6.475-42.65-6.475-76.865 0-140.452 58.292-148.182 133.988C23.01 253.068.336 283.852.336 320c0 47.052 38.27 85.333 85.333 85.333h21.841l-8.143 6.229c-8.708 6.188-13.698 15.573-13.698 25.771 0 17.646 14.354 32 32 32s32-14.354 32-32v-32h29.656l-18.781 93.906c-1 5 1.667 10 6.375 11.948a10.666 10.666 0 0012.958-3.937l58.781-88.167 34.24 17.125a10.521 10.521 0 008.969.26 10.652 10.652 0 006-6.667l7.529-24.469h67.607c58.813 0 106.667-47.854 106.667-106.667 0-25.836-9.604-49.24-24.947-67.717 13.659-17.685 21.885-38.434 23.945-60.283h33.001a10.66 10.66 0 0010.667-10.667 10.66 10.66 0 00-10.667-10.665zM335.732 427.771c-3.615-1.781-7.969-1.365-11.208 1.094l-33.156 25.375c-8.708 6.177-13.698 15.552-13.698 25.76 0 17.646 14.354 32 32 32s32-14.354 32-32v-42.667a10.66 10.66 0 00-5.938-9.562z" fill="url(#paint0_linear)"/><defs><linearGradient id="paint0_linear" x1="52.575" y1="189.197" x2="446.161" y2="372.731" gradientUnits="userSpaceOnUse"><stop stop-color="#fff" stop-opacity=".2"/><stop offset="1" stop-color="#fff" stop-opacity="0"/></linearGradient></defs></svg>