<svg width="512" height="512" viewBox="0 0 512 512" fill="none" xmlns="http://www.w3.org/2000/svg"><path d="M501.333 149.333h-32.54c-2.208-24.352-11.85-46.577-26.686-64.362l23.039-23.023c4.167-4.156 4.167-10.917 0-15.083s-10.917-4.167-15.083 0l-23.04 23.025c-17.786-14.833-40.008-24.474-64.355-26.682v-32.54A10.663 10.663 0 00352 0a10.66 10.66 0 00-10.667 10.667V43.52c-23.988 2.217-46.103 11.703-63.992 26.733l-23.404-23.388c-4.167-4.167-10.917-4.167-15.083 0s-4.167 10.927 0 15.083l23.457 23.441c-6.85 8.303-12.546 17.594-16.995 27.753-13.655-4.128-27.966-6.475-42.65-6.475-76.865 0-140.452 58.292-148.182 133.988C22.674 253.068 0 283.852 0 320c0 47.052 38.271 85.333 85.333 85.333h128v24.189l-30.188-17.428c-5.063-2.906-11.625-1.208-14.563 3.906-2.958 5.104-1.208 11.625 3.896 14.573L202.664 448l-30.185 17.427c-5.104 2.948-6.854 9.469-3.896 14.573 1.958 3.427 5.563 5.333 9.229 5.333 1.813 0 3.646-.458 5.333-1.427l30.188-17.428v34.855A10.66 10.66 0 00224 512a10.66 10.66 0 0010.667-10.667v-34.855l30.188 17.428a10.672 10.672 0 005.333 1.427c3.667 0 7.271-1.906 9.229-5.333 2.958-5.104 1.208-11.625-3.896-14.573L245.336 448l30.185-17.427c5.104-2.948 6.854-9.469 3.896-14.573-2.938-5.125-9.479-6.844-14.563-3.906l-30.188 17.428v-24.189h128c58.813 0 106.667-47.854 106.667-106.667 0-25.836-9.604-49.24-24.947-67.717 13.659-17.685 21.885-38.434 23.945-60.283h33.001a10.66 10.66 0 0010.667-10.667 10.66 10.66 0 00-10.666-10.666z" fill="#303C42"/><path d="M132.939 448c-2.917-5.125-9.458-6.844-14.563-3.906l-11.708 6.76v-13.521a10.66 10.66 0 00-10.667-10.667 10.66 10.66 0 00-10.667 10.667v13.521l-11.708-6.76c-5.062-2.906-11.625-1.198-14.562 3.906-2.958 5.104-1.208 11.625 3.896 14.573l11.707 6.76-11.707 6.76c-5.104 2.948-6.854 9.469-3.896 14.573 1.958 3.427 5.563 5.333 9.229 5.333 1.813 0 3.646-.458 5.333-1.427l11.708-6.76v13.521A10.66 10.66 0 0096.001 512a10.66 10.66 0 0010.667-10.667v-13.521l11.708 6.76a10.672 10.672 0 005.333 1.427c3.667 0 7.271-1.906 9.229-5.333 2.958-5.104 1.208-11.625-3.896-14.573l-11.707-6.76 11.707-6.76c5.105-2.948 6.855-9.469 3.897-14.573zm277.333 0c-2.938-5.125-9.479-6.844-14.563-3.906l-11.708 6.76v-13.521a10.66 10.66 0 00-10.667-10.667 10.66 10.66 0 00-10.667 10.667v13.521l-11.708-6.76c-5.083-2.906-11.625-1.198-14.563 3.906-2.958 5.104-1.208 11.625 3.896 14.573l11.707 6.76-11.707 6.76c-5.104 2.948-6.854 9.469-3.896 14.573 1.958 3.427 5.563 5.333 9.229 5.333 1.813 0 3.646-.458 5.333-1.427l11.708-6.76v13.521A10.66 10.66 0 00373.333 512a10.662 10.662 0 0010.668-10.667v-13.521l11.708 6.76a10.672 10.672 0 005.333 1.427c3.667 0 7.271-1.906 9.229-5.333 2.958-5.104 1.208-11.625-3.896-14.573l-11.707-6.76 11.707-6.76c5.105-2.948 6.855-9.469 3.897-14.573z" fill="#303C42"/><path d="M429.116 215.9c-18.289-14.716-41.204-23.9-66.449-23.9-8.275 0-16.366 1.224-24.289 3.074-14.939-33.172-41.133-59.332-73.198-74.279C280.576 86.543 314.185 64 352 64c52.938 0 96 43.063 96 96 0 20.092-6.859 39.474-18.884 55.9z" fill="#FFCA28"/><path d="M447.999 298.667c0 47.052-38.271 85.333-85.333 85.333H85.332c-35.292 0-64-28.708-64-64s28.708-64 64-64a10.66 10.66 0 0010.667-10.667 10.66 10.66 0 00-10.667-10.667c-3.02 0-5.879.585-8.819.892C86.318 174.258 139.287 128 202.666 128c49.551 0 94.474 29.395 115.391 73.837-5.147 2.374-10.152 5.087-14.911 8.288-4.875 3.292-6.188 9.917-2.896 14.813 3.313 4.885 9.938 6.146 14.813 2.896 14.083-9.49 30.563-14.5 47.604-14.5 47.061-.001 85.332 38.281 85.332 85.333z" fill="#D8CFFF"/><path opacity=".1" d="M411.055 228.51c2.978 8.674 4.944 17.819 4.944 27.49 0 47.052-38.271 85.333-85.333 85.333H53.332c-11.142 0-21.469-3.116-30.602-8.142C28.832 362.169 54.566 384 85.332 384h277.333c47.063 0 85.334-38.281 85.334-85.333 0-29.078-14.668-54.743-36.944-70.157z" fill="#000"/><path d="M501.333 149.333h-32.54c-2.208-24.352-11.85-46.577-26.686-64.362l23.039-23.023c4.167-4.156 4.167-10.917 0-15.083s-10.917-4.167-15.083 0l-23.04 23.025c-17.786-14.833-40.008-24.474-64.355-26.682v-32.54A10.663 10.663 0 00352 0a10.66 10.66 0 00-10.667 10.667V43.52c-23.988 2.217-46.103 11.703-63.992 26.733l-23.404-23.388c-4.167-4.167-10.917-4.167-15.083 0s-4.167 10.927 0 15.083l23.457 23.441c-6.85 8.303-12.546 17.594-16.995 27.753-13.655-4.128-27.966-6.475-42.65-6.475-76.865 0-140.452 58.292-148.182 133.988C22.674 253.068 0 283.852 0 320c0 47.052 38.271 85.333 85.333 85.333h128v24.189l-30.188-17.428c-5.063-2.906-11.625-1.208-14.563 3.906-2.958 5.104-1.208 11.625 3.896 14.573L202.664 448l-30.185 17.427c-5.104 2.948-6.854 9.469-3.896 14.573 1.958 3.427 5.563 5.333 9.229 5.333 1.813 0 3.646-.458 5.333-1.427l30.188-17.428v34.855A10.66 10.66 0 00224 512a10.66 10.66 0 0010.667-10.667v-34.855l30.188 17.428a10.672 10.672 0 005.333 1.427c3.667 0 7.271-1.906 9.229-5.333 2.958-5.104 1.208-11.625-3.896-14.573L245.336 448l30.185-17.427c5.104-2.948 6.854-9.469 3.896-14.573-2.938-5.125-9.479-6.844-14.563-3.906l-30.188 17.428v-24.189h128c58.813 0 106.667-47.854 106.667-106.667 0-25.836-9.604-49.24-24.947-67.717 13.659-17.685 21.885-38.434 23.945-60.283h33.001a10.66 10.66 0 0010.667-10.667 10.66 10.66 0 00-10.666-10.666zM132.938 448c-2.917-5.125-9.458-6.844-14.563-3.906l-11.708 6.76v-13.521A10.66 10.66 0 0096 426.666a10.66 10.66 0 00-10.667 10.667v13.521l-11.708-6.76C68.563 441.188 62 442.896 59.063 448c-2.958 5.104-1.208 11.625 3.896 14.573l11.707 6.76-11.707 6.76c-5.104 2.948-6.854 9.469-3.896 14.573 1.958 3.427 5.563 5.333 9.229 5.333 1.813 0 3.646-.458 5.333-1.427l11.708-6.76v13.521A10.66 10.66 0 0096 512a10.66 10.66 0 0010.667-10.667v-13.521l11.708 6.76a10.672 10.672 0 005.333 1.427c3.667 0 7.271-1.906 9.229-5.333 2.958-5.104 1.208-11.625-3.896-14.573l-11.707-6.76 11.707-6.76c5.105-2.948 6.855-9.469 3.897-14.573zm277.333 0c-2.938-5.125-9.479-6.844-14.563-3.906L384 450.854v-13.521a10.66 10.66 0 00-10.667-10.667 10.66 10.66 0 00-10.667 10.667v13.521l-11.708-6.76c-5.083-2.906-11.625-1.198-14.563 3.906-2.958 5.104-1.208 11.625 3.896 14.573l11.707 6.76-11.707 6.76c-5.104 2.948-6.854 9.469-3.896 14.573 1.958 3.427 5.563 5.333 9.229 5.333 1.813 0 3.646-.458 5.333-1.427l11.708-6.76v13.521A10.66 10.66 0 00373.332 512 10.662 10.662 0 00384 501.333v-13.521l11.708 6.76a10.672 10.672 0 005.333 1.427c3.667 0 7.271-1.906 9.229-5.333 2.958-5.104 1.208-11.625-3.896-14.573l-11.707-6.76 11.707-6.76c5.105-2.948 6.855-9.469 3.897-14.573z" fill="url(#paint0_linear)"/><path d="M171.003 512c-1.375 0-2.75-.26-4.083-.813a10.658 10.658 0 01-6.375-11.948l32-160a10.636 10.636 0 015.771-7.49 10.7 10.7 0 019.458.042l28.979 14.49 8.979-80.792a10.704 10.704 0 014.854-7.813c2.719-1.74 6.063-2.177 9.125-1.125l64 21.333c5.5 1.823 8.521 7.708 6.823 13.25l-42.667 138.667c-.927 3-3.115 5.438-6 6.667a10.528 10.528 0 01-8.969-.26l-34.24-17.125-58.781 88.167a10.665 10.665 0 01-8.874 4.75z" fill="#303C42"/><path d="M210.719 357.115l-18.688 93.438 34.094-51.135c2.99-4.469 8.833-6.042 13.646-3.625l31.406 15.708 35.896-116.677-41.594-13.865-9.208 82.885a10.683 10.683 0 01-5.51 8.198 10.715 10.715 0 01-9.865.167l-30.177-15.094z" fill="#FFCA28"/><defs><linearGradient id="paint0_linear" x1="58.374" y1="176.038" x2="467.978" y2="367.037" gradientUnits="userSpaceOnUse"><stop stop-color="#fff" stop-opacity=".2"/><stop offset="1" stop-color="#fff" stop-opacity="0"/></linearGradient></defs></svg>