<svg width="80" height="80" viewBox="0 0 80 80" fill="none" xmlns="http://www.w3.org/2000/svg"><path fill-rule="evenodd" clip-rule="evenodd" d="M79.712 44.821c-.131 1.097-1.17 1.828-2.259 1.641-1.089-.186-1.814-1.22-1.689-2.317a36.422 36.422 0 000-8.29c-.125-1.097.6-2.13 1.69-2.317 1.088-.187 2.127.544 2.258 1.641a40.402 40.402 0 010 9.642zm-2.905-20.507c.434 1.016-.102 2.168-1.138 2.55-1.037.382-2.181-.151-2.62-1.165a35.957 35.957 0 00-4.144-7.162c-.66-.887-.55-2.145.299-2.852.848-.707 2.114-.596 2.778.287a39.954 39.954 0 014.825 8.342zM64.027 8.018c.883.664.995 1.93.288 2.778-.707.849-1.965.958-2.852.299a35.962 35.962 0 00-7.162-4.144c-1.014-.439-1.547-1.584-1.165-2.62.382-1.036 1.534-1.572 2.55-1.138a39.958 39.958 0 018.342 4.825zM46.463 2.547c.187-1.089-.544-2.128-1.641-2.26a40.41 40.41 0 00-9.642 0c-1.097.132-1.828 1.171-1.641 2.26.186 1.089 1.22 1.814 2.317 1.689a36.427 36.427 0 018.29 0c1.097.125 2.13-.6 2.317-1.69zm-22.148.646c1.016-.434 2.168.102 2.55 1.138.382 1.036-.151 2.181-1.165 2.62a35.958 35.958 0 00-7.162 4.144c-.887.66-2.145.55-2.852-.299-.707-.848-.596-2.114.287-2.778a39.958 39.958 0 018.342-4.825zM8.018 15.973c.664-.884 1.93-.995 2.778-.288.849.707.958 1.965.299 2.852a35.962 35.962 0 00-4.144 7.162c-.439 1.014-1.584 1.547-2.62 1.165-1.036-.382-1.572-1.534-1.138-2.55a39.958 39.958 0 014.825-8.342zM2.547 33.537c-1.089-.187-2.128.544-2.26 1.641a40.41 40.41 0 000 9.642c.132 1.097 1.171 1.828 2.26 1.641 1.089-.186 1.814-1.22 1.689-2.317a36.427 36.427 0 010-8.29c.125-1.097-.6-2.13-1.69-2.317zm.646 22.148c-.434-1.016.102-2.168 1.138-2.55 1.036-.382 2.181.151 2.62 1.165a35.958 35.958 0 004.144 7.162c.66.887.55 2.145-.299 2.852-.848.707-2.114.596-2.778-.287a39.958 39.958 0 01-4.825-8.342zm12.78 16.296c-.884-.664-.995-1.93-.288-2.778.707-.849 1.965-.958 2.852-.299a35.962 35.962 0 007.162 4.144c1.014.439 1.547 1.583 1.165 2.62-.382 1.037-1.534 1.572-2.55 1.138a39.958 39.958 0 01-8.342-4.825zm19.206 7.73c-1.097-.131-1.828-1.17-1.641-2.259.186-1.089 1.22-1.814 2.317-1.689a36.422 36.422 0 008.29 0c1.097-.125 2.13.6 2.317 1.69.187 1.088-.544 2.127-1.641 2.258a40.402 40.402 0 01-9.642 0zm17.957-4.043c.382 1.037 1.534 1.572 2.55 1.138a39.954 39.954 0 008.342-4.825c.882-.664.994-1.93.287-2.778-.707-.849-1.965-.958-2.852-.299a35.957 35.957 0 01-7.162 4.144c-1.014.439-1.547 1.583-1.165 2.62zm18.846-11.641c-.664.882-1.93.994-2.778.287-.849-.707-.958-1.965-.299-2.852a35.962 35.962 0 004.144-7.162c.439-1.014 1.583-1.547 2.62-1.165 1.037.382 1.572 1.534 1.138 2.55a39.958 39.958 0 01-4.825 8.342z" fill="currentColor"/><path d="M40 25v30M25 40h30" stroke="currentColor" stroke-width="4" stroke-linecap="round" stroke-linejoin="round"/></svg>