<svg width="69" height="69" viewBox="0 0 69 69" fill="none" xmlns="http://www.w3.org/2000/svg"><path d="M25.876 58.938c0-.795-.643-1.438-1.438-1.438-7.106 0-11.237.942-15.5 6.292a1.439 1.439 0 002.25 1.791c3.571-4.483 6.83-5.208 13.25-5.208.795 0 1.438-.643 1.438-1.438zm12.218-2.875c-2.618 0-4.4 1.655-4.595 1.843a1.433 1.433 0 00-.035 2.02c.546.57 1.455.591 2.029.052.01-.011 1.125-1.04 2.6-1.04 1.038 0 2.157 1.099 2.157 2.875 0 2.073-2.473 4.312-6.469 4.312-1.933 0-3.108-.514-4.594-1.165-1.832-.802-3.909-1.71-7.625-1.71-4.05 0-6.752 3.267-6.866 3.406a1.435 1.435 0 00.207 2.015 1.442 1.442 0 002.021-.198c.02-.023 1.974-2.348 4.639-2.348 3.113 0 4.744.713 6.471 1.468 1.58.693 3.213 1.407 5.747 1.407 5.849 0 9.344-3.654 9.344-7.187 0-3.172-2.257-5.75-5.031-5.75zm13.203 2.158c-1.634-.822-3.675-.732-3.954-.718a1.44 1.44 0 00-1.34 1.53c.053.792.732 1.363 1.53 1.34.42-.03 1.12.018 1.742.16a4.972 4.972 0 001.055 5.445c.967.967 2.486 1.217 4.092 1.481 1.335.219 2.847.468 3.5 1.12a1.437 1.437 0 002.454-1.016c0-3.547-1.102-6.685-3.023-8.608-1.642-1.64-4.149-1.875-6.056-.734z" fill="#303C42"/><path d="M54.889 64.621c-.934-.152-2.213-.363-2.527-.676a2.096 2.096 0 010-2.958 2.096 2.096 0 012.958 0c.394.396 1.484 1.675 1.955 4.12-.787-.223-1.61-.358-2.386-.486z" fill="#7CB342"/><path d="M8.625 28.75c0-4.756 3.868-8.625 8.625-8.625a1.437 1.437 0 100-2.875c-.416 0-.81.08-1.214.123 1.263-8.255 8.435-14.498 17.026-14.498 6.678 0 12.733 3.961 15.553 9.95-.694.32-1.369.687-2.01 1.12a1.437 1.437 0 101.606 2.383 11.439 11.439 0 016.414-1.953c6.34 0 11.5 5.159 11.5 11.5 0 6.34-5.16 11.5-11.5 11.5h-3.043a10.096 10.096 0 00-2.857-1.947c-.977-8.652-8.3-15.303-17.1-15.303-6.392 0-12.191 3.57-15.175 9.157-1.14-.324-2.316-.532-3.513-.532-1.496 0-2.91.305-4.248.775-.03-.262-.064-.525-.064-.775z" fill="#D8CFFF"/><path d="M44.562 51.75H12.937c-5.548 0-10.062-4.514-10.062-10.062 0-5.548 4.514-10.063 10.062-10.063 2.312 0 4.485.762 6.286 2.204a1.431 1.431 0 002.02-.223 1.436 1.436 0 00-.223-2.02 12.811 12.811 0 00-1.885-1.247C21.667 25.851 26.41 23 31.625 23c6.934 0 12.73 4.974 14.03 11.61-.363-.04-.718-.11-1.093-.11a1.437 1.437 0 100 2.875c3.963 0 7.188 3.225 7.188 7.188 0 3.963-3.225 7.187-7.188 7.187z" fill="#D8CFFF"/><path opacity=".1" d="M58.329 15.041a11.42 11.42 0 012.046 6.521c0 6.341-5.159 11.5-11.5 11.5h-.642c.2.775.4 1.552.492 2.366a10.094 10.094 0 012.858 1.947h3.042c6.341 0 11.5-5.159 11.5-11.5 0-5.038-3.277-9.282-7.796-10.834zm-9.631 23.662c.11.5.177 1.015.177 1.547 0 3.963-3.224 7.188-7.187 7.188H10.063c-2.543 0-4.84-.98-6.614-2.54 1.348 3.969 5.07 6.852 9.489 6.852h31.625c3.963 0 7.187-3.225 7.187-7.188 0-2.42-1.212-4.556-3.052-5.86z" fill="#000"/><path d="M54.625 11.5c-1.115 0-2.206.165-3.273.414C48.128 4.756 40.968 0 33.062 0c-10.408 0-19.01 7.869-19.984 18.062-4.28 1.676-7.328 5.822-7.328 10.688 0 .663.097 1.347.24 2.06C2.4 33.11 0 37.115 0 41.688c0 7.134 5.803 12.937 12.938 12.937h31.624c5.548 0 10.063-4.515 10.063-10.063 0-1.549-.381-3-1.01-4.312h1.01C62.551 40.25 69 33.8 69 25.875S62.55 11.5 54.625 11.5zM44.562 51.75H12.939c-5.548 0-10.063-4.515-10.063-10.063 0-5.547 4.515-10.062 10.063-10.062 1.261 0 2.475.247 3.617.688.008.004.013.011.021.015.008.003.016.002.023.005.933.366 1.82.852 2.625 1.496a1.438 1.438 0 101.797-2.243 12.802 12.802 0 00-1.884-1.247C21.668 25.851 26.41 23 31.625 23c6.936 0 12.73 4.975 14.03 11.612-.363-.04-.718-.111-1.093-.111a1.437 1.437 0 100 2.875c.804 0 1.564.163 2.286.407l.016.005c2.831.965 4.886 3.622 4.886 6.776a7.195 7.195 0 01-7.188 7.187zm10.063-14.375h-3.043a10.095 10.095 0 00-2.858-1.948c-.974-8.65-8.299-15.302-17.1-15.302-6.391 0-12.19 3.57-15.174 9.157-1.14-.324-2.316-.532-3.512-.532-1.496 0-2.911.306-4.249.775-.03-.262-.064-.526-.064-.775 0-4.756 3.869-8.625 8.625-8.625a1.437 1.437 0 100-2.875c-.416 0-.81.08-1.215.123 1.263-8.255 8.436-14.498 17.027-14.498 6.678 0 12.732 3.961 15.551 9.95a14.38 14.38 0 00-2.01 1.118 1.44 1.44 0 00-.39 1.996c.447.661 1.34.83 1.997.39a11.411 11.411 0 012.85-1.376 11.492 11.492 0 013.565-.578c6.343 0 11.5 5.16 11.5 11.5 0 6.341-5.158 11.5-11.5 11.5z" fill="#303C42"/><path d="M25.875 58.938c0-.795-.643-1.438-1.438-1.438-7.106 0-11.237.942-15.499 6.292a1.439 1.439 0 002.249 1.791c3.571-4.484 6.83-5.208 13.25-5.208.795 0 1.438-.643 1.438-1.438zm12.219-2.876c-2.618 0-4.4 1.656-4.595 1.844a1.433 1.433 0 00-.035 2.02c.546.57 1.454.59 2.029.052.01-.011 1.125-1.04 2.6-1.04 1.038 0 2.157 1.099 2.157 2.874 0 2.074-2.473 4.313-6.469 4.313-1.933 0-3.108-.514-4.594-1.165-1.832-.802-3.909-1.71-7.625-1.71-4.051 0-6.752 3.266-6.866 3.406a1.435 1.435 0 00.207 2.015 1.442 1.442 0 002.021-.198c.02-.023 1.974-2.348 4.639-2.348 3.113 0 4.744.713 6.471 1.468 1.58.692 3.213 1.407 5.747 1.407 5.849 0 9.344-3.654 9.344-7.188 0-3.17-2.257-5.75-5.031-5.75zm13.202 2.159c-1.634-.823-3.674-.732-3.954-.718a1.44 1.44 0 00-1.34 1.53c.053.792.732 1.363 1.53 1.34.42-.03 1.12.018 1.743.16a4.972 4.972 0 001.054 5.445c.968.967 2.486 1.217 4.093 1.48 1.334.22 2.846.468 3.5 1.121a1.437 1.437 0 002.453-1.016c0-3.548-1.102-6.685-3.022-8.608-1.643-1.64-4.15-1.875-6.057-.734zM54.625 11.5c-1.115 0-2.206.165-3.273.414C48.128 4.756 40.968 0 33.062 0c-10.408 0-19.01 7.869-19.984 18.062-4.28 1.676-7.328 5.822-7.328 10.688 0 .663.097 1.347.24 2.06C2.4 33.11 0 37.114 0 41.688c0 7.134 5.803 12.937 12.938 12.937h31.624c5.548 0 10.063-4.515 10.063-10.063 0-1.549-.381-3-1.01-4.312h1.01C62.551 40.25 69 33.8 69 25.875S62.55 11.5 54.625 11.5zM44.562 51.75H12.939c-5.548 0-10.063-4.515-10.063-10.063 0-5.547 4.515-10.062 10.063-10.062 1.261 0 2.475.247 3.617.688.008.004.013.011.021.015.008.003.016.002.023.005.933.366 1.82.852 2.625 1.496a1.438 1.438 0 101.797-2.243 12.802 12.802 0 00-1.884-1.247C21.668 25.851 26.41 23 31.625 23c6.936 0 12.73 4.975 14.03 11.612-.363-.04-.718-.111-1.093-.111a1.437 1.437 0 100 2.875c.804 0 1.564.163 2.286.407l.016.005c2.831.965 4.886 3.622 4.886 6.776a7.195 7.195 0 01-7.188 7.187zm10.063-14.375h-3.043a10.095 10.095 0 00-2.858-1.948c-.974-8.65-8.299-15.302-17.1-15.302-6.391 0-12.19 3.57-15.174 9.157-1.14-.324-2.316-.532-3.512-.532-1.496 0-2.911.306-4.249.775-.03-.262-.064-.526-.064-.775 0-4.756 3.869-8.625 8.625-8.625a1.437 1.437 0 100-2.875c-.416 0-.81.08-1.215.123 1.263-8.255 8.436-14.498 17.027-14.498 6.678 0 12.732 3.961 15.551 9.95a14.38 14.38 0 00-2.01 1.118 1.44 1.44 0 00-.39 1.996c.447.661 1.34.83 1.997.39a11.411 11.411 0 012.85-1.376 11.492 11.492 0 013.565-.578c6.343 0 11.5 5.16 11.5 11.5 0 6.341-5.158 11.5-11.5 11.5z" fill="url(#paint0_linear_103_5)"/><defs><linearGradient id="paint0_linear_103_5" x1="6.278" y1="25.087" x2="67.105" y2="53.451" gradientUnits="userSpaceOnUse"><stop stop-color="#fff" stop-opacity=".2"/><stop offset="1" stop-color="#fff" stop-opacity="0"/></linearGradient></defs></svg>