<svg width="24" height="24" viewBox="0 0 24 24" xmlns="http://www.w3.org/2000/svg"><path d="M22.99 20.635l-1.329-6.384 1.328-6.384c.11-.522-.03-1.175-.447-1.667a2.02 2.02 0 00-.868-.6V2.024A2.025 2.025 0 0019.65 0H3.42A2.025 2.025 0 001.4 2.023v3.562C.403 5.911-.155 6.948.038 7.867l1.328 6.384-1.333 6.41a2.02 2.02 0 001.995 2.356h18.97a2.02 2.02 0 001.991-2.382zM3.421 1.35H19.65c.371 0 .674.302.674.674v3.462H2.747V2.023c0-.372.303-.674.675-.674zm18.092 20.08a.664.664 0 01-.514.239H2.029a.664.664 0 01-.515-.239.664.664 0 01-.153-.535l1.242-5.97h2.149a.674.674 0 100-1.348H2.603l-1.242-5.97a.664.664 0 01.153-.535.664.664 0 01.514-.239h18.97c.202 0 .385.085.515.239.128.15.182.34.153.535l-1.242 5.97h-2.149a.674.674 0 000 1.348h2.149l1.242 5.97a.664.664 0 01-.152.535z"/><path d="M4.77 4.046a.674.674 0 100-1.349.674.674 0 000 1.35zm13.532 0a.674.674 0 100-1.349.674.674 0 000 1.35zm-6.743 8.182A2.7 2.7 0 008.86 9.53a2.702 2.702 0 00-2.544 1.798.674.674 0 101.272.45 1.35 1.35 0 012.62.45 1.35 1.35 0 01-1.348 1.348h-.838a.674.674 0 100 1.348h.838a1.35 1.35 0 011.349 1.349 1.35 1.35 0 01-2.62.45.674.674 0 10-1.273.449A2.702 2.702 0 008.86 18.97a2.7 2.7 0 002.697-2.697 2.69 2.69 0 00-.915-2.023 2.691 2.691 0 00.915-2.023zm4.319-2.618a.674.674 0 00-.692.034l-2.023 1.348a.674.674 0 10.748 1.123l.974-.65v6.832a.674.674 0 001.349 0v-8.092a.675.675 0 00-.356-.595z"/></svg>