<svg width="29" height="29" viewBox="0 0 29 29" fill="none" xmlns="http://www.w3.org/2000/svg"><path d="M28.221 12.614l-.002-.003L16.389.782A2.652 2.652 0 0014.5 0c-.713 0-1.383.278-1.888.782L.787 12.605l-.012.013a2.673 2.673 0 00.005 3.77 2.655 2.655 0 001.855.782h.47v8.705A3.128 3.128 0 006.232 29h4.629a.85.85 0 00.85-.85v-6.825c0-.786.639-1.425 1.425-1.425h2.73c.786 0 1.426.64 1.426 1.425v6.825c0 .47.38.85.85.85h4.628a3.128 3.128 0 003.125-3.125V17.17h.438c.712 0 1.383-.278 1.888-.782a2.674 2.674 0 00.001-3.774zm-1.203 2.572a.965.965 0 01-.687.285h-1.286a.85.85 0 00-.85.85v9.554c0 .786-.64 1.426-1.426 1.426H18.99v-5.976a3.128 3.128 0 00-3.125-3.125h-2.73a3.129 3.129 0 00-3.125 3.125v5.976H6.23c-.785 0-1.425-.64-1.425-1.425V16.32a.85.85 0 00-.85-.85H2.692a.963.963 0 01-.708-.285.972.972 0 010-1.372l11.831-11.83A.963.963 0 0114.5 1.7a.96.96 0 01.686.285L27.014 13.81l.006.005a.973.973 0 01-.002 1.371z"/></svg>