<svg width="42" height="42" viewBox="0 0 42 42" fill="none" xmlns="http://www.w3.org/2000/svg"><path d="M41.488 12.707c-.096-2.174-.447-3.67-.951-4.965a9.987 9.987 0 00-2.367-3.629 10.072 10.072 0 00-3.621-2.358c-1.303-.504-2.79-.856-4.965-.952C27.394.7 26.698.675 21.142.675c-5.557 0-6.252.024-8.435.12-2.174.096-3.67.448-4.964.951a9.985 9.985 0 00-3.63 2.367 10.076 10.076 0 00-2.358 3.622c-.504 1.303-.856 2.79-.952 4.964C.7 14.89.675 15.585.675 21.142c0 5.556.024 6.252.12 8.434.096 2.175.448 3.67.952 4.965a10.092 10.092 0 002.366 3.63 10.071 10.071 0 003.622 2.358c1.303.503 2.79.855 4.965.951 2.182.096 2.878.12 8.434.12 5.556 0 6.252-.024 8.434-.12 2.175-.096 3.67-.447 4.965-.951a10.468 10.468 0 005.988-5.988c.504-1.303.855-2.79.951-4.965.096-2.183.12-2.878.12-8.434 0-5.557-.008-6.252-.104-8.435zm-3.685 16.71c-.088 1.998-.424 3.077-.704 3.797a6.79 6.79 0 01-3.885 3.885c-.72.28-1.807.616-3.798.704-2.158.096-2.806.12-8.266.12s-6.116-.024-8.267-.12c-1.998-.088-3.078-.424-3.797-.704a6.298 6.298 0 01-2.35-1.527 6.363 6.363 0 01-1.528-2.35c-.28-.72-.615-1.807-.703-3.798-.096-2.158-.12-2.806-.12-8.266s.024-6.116.12-8.267c.088-1.998.423-3.078.703-3.797a6.22 6.22 0 011.536-2.35 6.353 6.353 0 012.35-1.528c.72-.28 1.807-.615 3.797-.703 2.159-.096 2.807-.12 8.267-.12 5.468 0 6.116.024 8.266.12 1.999.088 3.078.424 3.798.703a6.292 6.292 0 012.35 1.527 6.35 6.35 0 011.527 2.35c.28.72.616 1.807.704 3.798.096 2.159.12 2.806.12 8.267 0 5.46-.024 6.1-.12 8.258z"/><path d="M21.142 10.629c-5.804 0-10.513 4.708-10.513 10.513 0 5.804 4.709 10.513 10.513 10.513s10.513-4.71 10.513-10.513c0-5.805-4.709-10.513-10.513-10.513zm0 17.332a6.82 6.82 0 010-13.639 6.82 6.82 0 010 13.64zm13.383-17.748a2.455 2.455 0 11-4.909 0 2.455 2.455 0 014.909 0z"/></svg>