<svg width="41" height="41" viewBox="0 0 41 41" fill="none" xmlns="http://www.w3.org/2000/svg"><path d="M10.396 40.855c-2.438-.11-3.762-.517-4.643-.86-1.168-.455-2-.996-2.876-1.87-.876-.876-1.418-1.708-1.87-2.875-.344-.881-.75-2.206-.86-4.644C.023 27.97 0 27.179 0 20.502c0-6.678.027-7.467.145-10.105.11-2.439.52-3.76.86-4.644.455-1.168.997-2 1.87-2.877.876-.875 1.708-1.419 2.876-1.87.881-.344 2.206-.75 4.644-.861C13.032.025 13.825 0 20.5 0c6.678 0 7.468.027 10.106.145 2.438.11 3.76.52 4.643.86 1.168.452 2 .996 2.876 1.87.876.876 1.416 1.71 1.87 2.876.344.881.75 2.206.861 4.644.12 2.638.145 3.428.145 10.106 0 6.675-.024 7.467-.145 10.105-.11 2.438-.52 3.763-.86 4.644-.455 1.167-.996 2-1.87 2.874-.876.875-1.71 1.416-2.877 1.87-.88.344-2.205.75-4.643.861-2.636.12-3.428.145-10.106.145-6.675 0-7.467-.023-10.102-.145z" fill="url(#paint0_radial)"/><path d="M10.396 40.855c-2.438-.11-3.762-.517-4.643-.86-1.168-.455-2-.996-2.876-1.87-.876-.876-1.418-1.708-1.87-2.875-.344-.881-.75-2.206-.86-4.644C.023 27.97 0 27.179 0 20.502c0-6.678.027-7.467.145-10.105.11-2.439.52-3.76.86-4.644.455-1.168.997-2 1.87-2.877.876-.875 1.708-1.419 2.876-1.87.881-.344 2.206-.75 4.644-.861C13.032.025 13.825 0 20.5 0c6.678 0 7.468.027 10.106.145 2.438.11 3.76.52 4.643.86 1.168.452 2 .996 2.876 1.87.876.876 1.416 1.71 1.87 2.876.344.881.75 2.206.861 4.644.12 2.638.145 3.428.145 10.106 0 6.675-.024 7.467-.145 10.105-.11 2.438-.52 3.763-.86 4.644-.455 1.167-.996 2-1.87 2.874-.876.875-1.71 1.416-2.877 1.87-.88.344-2.205.75-4.643.861-2.636.12-3.428.145-10.106.145-6.675 0-7.467-.023-10.102-.145z" fill="url(#paint1_radial)"/><path d="M15.466 20.587a5.077 5.077 0 115.077 5.078 5.077 5.077 0 01-5.077-5.078zm-2.745 0a7.821 7.821 0 1015.643 0 7.821 7.821 0 00-15.643 0zm14.125-8.131a1.828 1.828 0 101.828-1.827 1.828 1.828 0 00-1.828 1.827zm-12.457 20.53c-1.485-.068-2.292-.315-2.829-.524a4.734 4.734 0 01-1.751-1.14 4.699 4.699 0 01-1.14-1.75c-.209-.537-.456-1.344-.524-2.829-.074-1.605-.088-2.088-.088-6.155 0-4.068.016-4.549.088-6.156.068-1.485.317-2.29.524-2.828a4.734 4.734 0 011.14-1.752 4.695 4.695 0 011.752-1.14c.536-.209 1.343-.456 2.828-.524 1.606-.074 2.088-.088 6.154-.088s4.548.015 6.155.089c1.485.067 2.291.316 2.829.524a4.72 4.72 0 011.752 1.139c.533.533.862 1.04 1.139 1.752.21.536.456 1.343.524 2.828.074 1.607.089 2.088.089 6.156 0 4.067-.015 4.548-.089 6.155-.068 1.485-.316 2.293-.524 2.829a4.719 4.719 0 01-1.14 1.75 4.735 4.735 0 01-1.751 1.14c-.536.21-1.344.456-2.829.524-1.605.074-2.088.089-6.155.089-4.068 0-4.549-.015-6.154-.089zm-.126-27.538c-1.621.074-2.73.33-3.697.707a7.476 7.476 0 00-2.698 1.757 7.437 7.437 0 00-1.757 2.699c-.377.968-.634 2.075-.708 3.697-.075 1.624-.092 2.143-.092 6.28 0 4.136.017 4.655.092 6.28.074 1.62.331 2.728.708 3.696a7.446 7.446 0 001.757 2.699 7.484 7.484 0 002.698 1.756c.97.377 2.075.634 3.697.708 1.625.074 2.143.092 6.28.092 4.136 0 4.655-.017 6.28-.092 1.621-.074 2.728-.331 3.697-.708a7.492 7.492 0 002.698-1.756 7.461 7.461 0 001.757-2.699c.376-.968.634-2.075.707-3.697.074-1.625.091-2.143.091-6.28 0-4.136-.017-4.655-.09-6.28-.075-1.621-.332-2.729-.708-3.697a7.49 7.49 0 00-1.757-2.698 7.453 7.453 0 00-2.697-1.757c-.97-.376-2.077-.634-3.697-.707-1.625-.074-2.144-.092-6.28-.092-4.135 0-4.655.017-6.28.092" fill="#fff"/><defs><radialGradient id="paint0_radial" cx="0" cy="0" r="1" gradientUnits="userSpaceOnUse" gradientTransform="translate(2.653 40.102) scale(52.0548)"><stop offset=".09" stop-color="#FA8F21"/><stop offset=".78" stop-color="#D82D7E"/></radialGradient><radialGradient id="paint1_radial" cx="0" cy="0" r="1" gradientUnits="userSpaceOnUse" gradientTransform="translate(28.4 38.785) scale(45.8087)"><stop offset=".64" stop-color="#8C3AAA" stop-opacity="0"/><stop offset="1" stop-color="#8C3AAA"/></radialGradient></defs></svg>