<svg width="27" height="26" viewBox="0 0 27 26" fill="none" xmlns="http://www.w3.org/2000/svg"><path d="M14.882.193a.85.85 0 00-.694-.179L.688 2.545A.841.841 0 000 3.374v18.563c0 .404.289.754.689.828l13.5 2.531a.843.843 0 00.999-.829V.844a.842.842 0 00-.306-.65zM13.5 23.45L1.687 21.236V4.074L13.5 1.86v21.59z"/><path d="M7.594 8.437c-2.326 0-4.219 2.27-4.219 5.062 0 2.791 1.893 5.062 4.219 5.062 2.325 0 4.218-2.27 4.218-5.062 0-2.791-1.893-5.062-4.218-5.062zm0 8.437c-1.396 0-2.532-1.514-2.532-3.375s1.136-3.375 2.532-3.375c1.395 0 2.531 1.514 2.531 3.375s-1.136 3.375-2.531 3.375zM26.156 5.062H14.344a.844.844 0 000 1.687h10.969v11.813h-10.97a.844.844 0 000 1.687h11.813a.844.844 0 00.844-.844v-13.5a.844.844 0 00-.844-.843z"/><path d="M26.821 5.385a.84.84 0 00-1.183-.147l-7.126 5.542-3.716-2.364a.845.845 0 00-.906 1.424l4.219 2.683a.849.849 0 00.453.132.827.827 0 00.517-.179l7.594-5.906a.842.842 0 00.148-1.185z"/></svg>