<svg width="31" height="31" viewBox="0 0 31 31" fill="none" xmlns="http://www.w3.org/2000/svg"><path d="M25.255 19.416a2.175 2.175 0 00.434 2.4l.08.079a2.637 2.637 0 11-3.73 3.73l-.08-.079a2.176 2.176 0 00-2.399-.435 2.175 2.175 0 00-1.318 1.99v.225a2.636 2.636 0 11-5.273 0v-.12a2.175 2.175 0 00-1.423-1.99 2.174 2.174 0 00-2.4.435l-.079.08A2.637 2.637 0 115.337 22l.079-.08a2.175 2.175 0 00.435-2.4 2.175 2.175 0 00-1.99-1.317h-.225a2.636 2.636 0 110-5.273h.119a2.175 2.175 0 001.99-1.424 2.175 2.175 0 00-.435-2.399l-.079-.079a2.636 2.636 0 011.866-4.503 2.636 2.636 0 011.865.773l.079.079a2.175 2.175 0 002.399.435h.106a2.176 2.176 0 001.318-1.99v-.225a2.636 2.636 0 015.272 0v.119a2.174 2.174 0 001.319 1.99 2.175 2.175 0 002.399-.435l.079-.079a2.637 2.637 0 014.302 2.875c-.132.32-.327.61-.572.856l-.079.079a2.175 2.175 0 00-.435 2.399v.105a2.175 2.175 0 001.99 1.319h.225a2.636 2.636 0 110 5.272h-.119a2.175 2.175 0 00-1.99 1.319z"/><path d="M15.5 19.416a3.955 3.955 0 100-7.909 3.955 3.955 0 000 7.91z"/></svg>