<svg width="29" height="29" viewBox="0 0 29 29" fill="none" xmlns="http://www.w3.org/2000/svg"><path d="M10.6.197H2.797a2.603 2.603 0 00-2.6 2.6V10.6c0 1.434 1.165 2.6 2.6 2.6h7.801c1.434 0 2.6-1.165 2.6-2.6V2.798c0-1.434-1.166-2.6-2.6-2.6zM11.9 10.6c0 .717-.584 1.3-1.3 1.3H2.797c-.717 0-1.3-.583-1.3-1.3V2.798c0-.717.583-1.3 1.3-1.3h7.801c.717 0 1.3.583 1.3 1.3v7.801z"/><path fill-rule="evenodd" clip-rule="evenodd" d="M2.798 0h7.801a2.8 2.8 0 012.798 2.798v7.801a2.8 2.8 0 01-2.798 2.798H2.798A2.8 2.8 0 010 10.599V2.798A2.8 2.8 0 012.798 0zm7.801 11.702c.608 0 1.103-.495 1.103-1.103V2.798c0-.608-.495-1.103-1.103-1.103H2.798c-.608 0-1.103.495-1.103 1.103v7.801c0 .608.495 1.103 1.103 1.103h7.801zM2.798.197h7.801c1.434 0 2.6 1.167 2.6 2.6V10.6c0 1.434-1.166 2.6-2.6 2.6H2.798a2.603 2.603 0 01-2.6-2.6V2.798c0-1.434 1.166-2.6 2.6-2.6zM10.599 11.9c.717 0 1.3-.584 1.3-1.3V2.797c0-.717-.583-1.3-1.3-1.3H2.798c-.717 0-1.3.583-1.3 1.3v7.801c0 .717.583 1.3 1.3 1.3h7.801z" fill="#222"/><path d="M26.202.197h-7.801a2.603 2.603 0 00-2.6 2.6V10.6c0 1.434 1.165 2.6 2.6 2.6h7.801c1.434 0 2.6-1.165 2.6-2.6V2.798c0-1.434-1.166-2.6-2.6-2.6zm1.3 10.402c0 .717-.583 1.3-1.3 1.3h-7.801c-.717 0-1.3-.583-1.3-1.3V2.798c0-.717.583-1.3 1.3-1.3h7.801c.717 0 1.3.583 1.3 1.3v7.801z"/><path clip-rule="evenodd" d="M18.4 0h7.802A2.8 2.8 0 0129 2.798v7.801a2.8 2.8 0 01-2.798 2.798h-7.801a2.8 2.8 0 01-2.798-2.798V2.798A2.8 2.8 0 0118.4 0zm7.802 11.702c.608 0 1.103-.495 1.103-1.103V2.798c0-.608-.495-1.103-1.103-1.103h-7.801c-.608 0-1.103.495-1.103 1.103v7.801c0 .608.495 1.103 1.103 1.103h7.801zM18.401.197h7.801c1.434 0 2.6 1.167 2.6 2.6V10.6c0 1.434-1.166 2.6-2.6 2.6h-7.801a2.603 2.603 0 01-2.6-2.6V2.798c0-1.434 1.165-2.6 2.6-2.6zM26.202 11.9c.717 0 1.3-.584 1.3-1.3V2.797c0-.717-.583-1.3-1.3-1.3h-7.801c-.717 0-1.3.583-1.3 1.3v7.801c0 .717.583 1.3 1.3 1.3h7.801z"/><path d="M10.6 15.8H2.797a2.603 2.603 0 00-2.6 2.6v7.802c0 1.434 1.165 2.6 2.6 2.6h7.801c1.434 0 2.6-1.165 2.6-2.6v-7.801c0-1.434-1.166-2.6-2.6-2.6zm1.3 10.402c0 .717-.584 1.3-1.3 1.3H2.797c-.717 0-1.3-.583-1.3-1.3v-7.801c0-.717.583-1.3 1.3-1.3h7.801c.717 0 1.3.583 1.3 1.3v7.801z"/><path clip-rule="evenodd" d="M2.798 15.603h7.801a2.8 2.8 0 012.798 2.798v7.801A2.8 2.8 0 0110.599 29H2.798A2.8 2.8 0 010 26.202v-7.801a2.8 2.8 0 012.798-2.798zm7.801 11.702c.608 0 1.103-.495 1.103-1.103v-7.801c0-.608-.495-1.103-1.103-1.103H2.798c-.608 0-1.103.495-1.103 1.103v7.801c0 .608.495 1.103 1.103 1.103h7.801zM2.798 15.8h7.801c1.434 0 2.6 1.166 2.6 2.6v7.802c0 1.434-1.166 2.6-2.6 2.6H2.798a2.603 2.603 0 01-2.6-2.6v-7.801c0-1.435 1.166-2.6 2.6-2.6zm7.801 11.702c.717 0 1.3-.583 1.3-1.3v-7.801c0-.717-.583-1.3-1.3-1.3H2.798c-.717 0-1.3.583-1.3 1.3v7.801c0 .717.583 1.3 1.3 1.3h7.801z"/><path d="M25.552 21.651h-2.6v-2.6a.65.65 0 10-1.3 0v2.6H19.05a.65.65 0 100 1.3h2.6v2.601a.65.65 0 101.3 0v-2.6h2.601a.65.65 0 100-1.3z"/><path clip-rule="evenodd" d="M23.149 21.454h2.403a.847.847 0 110 1.695h-2.403v2.403a.847.847 0 11-1.695 0v-2.403h-2.403a.847.847 0 110-1.695h2.403v-2.403a.847.847 0 111.695 0v2.403zm2.403.197a.65.65 0 110 1.3h-2.6v2.601a.65.65 0 11-1.3 0v-2.6H19.05a.65.65 0 110-1.3h2.6V19.05a.65.65 0 111.3 0v2.6h2.601z"/></svg>