<svg width="78" height="78" viewBox="0 0 78 78" fill="none" xmlns="http://www.w3.org/2000/svg"><path d="M76.375 22.75h-4.957a17.787 17.787 0 00-4.066-9.805l3.51-3.508a1.624 1.624 0 10-2.298-2.297l-3.51 3.507a17.79 17.79 0 00-9.804-4.065V1.625a1.624 1.624 0 10-3.25 0V6.63a17.635 17.635 0 00-9.749 4.073L38.686 7.14a1.624 1.624 0 10-2.298 2.297l3.573 3.572a17.91 17.91 0 00-2.589 4.227 22.43 22.43 0 00-6.497-.986c-11.71 0-21.397 8.88-22.575 20.412C3.454 38.553 0 43.243 0 48.75c0 7.168 5.83 13 13 13h20.027c-1.549 2.96-3.777 7.593-3.777 9.75 0 3.585 2.917 6.5 6.5 6.5s6.5-2.915 6.5-6.5c0-2.157-2.228-6.79-3.777-9.75h8.94c-.971 1.659-1.913 3.594-1.913 4.875a4.88 4.88 0 004.875 4.875 4.88 4.88 0 004.875-4.875c0-1.28-.942-3.216-1.912-4.875h1.912c8.96 0 16.25-7.29 16.25-16.25 0-3.936-1.463-7.502-3.8-10.316 2.08-2.695 3.334-5.855 3.647-9.184h5.028a1.624 1.624 0 100-3.25z" fill="#303C42"/><path d="M35.75 74.75a3.253 3.253 0 01-3.25-3.25c0-1.104 1.51-4.567 3.25-7.942C37.49 66.933 39 70.395 39 71.5a3.253 3.253 0 01-3.25 3.25zm14.625-6.5a1.627 1.627 0 01-1.625-1.623c.013-.497.689-1.912 1.625-3.49.936 1.574 1.61 2.99 1.625 3.488 0 .897-.73 1.625-1.625 1.625z" fill="#BBDEFB"/><path d="M65.373 32.891c-2.786-2.242-6.277-3.641-10.123-3.641-1.26 0-2.493.186-3.7.468a22.812 22.812 0 00-11.151-11.316c2.345-5.218 7.465-8.652 13.226-8.652 8.065 0 14.625 6.56 14.625 14.625 0 3.06-1.045 6.014-2.877 8.516z" fill="#FFCA28"/><path d="M19.789 65.701c-1.063 1.541-3.539 5.347-3.539 7.424A4.88 4.88 0 0021.125 78 4.88 4.88 0 0026 73.125c0-2.077-2.476-5.883-3.539-7.424-.603-.879-2.07-.879-2.672 0z" fill="#303C42"/><path d="M21.125 74.75a1.627 1.627 0 01-1.625-1.623c.013-.497.689-1.912 1.625-3.49.936 1.574 1.61 2.99 1.625 3.488 0 .897-.73 1.625-1.625 1.625z" fill="#BBDEFB"/><path d="M68.25 45.5c0 7.168-5.83 13-13 13H13c-5.377 0-9.75-4.373-9.75-9.75S7.623 39 13 39a1.624 1.624 0 100-3.25c-.46 0-.896.089-1.344.136C13.15 26.547 21.22 19.5 30.876 19.5c7.548 0 14.392 4.478 17.578 11.249-.784.361-1.546.775-2.272 1.262a1.628 1.628 0 00-.44 2.257 1.633 1.633 0 002.256.441A12.935 12.935 0 0155.25 32.5c7.17 0 13 5.832 13 13z" fill="#D8CFFF"/><path opacity=".1" d="M62.622 34.812c.453 1.322.753 2.715.753 4.188 0 7.168-5.83 13-13 13H8.125c-1.697 0-3.27-.475-4.662-1.24.93 4.414 4.85 7.74 9.537 7.74h42.25c7.17 0 13-5.832 13-13 0-4.43-2.235-8.34-5.628-10.688z" fill="#000"/><path d="M76.375 22.75h-4.957a17.787 17.787 0 00-4.066-9.805l3.51-3.508a1.624 1.624 0 10-2.298-2.297l-3.51 3.507a17.79 17.79 0 00-9.804-4.065V1.625a1.624 1.624 0 10-3.25 0V6.63a17.635 17.635 0 00-9.749 4.073L38.686 7.14a1.624 1.624 0 10-2.298 2.297l3.573 3.572a17.91 17.91 0 00-2.589 4.227 22.43 22.43 0 00-6.497-.986c-11.71 0-21.397 8.88-22.575 20.412C3.454 38.553 0 43.243 0 48.75c0 7.168 5.83 13 13 13h20.027c-1.549 2.96-3.777 7.593-3.777 9.75 0 3.585 2.917 6.5 6.5 6.5s6.5-2.915 6.5-6.5c0-2.157-2.228-6.79-3.777-9.75h8.94c-.971 1.659-1.913 3.594-1.913 4.875a4.88 4.88 0 004.875 4.875 4.88 4.88 0 004.875-4.875c0-1.28-.942-3.216-1.912-4.875h1.912c8.96 0 16.25-7.29 16.25-16.25 0-3.936-1.463-7.502-3.8-10.316 2.08-2.695 3.334-5.855 3.647-9.184h5.028a1.624 1.624 0 100-3.25zM19.789 65.7c-1.063 1.541-3.539 5.347-3.539 7.424A4.88 4.88 0 0021.125 78 4.88 4.88 0 0026 73.125c0-2.077-2.476-5.883-3.539-7.424-.603-.879-2.07-.879-2.672 0z" fill="url(#paint0_linear_103_3)"/><defs><linearGradient id="paint0_linear_103_3" x1="9.409" y1="25.711" x2="69.371" y2="53.671" gradientUnits="userSpaceOnUse"><stop stop-color="#fff" stop-opacity=".2"/><stop offset="1" stop-color="#fff" stop-opacity="0"/></linearGradient></defs></svg>