<svg width="144" height="117" viewBox="0 0 144 117" fill="none" xmlns="http://www.w3.org/2000/svg"><path d="M140.28 87.75c-8.035 0-13.79.356-18.385.883 1.926-4.99 2.988-10.185 3.289-15.508h15.096c1.65 0 2.985-1.308 2.985-2.925 0-1.617-1.335-2.925-2.985-2.925h-15.074c-.695-12.31-5.701-23.483-13.591-32.12l10.67-10.458a2.882 2.882 0 000-4.136 3.026 3.026 0 00-4.22 0L107.394 31.02c-8.812-7.734-20.214-12.64-32.777-13.322V2.925C74.617 1.308 73.282 0 71.633 0c-1.65 0-2.985 1.308-2.985 2.925v14.773c-12.562.681-23.965 5.588-32.777 13.322L25.2 20.56a3.027 3.027 0 00-4.22 0 2.883 2.883 0 000 4.137l10.67 10.459c-7.89 8.637-12.896 19.81-13.592 32.119H2.985C1.335 67.275 0 68.583 0 70.2c0 1.617 1.335 2.925 2.985 2.925H18.08c.301 5.323 1.364 10.518 3.29 15.508-4.596-.527-10.35-.883-18.386-.883C1.335 87.75 0 89.058 0 90.675 0 92.29 1.335 93.6 2.985 93.6c16.09 0 22.455 1.388 29.2 2.856 6.762 1.471 13.751 2.994 30.493 2.994h17.909c16.742 0 23.732-1.523 30.494-2.994 6.744-1.468 13.11-2.856 29.199-2.856 1.65 0 2.985-1.308 2.985-2.925 0-1.617-1.335-2.925-2.985-2.925z" fill="#303C42"/><path d="M109.787 90.743c-6.745 1.469-13.11 2.857-29.2 2.857H62.68c-16.09 0-22.455-1.389-29.2-2.857a186.1 186.1 0 00-5.15-1.066c-2.912-6.174-4.451-12.708-4.451-19.477 0-25.805 21.423-46.8 47.755-46.8 26.332 0 47.755 20.995 47.755 46.8 0 6.77-1.539 13.305-4.452 19.478a184.28 184.28 0 00-5.149 1.065z" fill="#FFCA28"/><path d="M81.461 86.893a3.007 3.007 0 002.11.857c.764 0 1.528-.286 2.11-.857a2.882 2.882 0 000-4.136L73.748 71.061a3.04 3.04 0 00-4.228 0L57.583 82.757a2.882 2.882 0 000 4.136 3.026 3.026 0 004.22 0l6.845-6.707v33.889c0 1.617 1.335 2.925 2.984 2.925 1.65 0 2.985-1.308 2.985-2.925V80.186l6.844 6.707z" fill="#303C42"/><path d="M140.28 87.75c-8.035 0-13.79.356-18.385.883 1.926-4.99 2.988-10.185 3.289-15.508h15.096c1.65 0 2.985-1.308 2.985-2.925 0-1.617-1.335-2.925-2.985-2.925h-15.074c-.695-12.31-5.701-23.483-13.591-32.12l10.67-10.458a2.882 2.882 0 000-4.136 3.026 3.026 0 00-4.22 0L107.394 31.02c-8.812-7.734-20.214-12.64-32.777-13.322V2.925C74.617 1.308 73.282 0 71.633 0c-1.65 0-2.985 1.308-2.985 2.925v14.773c-12.562.681-23.965 5.588-32.777 13.322L25.2 20.56a3.027 3.027 0 00-4.22 0 2.883 2.883 0 000 4.137l10.67 10.459c-7.89 8.637-12.896 19.81-13.592 32.119H2.985C1.335 67.275 0 68.583 0 70.2c0 1.617 1.335 2.925 2.985 2.925H18.08c.301 5.323 1.364 10.518 3.29 15.508-4.596-.527-10.35-.883-18.386-.883C1.335 87.75 0 89.058 0 90.675 0 92.29 1.335 93.6 2.985 93.6c16.09 0 22.455 1.388 29.2 2.856 6.762 1.471 13.751 2.994 30.493 2.994h5.97v14.625c0 1.617 1.335 2.925 2.985 2.925s2.984-1.308 2.984-2.925V99.45h5.97c16.742 0 23.732-1.523 30.494-2.994 6.744-1.468 13.11-2.856 29.199-2.856 1.65 0 2.985-1.308 2.985-2.925 0-1.617-1.335-2.925-2.985-2.925z" fill="url(#paint0_linear)"/><defs><linearGradient id="paint0_linear" x1="13.962" y1="34.897" x2="141.289" y2="95.485" gradientUnits="userSpaceOnUse"><stop stop-color="#fff" stop-opacity=".2"/><stop offset="1" stop-color="#fff" stop-opacity="0"/></linearGradient></defs></svg>