<svg width="144" height="132" viewBox="0 0 144 132" fill="none" xmlns="http://www.w3.org/2000/svg"><path d="M140.285 89.544c-8.036 0-13.79.363-18.386.901 1.926-5.092 2.988-10.393 3.289-15.825h15.097a2.983 2.983 0 002.985-2.985 2.983 2.983 0 00-2.985-2.985H125.21c-.695-12.56-5.701-23.963-13.591-32.776l10.67-10.673a2.984 2.984 0 10-4.221-4.22l-10.67 10.672C98.585 23.762 87.183 18.755 74.62 18.06V2.985A2.983 2.983 0 0071.635 0a2.983 2.983 0 00-2.985 2.985V18.06c-12.563.695-23.965 5.702-32.778 13.594L25.202 20.98a2.983 2.983 0 10-4.22 4.22l10.67 10.674C23.762 44.688 18.756 56.09 18.06 68.65H2.985A2.983 2.983 0 000 71.635a2.983 2.983 0 002.985 2.985h15.097c.301 5.431 1.363 10.733 3.289 15.825-4.595-.538-10.35-.901-18.386-.901A2.983 2.983 0 000 92.529a2.983 2.983 0 002.985 2.984c16.09 0 22.456 1.417 29.2 2.915 6.763 1.501 13.753 3.055 30.496 3.055h17.908c16.743 0 23.733-1.554 30.495-3.055 6.745-1.498 13.111-2.915 29.201-2.915a2.983 2.983 0 002.985-2.985 2.983 2.983 0 00-2.985-2.984z" fill="#303C42"/><path d="M109.79 92.599c-6.745 1.498-13.11 2.915-29.2 2.915H62.68c-16.09 0-22.455-1.417-29.2-2.915a179.272 179.272 0 00-5.151-1.088c-2.912-6.3-4.45-12.968-4.45-19.876 0-26.333 21.424-47.757 47.756-47.757 26.333 0 47.757 21.425 47.757 47.757 0 6.909-1.539 13.577-4.452 19.876-1.822.35-3.495.72-5.15 1.088z" fill="#FFCA28"/><path d="M85.685 114.297a2.983 2.983 0 00-4.22 0l-6.845 6.844V86.559a2.983 2.983 0 00-2.985-2.985 2.983 2.983 0 00-2.985 2.985v34.582l-6.844-6.844a2.983 2.983 0 10-4.22 4.22l11.94 11.94a2.979 2.979 0 002.11.874 2.98 2.98 0 002.11-.874l11.94-11.94a2.983 2.983 0 00-.001-4.22z" fill="#303C42"/><path d="M140.285 89.544c-8.036 0-13.79.363-18.386.901 1.926-5.092 2.988-10.393 3.289-15.825h15.097a2.983 2.983 0 002.985-2.985 2.983 2.983 0 00-2.985-2.985H125.21c-.695-12.56-5.701-23.963-13.591-32.776l10.67-10.673a2.984 2.984 0 10-4.221-4.22l-10.67 10.672C98.585 23.762 87.183 18.755 74.62 18.06V2.985A2.983 2.983 0 0071.635 0a2.983 2.983 0 00-2.985 2.985V18.06c-12.563.695-23.965 5.702-32.778 13.594L25.202 20.98a2.983 2.983 0 10-4.22 4.22l10.67 10.674C23.762 44.688 18.756 56.09 18.06 68.65H2.985A2.983 2.983 0 000 71.635a2.983 2.983 0 002.985 2.985h15.097c.301 5.431 1.363 10.733 3.289 15.825-4.595-.538-10.35-.901-18.386-.901A2.983 2.983 0 000 92.529a2.983 2.983 0 002.985 2.984c16.09 0 22.456 1.417 29.2 2.915 6.763 1.501 13.753 3.055 30.496 3.055h5.97v19.658l-6.845-6.844a2.983 2.983 0 10-4.22 4.22l11.939 11.94a2.979 2.979 0 002.11.874 2.98 2.98 0 002.11-.874l11.94-11.94a2.983 2.983 0 10-4.22-4.22l-6.845 6.844v-19.658h5.97c16.742 0 23.732-1.554 30.494-3.055 6.745-1.498 13.111-2.915 29.201-2.915a2.983 2.983 0 002.985-2.985 2.983 2.983 0 00-2.985-2.984z" fill="url(#paint0_linear)"/><defs><linearGradient id="paint0_linear" x1="13.235" y1="37.172" x2="141.503" y2="96.988" gradientUnits="userSpaceOnUse"><stop stop-color="#fff" stop-opacity=".2"/><stop offset="1" stop-color="#fff" stop-opacity="0"/></linearGradient></defs></svg>