<svg width="41" height="41" viewBox="0 0 41 41" fill="none" xmlns="http://www.w3.org/2000/svg"><path fill-rule="evenodd" clip-rule="evenodd" d="M20.5 41C31.822 41 41 31.822 41 20.5S31.822 0 20.5 0 0 9.178 0 20.5 9.178 41 20.5 41zm8.91-26.821a9.747 9.747 0 002.747-.735 9.596 9.596 0 01-2.387 2.416c.01.2.014.402.014.604 0 6.168-4.811 13.281-13.609 13.281-2.701 0-5.215-.773-7.332-2.097a9.99 9.99 0 001.141.065 9.747 9.747 0 005.94-1.998c-2.092-.038-3.859-1.387-4.468-3.242a4.903 4.903 0 002.16-.08c-2.188-.429-3.836-2.315-3.836-4.577v-.059c.664.36 1.407.561 2.166.584-1.283-.837-2.127-2.265-2.127-3.885 0-.855.235-1.657.647-2.347a13.693 13.693 0 009.859 4.877 4.581 4.581 0 01-.124-1.063c0-2.578 2.142-4.668 4.783-4.668 1.376 0 2.619.567 3.491 1.474a9.724 9.724 0 003.038-1.133 4.704 4.704 0 01-2.103 2.583z" fill="#55ACEE"/></svg>