<svg width="38" height="32" viewBox="0 0 38 32" fill="none" xmlns="http://www.w3.org/2000/svg"><path d="M13.373 4.358c.6 0 1.086-.486 1.086-1.086V1.086a1.086 1.086 0 00-2.172 0v2.186c0 .6.487 1.086 1.086 1.086zm-9.85 3.975L1.629 7.24A1.086 1.086 0 10.543 9.12l1.894 1.094a1.086 1.086 0 101.086-1.881zM2.437 20.335L.543 21.428a1.086 1.086 0 001.086 1.88l1.894-1.093a1.086 1.086 0 10-1.086-1.88zM24.31 10.214l1.894-1.094a1.086 1.086 0 10-1.086-1.88l-1.893 1.093a1.086 1.086 0 001.085 1.88zm4.567 6.602a8.163 8.163 0 00-7.576-5.089c-1.359-3.026-4.4-5.14-7.928-5.14-4.79 0-8.686 3.897-8.686 8.687a8.687 8.687 0 004.02 7.322c-2.576 4.068.352 9.4 5.168 9.4 17.085-.018 16.15.044 16.448-.048a7.601 7.601 0 006.74-7.553c0-4.46-3.81-7.922-8.186-7.58zM6.858 15.274a6.522 6.522 0 016.515-6.515c2.423 0 4.54 1.33 5.662 3.297a8.144 8.144 0 00-5.852 7.732 6.014 6.014 0 00-2.971 1.18 6.52 6.52 0 01-3.354-5.694zm23.054 14.532c-.387.031-10.24.013-16.037.019-3.58 0-5.325-4.439-2.66-6.871a3.908 3.908 0 013.024-1.014c.7.064 1.27-.542 1.173-1.232-.503-3.592 2.28-6.81 5.914-6.81a5.982 5.982 0 015.763 4.402c.15.554.706.895 1.268.779 3.384-.7 6.535 1.887 6.535 5.316 0 2.806-2.188 5.183-4.98 5.41z"/></svg>