<svg width="75" height="75" viewBox="0 0 75 75" fill="none" xmlns="http://www.w3.org/2000/svg"><path d="M73.437 35.937h-7.891A27.969 27.969 0 0058.43 18.78l5.586-5.586a1.562 1.562 0 10-2.209-2.21L56.22 16.57a27.967 27.967 0 00-17.158-7.116V1.563a1.562 1.562 0 10-3.125 0v7.891A27.97 27.97 0 0018.78 16.57l-5.586-5.587a1.562 1.562 0 10-2.21 2.21l5.587 5.586a27.968 27.968 0 00-7.116 17.158H1.563a1.562 1.562 0 100 3.125h7.891A27.97 27.97 0 0016.57 56.22l-5.587 5.587a1.562 1.562 0 102.21 2.21l5.586-5.587a27.968 27.968 0 0017.158 7.116v7.891a1.562 1.562 0 103.126 0v-7.891A27.969 27.969 0 0056.22 58.43l5.587 5.586a1.558 1.558 0 002.21 0c.61-.61.61-1.599 0-2.209L58.43 56.22a27.968 27.968 0 007.116-17.158h7.891a1.562 1.562 0 100-3.125z" fill="#303C42"/><path d="M37.5 62.5c13.807 0 25-11.193 25-25s-11.193-25-25-25-25 11.193-25 25 11.193 25 25 25z" fill="#FFCA28"/><path d="M73.437 35.937h-7.891A27.969 27.969 0 0058.43 18.78l5.586-5.586a1.562 1.562 0 10-2.209-2.21L56.22 16.57a27.967 27.967 0 00-17.158-7.116V1.563a1.562 1.562 0 10-3.125 0v7.891A27.97 27.97 0 0018.78 16.57l-5.586-5.587a1.562 1.562 0 10-2.21 2.21l5.587 5.586a27.968 27.968 0 00-7.116 17.158H1.563a1.562 1.562 0 100 3.125h7.891A27.97 27.97 0 0016.57 56.22l-5.587 5.587a1.562 1.562 0 102.21 2.21l5.586-5.587a27.968 27.968 0 0017.158 7.116v7.891a1.562 1.562 0 103.126 0v-7.891A27.969 27.969 0 0056.22 58.43l5.587 5.586a1.558 1.558 0 002.21 0c.61-.61.61-1.599 0-2.209L58.43 56.22a27.968 27.968 0 007.116-17.158h7.891a1.562 1.562 0 100-3.125z" fill="url(#paint0_linear_103_4)"/><defs><linearGradient id="paint0_linear_103_4" x1="5.477" y1="22.571" x2="69.523" y2="52.435" gradientUnits="userSpaceOnUse"><stop stop-color="#fff" stop-opacity=".2"/><stop offset="1" stop-color="#fff" stop-opacity="0"/></linearGradient></defs></svg>